<ttFont>
    <TTGlyph name=".notdef" xMin="102" yMin="0" xMax="950" yMax="1067">
      <contour>
        <pt x="102" y="1067" on="1"/>
        <pt x="950" y="1067" on="1"/>
        <pt x="950" y="0" on="1"/>
        <pt x="102" y="0" on="1"/>
      </contour>
      <contour>
        <pt x="250" y="147" on="1"/>
        <pt x="803" y="147" on="1"/>
        <pt x="803" y="920" on="1"/>
        <pt x="250" y="920" on="1"/>
      </contour>
    </TTGlyph>
    <TTGlyph name="A" xMin="-31" yMin="0" xMax="1400" yMax="1434">
      <contour>
        <pt x="1400" y="92" on="1"/>
        <pt x="1380" y="0" on="1"/>
        <pt x="909" y="0" on="1"/>
        <pt x="909" y="72" on="1"/>
        <pt x="1054" y="117" on="1"/>
        <pt x="923" y="451" on="1"/>
        <pt x="360" y="451" on="1"/>
        <pt x="235" y="123" on="1"/>
        <pt x="401" y="92" on="1"/>
        <pt x="380" y="0" on="1"/>
        <pt x="-31" y="0" on="1"/>
        <pt x="-31" y="72" on="1"/>
        <pt x="114" y="123" on="1"/>
        <pt x="607" y="1434" on="1"/>
        <pt x="757" y="1434" on="1"/>
        <pt x="1257" y="127" on="1"/>
      </contour>
      <contour>
        <pt x="401" y="563" on="1"/>
        <pt x="882" y="563" on="1"/>
        <pt x="640" y="1196" on="1"/>
      </contour>
    </TTGlyph>
    <TTGlyph name="AE" xMin="-59" yMin="0" xMax="1843" yMax="1434">
      <contour>
        <pt x="377" y="92" on="1"/>
        <pt x="356" y="0" on="1"/>
        <pt x="-59" y="0" on="1"/>
        <pt x="-59" y="72" on="1"/>
        <pt x="76" y="123" on="1"/>
        <pt x="854" y="1317" on="1"/>
        <pt x="731" y="1341" on="1"/>
        <pt x="752" y="1434" on="1"/>
        <pt x="1800" y="1434" on="1"/>
        <pt x="1800" y="1087" on="1"/>
        <pt x="1698" y="1077" on="1"/>
        <pt x="1632" y="1321" on="1"/>
        <pt x="1194" y="1321" on="1"/>
        <pt x="1194" y="801" on="1"/>
        <pt x="1479" y="809" on="1"/>
        <pt x="1534" y="946" on="1"/>
        <pt x="1606" y="946" on="1"/>
        <pt x="1606" y="543" on="1"/>
        <pt x="1548" y="543" on="1"/>
        <pt x="1479" y="678" on="1"/>
        <pt x="1194" y="688" on="1"/>
        <pt x="1194" y="113" on="1"/>
        <pt x="1671" y="113" on="1"/>
        <pt x="1737" y="350" on="1"/>
        <pt x="1843" y="338" on="1"/>
        <pt x="1843" y="0" on="1"/>
        <pt x="795" y="0" on="1"/>
        <pt x="795" y="72" on="1"/>
        <pt x="989" y="131" on="1"/>
        <pt x="989" y="647" on="1"/>
        <pt x="553" y="647" on="1"/>
        <pt x="211" y="123" on="1"/>
      </contour>
      <contour>
        <pt x="989" y="760" on="1"/>
        <pt x="989" y="1317" on="1"/>
        <pt x="627" y="760" on="1"/>
      </contour>
    </TTGlyph>
    <TTGlyph name="Aacute" xMin="-31" yMin="0" xMax="1400" yMax="1903">
      <component glyphName="A" x="0" y="0" flags="0x204"/>
      <component glyphName="acute" x="601" y="371" flags="0x4"/>
    </TTGlyph>
    <TTGlyph name="Acircumflex" xMin="-31" yMin="0" xMax="1400" yMax="1907">
      <component glyphName="A" x="0" y="0" flags="0x204"/>
      <component glyphName="circumflex" x="147" y="371" flags="0x4"/>
    </TTGlyph>
    <TTGlyph name="Acute" xMin="446" yMin="1518" xMax="815" yMax="1827">
      <contour>
        <pt x="559" y="1518" on="1"/>
        <pt x="446" y="1518" on="1"/>
        <pt x="614" y="1827" on="1"/>
        <pt x="815" y="1827" on="1"/>
      </contour>
    </TTGlyph>
    <TTGlyph name="Adieresis" xMin="-31" yMin="0" xMax="1400" yMax="1850">
      <component glyphName="A" x="0" y="0" flags="0x204"/>
      <component glyphName="dieresis" x="305" y="371" flags="0x4"/>
    </TTGlyph>
    <TTGlyph name="Agrave" xMin="-31" yMin="0" xMax="1400" yMax="1907">
      <component glyphName="A" x="0" y="0" flags="0x204"/>
      <component glyphName="grave" x="71" y="371" flags="0x4"/>
    </TTGlyph>
    <TTGlyph name="Aring" xMin="-31" yMin="0" xMax="1400" yMax="1988">
      <component glyphName="A" x="0" y="0" flags="0x204"/>
      <component glyphName="ring" x="167" y="331" flags="0x4"/>
    </TTGlyph>
    <TTGlyph name="Atilde" xMin="-31" yMin="0" xMax="1400" yMax="1865">
      <component glyphName="A" x="0" y="0" flags="0x204"/>
      <component glyphName="tilde" x="-130" y="371" flags="0x4"/>
    </TTGlyph>
    <TTGlyph name="B" xMin="74" yMin="0" xMax="1219" yMax="1434">
      <contour>
        <pt x="74" y="0" on="1"/>
        <pt x="74" y="72" on="1"/>
        <pt x="268" y="131" on="1"/>
        <pt x="268" y="1303" on="1"/>
        <pt x="74" y="1341" on="1"/>
        <pt x="94" y="1434" on="1"/>
        <pt x="676" y="1434" on="1"/>
        <pt x="899" y="1434" on="0"/>
        <pt x="1151" y="1247" on="0"/>
        <pt x="1151" y="1071" on="1"/>
        <pt x="1151" y="993" on="0"/>
        <pt x="1094" y="883" on="0"/>
        <pt x="1006" y="809" on="0"/>
        <pt x="895" y="766" on="0"/>
        <pt x="840" y="758" on="1"/>
        <pt x="840" y="748" on="1"/>
        <pt x="909" y="745" on="0"/>
        <pt x="1044" y="700" on="0"/>
        <pt x="1151" y="614" on="0"/>
        <pt x="1219" y="489" on="0"/>
        <pt x="1219" y="406" on="1"/>
        <pt x="1219" y="287" on="0"/>
        <pt x="1143" y="131" on="0"/>
        <pt x="1001" y="39" on="0"/>
        <pt x="801" y="0" on="0"/>
        <pt x="676" y="0" on="1"/>
      </contour>
      <contour>
        <pt x="676" y="113" on="1"/>
        <pt x="766" y="113" on="0"/>
        <pt x="891" y="162" on="0"/>
        <pt x="969" y="244" on="0"/>
        <pt x="1003" y="348" on="0"/>
        <pt x="1003" y="403" on="1"/>
        <pt x="1003" y="457" on="0"/>
        <pt x="965" y="557" on="0"/>
        <pt x="891" y="637" on="0"/>
        <pt x="778" y="686" on="0"/>
        <pt x="704" y="686" on="1"/>
        <pt x="473" y="686" on="1"/>
        <pt x="473" y="113" on="1"/>
      </contour>
      <contour>
        <pt x="709" y="788" on="1"/>
        <pt x="747" y="788" on="0"/>
        <pt x="829" y="821" on="0"/>
        <pt x="895" y="889" on="0"/>
        <pt x="936" y="993" on="0"/>
        <pt x="936" y="1063" on="1"/>
        <pt x="936" y="1184" on="0"/>
        <pt x="801" y="1321" on="0"/>
        <pt x="676" y="1321" on="1"/>
        <pt x="473" y="1321" on="1"/>
        <pt x="473" y="788" on="1"/>
      </contour>
    </TTGlyph>
    <TTGlyph name="C" xMin="89" yMin="-29" xMax="1248" yMax="1461">
      <contour>
        <pt x="1058" y="1297" on="1"/>
        <pt x="1009" y="1329" on="0"/>
        <pt x="880" y="1347" on="0"/>
        <pt x="818" y="1347" on="1"/>
        <pt x="720" y="1347" on="0"/>
        <pt x="534" y="1271" on="0"/>
        <pt x="390" y="1113" on="0"/>
        <pt x="304" y="873" on="0"/>
        <pt x="304" y="711" on="1"/>
        <pt x="304" y="536" on="0"/>
        <pt x="390" y="297" on="0"/>
        <pt x="538" y="151" on="0"/>
        <pt x="730" y="86" on="0"/>
        <pt x="837" y="85" on="1"/>
        <pt x="915" y="86" on="0"/>
        <pt x="1023" y="119" on="0"/>
        <pt x="1070" y="143" on="1"/>
        <pt x="1144" y="460" on="1"/>
        <pt x="1248" y="438" on="1"/>
        <pt x="1248" y="88" on="1"/>
        <pt x="1160" y="45" on="0"/>
        <pt x="939" y="-29" on="0"/>
        <pt x="788" y="-29" on="1"/>
        <pt x="648" y="-29" on="0"/>
        <pt x="394" y="66" on="0"/>
        <pt x="202" y="252" on="0"/>
        <pt x="89" y="530" on="0"/>
        <pt x="89" y="711" on="1"/>
        <pt x="89" y="888" on="0"/>
        <pt x="214" y="1165" on="0"/>
        <pt x="425" y="1358" on="0"/>
        <pt x="702" y="1461" on="0"/>
        <pt x="853" y="1461" on="1"/>
        <pt x="947" y="1461" on="0"/>
        <pt x="1136" y="1420" on="0"/>
        <pt x="1230" y="1376" on="1"/>
        <pt x="1230" y="1027" on="1"/>
        <pt x="1127" y="1006" on="1"/>
      </contour>
    </TTGlyph>
    <TTGlyph name="Ccedilla" xMin="90" yMin="-492" xMax="1249" yMax="1456">
      <contour>
        <pt x="1059" y="1294" on="1"/>
        <pt x="1010" y="1325" on="0"/>
        <pt x="881" y="1343" on="0"/>
        <pt x="819" y="1343" on="1"/>
        <pt x="721" y="1343" on="0"/>
        <pt x="535" y="1268" on="0"/>
        <pt x="391" y="1112" on="0"/>
        <pt x="305" y="874" on="0"/>
        <pt x="305" y="715" on="1"/>
        <pt x="305" y="541" on="0"/>
        <pt x="391" y="305" on="0"/>
        <pt x="539" y="160" on="0"/>
        <pt x="731" y="96" on="0"/>
        <pt x="838" y="96" on="1"/>
        <pt x="916" y="96" on="0"/>
        <pt x="1024" y="129" on="0"/>
        <pt x="1071" y="152" on="1"/>
        <pt x="1145" y="465" on="1"/>
        <pt x="1249" y="444" on="1"/>
        <pt x="1249" y="98" on="1"/>
        <pt x="1161" y="55" on="0"/>
        <pt x="1050" y="18" on="1"/>
        <pt x="943" y="-17" on="0"/>
        <pt x="797" y="-18" on="1"/>
        <pt x="797" y="-66" on="1"/>
        <pt x="879" y="-76" on="0"/>
        <pt x="944" y="-160" on="0"/>
        <pt x="944" y="-223" on="1"/>
        <pt x="944" y="-289" on="0"/>
        <pt x="872" y="-385" on="0"/>
        <pt x="762" y="-451" on="0"/>
        <pt x="631" y="-487" on="0"/>
        <pt x="571" y="-492" on="1"/>
        <pt x="557" y="-430" on="1"/>
        <pt x="590" y="-422" on="0"/>
        <pt x="660" y="-401" on="0"/>
        <pt x="721" y="-369" on="0"/>
        <pt x="766" y="-322" on="0"/>
        <pt x="770" y="-291" on="1"/>
        <pt x="780" y="-231" on="0"/>
        <pt x="743" y="-137" on="0"/>
        <pt x="684" y="-125" on="1"/>
        <pt x="684" y="-11" on="1"/>
        <pt x="600" y="0" on="0"/>
        <pt x="522" y="29" on="1"/>
        <pt x="395" y="76" on="0"/>
        <pt x="203" y="260" on="0"/>
        <pt x="90" y="535" on="0"/>
        <pt x="90" y="715" on="1"/>
        <pt x="90" y="889" on="0"/>
        <pt x="215" y="1163" on="0"/>
        <pt x="426" y="1354" on="0"/>
        <pt x="703" y="1456" on="0"/>
        <pt x="854" y="1456" on="1"/>
        <pt x="948" y="1456" on="0"/>
        <pt x="1137" y="1415" on="0"/>
        <pt x="1231" y="1372" on="1"/>
        <pt x="1231" y="1026" on="1"/>
        <pt x="1128" y="1006" on="1"/>
      </contour>
    </TTGlyph>
    <TTGlyph name="D" xMin="74" yMin="0" xMax="1393" yMax="1434">
      <contour>
        <pt x="1393" y="713" on="1"/>
        <pt x="1393" y="565" on="0"/>
        <pt x="1298" y="305" on="0"/>
        <pt x="1116" y="113" on="0"/>
        <pt x="850" y="0" on="0"/>
        <pt x="678" y="0" on="1"/>
        <pt x="74" y="0" on="1"/>
        <pt x="74" y="72" on="1"/>
        <pt x="268" y="131" on="1"/>
        <pt x="268" y="1303" on="1"/>
        <pt x="74" y="1341" on="1"/>
        <pt x="94" y="1434" on="1"/>
        <pt x="678" y="1434" on="1"/>
        <pt x="856" y="1434" on="0"/>
        <pt x="1124" y="1319" on="0"/>
        <pt x="1302" y="1122" on="0"/>
        <pt x="1393" y="860" on="0"/>
      </contour>
      <contour>
        <pt x="473" y="1321" on="1"/>
        <pt x="473" y="113" on="1"/>
        <pt x="643" y="113" on="1"/>
        <pt x="770" y="113" on="0"/>
        <pt x="969" y="197" on="0"/>
        <pt x="1106" y="352" on="0"/>
        <pt x="1178" y="573" on="0"/>
        <pt x="1178" y="713" on="1"/>
        <pt x="1178" y="850" on="0"/>
        <pt x="1116" y="1075" on="0"/>
        <pt x="987" y="1235" on="0"/>
        <pt x="784" y="1321" on="0"/>
        <pt x="643" y="1321" on="1"/>
      </contour>
    </TTGlyph>
    <TTGlyph name="E" xMin="74" yMin="0" xMax="1184" yMax="1434">
      <contour>
        <pt x="1077" y="350" on="1"/>
        <pt x="1184" y="328" on="1"/>
        <pt x="1184" y="0" on="1"/>
        <pt x="74" y="0" on="1"/>
        <pt x="74" y="72" on="1"/>
        <pt x="268" y="131" on="1"/>
        <pt x="268" y="1303" on="1"/>
        <pt x="74" y="1341" on="1"/>
        <pt x="94" y="1434" on="1"/>
        <pt x="1141" y="1434" on="1"/>
        <pt x="1141" y="1098" on="1"/>
        <pt x="1038" y="1077" on="1"/>
        <pt x="973" y="1321" on="1"/>
        <pt x="473" y="1321" on="1"/>
        <pt x="473" y="801" on="1"/>
        <pt x="819" y="809" on="1"/>
        <pt x="874" y="946" on="1"/>
        <pt x="946" y="926" on="1"/>
        <pt x="946" y="563" on="1"/>
        <pt x="889" y="543" on="1"/>
        <pt x="819" y="678" on="1"/>
        <pt x="473" y="688" on="1"/>
        <pt x="473" y="113" on="1"/>
        <pt x="1012" y="113" on="1"/>
      </contour>
    </TTGlyph>
    <TTGlyph name="Eacute" xMin="74" yMin="0" xMax="1184" yMax="1903">
      <component glyphName="E" x="0" y="0" flags="0x204"/>
      <component glyphName="acute" x="581" y="371" flags="0x4"/>
    </TTGlyph>
    <TTGlyph name="Ecircumflex" xMin="74" yMin="0" xMax="1184" yMax="1907">
      <component glyphName="E" x="0" y="0" flags="0x204"/>
      <component glyphName="circumflex" x="137" y="371" flags="0x4"/>
    </TTGlyph>
    <TTGlyph name="Edieresis" xMin="74" yMin="0" xMax="1184" yMax="1850">
      <component glyphName="E" x="0" y="0" flags="0x204"/>
      <component glyphName="dieresis" x="237" y="371" flags="0x4"/>
    </TTGlyph>
    <TTGlyph name="Egrave" xMin="74" yMin="0" xMax="1184" yMax="1907">
      <component glyphName="E" x="0" y="0" flags="0x204"/>
      <component glyphName="grave" x="81" y="371" flags="0x4"/>
    </TTGlyph>
    <TTGlyph name="Eth" xMin="75" yMin="0" xMax="1394" yMax="1434">
      <contour>
        <pt x="77" y="811" on="1"/>
        <pt x="269" y="811" on="1"/>
        <pt x="269" y="1303" on="1"/>
        <pt x="75" y="1341" on="1"/>
        <pt x="95" y="1434" on="1"/>
        <pt x="679" y="1434" on="1"/>
        <pt x="857" y="1434" on="0"/>
        <pt x="1125" y="1319" on="0"/>
        <pt x="1303" y="1122" on="0"/>
        <pt x="1394" y="860" on="0"/>
        <pt x="1394" y="713" on="1"/>
        <pt x="1394" y="565" on="0"/>
        <pt x="1299" y="305" on="0"/>
        <pt x="1117" y="113" on="0"/>
        <pt x="851" y="0" on="0"/>
        <pt x="679" y="0" on="1"/>
        <pt x="75" y="0" on="1"/>
        <pt x="75" y="72" on="1"/>
        <pt x="269" y="131" on="1"/>
        <pt x="269" y="678" on="1"/>
        <pt x="77" y="678" on="1"/>
      </contour>
      <contour>
        <pt x="474" y="1321" on="1"/>
        <pt x="474" y="811" on="1"/>
        <pt x="689" y="811" on="1"/>
        <pt x="689" y="678" on="1"/>
        <pt x="474" y="678" on="1"/>
        <pt x="474" y="113" on="1"/>
        <pt x="644" y="113" on="1"/>
        <pt x="771" y="113" on="0"/>
        <pt x="970" y="197" on="0"/>
        <pt x="1107" y="352" on="0"/>
        <pt x="1179" y="573" on="0"/>
        <pt x="1179" y="713" on="1"/>
        <pt x="1179" y="850" on="0"/>
        <pt x="1117" y="1075" on="0"/>
        <pt x="988" y="1235" on="0"/>
        <pt x="785" y="1321" on="0"/>
        <pt x="644" y="1321" on="1"/>
      </contour>
    </TTGlyph>
    <TTGlyph name="Euro" xMin="58" yMin="-27" xMax="1373" yMax="1468">
      <contour>
        <pt x="1319" y="82" on="1"/>
        <pt x="1203" y="27" on="0"/>
        <pt x="994" y="-27" on="0"/>
        <pt x="900" y="-27" on="1"/>
        <pt x="678" y="-27" on="0"/>
        <pt x="390" y="246" on="0"/>
        <pt x="345" y="496" on="1"/>
        <pt x="58" y="496" on="1"/>
        <pt x="119" y="608" on="1"/>
        <pt x="330" y="608" on="1"/>
        <pt x="326" y="633" on="0"/>
        <pt x="326" y="684" on="0"/>
        <pt x="326" y="713" on="1"/>
        <pt x="326" y="729" on="0"/>
        <pt x="326" y="766" on="0"/>
        <pt x="328" y="782" on="1"/>
        <pt x="140" y="782" on="1"/>
        <pt x="201" y="895" on="1"/>
        <pt x="338" y="895" on="1"/>
        <pt x="359" y="1044" on="0"/>
        <pt x="467" y="1262" on="0"/>
        <pt x="629" y="1401" on="0"/>
        <pt x="836" y="1468" on="0"/>
        <pt x="957" y="1468" on="1"/>
        <pt x="1065" y="1468" on="0"/>
        <pt x="1278" y="1405" on="0"/>
        <pt x="1373" y="1343" on="1"/>
        <pt x="1217" y="1018" on="1"/>
        <pt x="1115" y="1053" on="1"/>
        <pt x="1141" y="1317" on="1"/>
        <pt x="1039" y="1362" on="0"/>
        <pt x="943" y="1362" on="1"/>
        <pt x="863" y="1362" on="0"/>
        <pt x="736" y="1313" on="0"/>
        <pt x="642" y="1202" on="0"/>
        <pt x="580" y="1024" on="0"/>
        <pt x="568" y="895" on="1"/>
        <pt x="1084" y="895" on="1"/>
        <pt x="1022" y="782" on="1"/>
        <pt x="562" y="782" on="1"/>
        <pt x="562" y="713" on="1"/>
        <pt x="562" y="684" on="0"/>
        <pt x="562" y="633" on="0"/>
        <pt x="564" y="608" on="1"/>
        <pt x="988" y="608" on="1"/>
        <pt x="926" y="496" on="1"/>
        <pt x="576" y="496" on="1"/>
        <pt x="640" y="94" on="0"/>
        <pt x="963" y="94" on="1"/>
        <pt x="1104" y="94" on="0"/>
        <pt x="1293" y="174" on="1"/>
      </contour>
    </TTGlyph>
    <TTGlyph name="F" xMin="74" yMin="0" xMax="1141" yMax="1434">
      <contour>
        <pt x="819" y="809" on="1"/>
        <pt x="874" y="946" on="1"/>
        <pt x="946" y="926" on="1"/>
        <pt x="946" y="563" on="1"/>
        <pt x="889" y="543" on="1"/>
        <pt x="819" y="678" on="1"/>
        <pt x="473" y="688" on="1"/>
        <pt x="473" y="131" on="1"/>
        <pt x="707" y="92" on="1"/>
        <pt x="686" y="0" on="1"/>
        <pt x="74" y="0" on="1"/>
        <pt x="74" y="72" on="1"/>
        <pt x="268" y="131" on="1"/>
        <pt x="268" y="1303" on="1"/>
        <pt x="74" y="1341" on="1"/>
        <pt x="94" y="1434" on="1"/>
        <pt x="1141" y="1434" on="1"/>
        <pt x="1141" y="1087" on="1"/>
        <pt x="1038" y="1067" on="1"/>
        <pt x="973" y="1321" on="1"/>
        <pt x="473" y="1321" on="1"/>
        <pt x="473" y="801" on="1"/>
      </contour>
    </TTGlyph>
    <TTGlyph name="G" xMin="91" yMin="-29" xMax="1404" yMax="1462">
      <contour>
        <pt x="1289" y="1026" on="1"/>
        <pt x="1185" y="1006" on="1"/>
        <pt x="1115" y="1293" on="1"/>
        <pt x="1066" y="1324" on="0"/>
        <pt x="937" y="1349" on="0"/>
        <pt x="876" y="1349" on="1"/>
        <pt x="754" y="1349" on="0"/>
        <pt x="545" y="1269" on="0"/>
        <pt x="392" y="1109" on="0"/>
        <pt x="306" y="870" on="0"/>
        <pt x="306" y="710" on="1"/>
        <pt x="306" y="624" on="0"/>
        <pt x="332" y="479" on="0"/>
        <pt x="379" y="359" on="0"/>
        <pt x="443" y="264" on="0"/>
        <pt x="481" y="228" on="1"/>
        <pt x="520" y="191" on="0"/>
        <pt x="606" y="140" on="0"/>
        <pt x="696" y="107" on="0"/>
        <pt x="786" y="92" on="0"/>
        <pt x="830" y="92" on="1"/>
        <pt x="894" y="92" on="0"/>
        <pt x="1023" y="123" on="0"/>
        <pt x="1084" y="144" on="1"/>
        <pt x="1084" y="516" on="1"/>
        <pt x="880" y="555" on="1"/>
        <pt x="880" y="626" on="1"/>
        <pt x="1404" y="626" on="1"/>
        <pt x="1404" y="555" on="1"/>
        <pt x="1289" y="518" on="1"/>
        <pt x="1289" y="94" on="1"/>
        <pt x="1180" y="39" on="0"/>
        <pt x="937" y="-29" on="0"/>
        <pt x="802" y="-29" on="1"/>
        <pt x="662" y="-29" on="0"/>
        <pt x="405" y="66" on="0"/>
        <pt x="208" y="253" on="0"/>
        <pt x="91" y="529" on="0"/>
        <pt x="91" y="710" on="1"/>
        <pt x="91" y="841" on="0"/>
        <pt x="149" y="1054" on="0"/>
        <pt x="254" y="1221" on="0"/>
        <pt x="399" y="1343" on="0"/>
        <pt x="574" y="1423" on="0"/>
        <pt x="773" y="1462" on="0"/>
        <pt x="878" y="1462" on="1"/>
        <pt x="1094" y="1462" on="0"/>
        <pt x="1289" y="1371" on="1"/>
      </contour>
    </TTGlyph>
    <TTGlyph name="H" xMin="74" yMin="0" xMax="1569" yMax="1434">
      <contour>
        <pt x="1569" y="92" on="1"/>
        <pt x="1548" y="0" on="1"/>
        <pt x="975" y="0" on="1"/>
        <pt x="975" y="72" on="1"/>
        <pt x="1169" y="131" on="1"/>
        <pt x="1169" y="674" on="1"/>
        <pt x="473" y="674" on="1"/>
        <pt x="473" y="131" on="1"/>
        <pt x="668" y="92" on="1"/>
        <pt x="647" y="0" on="1"/>
        <pt x="74" y="0" on="1"/>
        <pt x="74" y="72" on="1"/>
        <pt x="268" y="131" on="1"/>
        <pt x="268" y="1303" on="1"/>
        <pt x="74" y="1341" on="1"/>
        <pt x="94" y="1434" on="1"/>
        <pt x="668" y="1434" on="1"/>
        <pt x="668" y="1362" on="1"/>
        <pt x="473" y="1303" on="1"/>
        <pt x="473" y="786" on="1"/>
        <pt x="1169" y="786" on="1"/>
        <pt x="1169" y="1303" on="1"/>
        <pt x="975" y="1341" on="1"/>
        <pt x="995" y="1434" on="1"/>
        <pt x="1569" y="1434" on="1"/>
        <pt x="1569" y="1362" on="1"/>
        <pt x="1374" y="1303" on="1"/>
        <pt x="1374" y="131" on="1"/>
      </contour>
    </TTGlyph>
    <TTGlyph name="I" xMin="74" yMin="0" xMax="668" yMax="1434">
      <contour>
        <pt x="473" y="1303" on="1"/>
        <pt x="473" y="131" on="1"/>
        <pt x="668" y="92" on="1"/>
        <pt x="647" y="0" on="1"/>
        <pt x="74" y="0" on="1"/>
        <pt x="74" y="72" on="1"/>
        <pt x="268" y="131" on="1"/>
        <pt x="268" y="1303" on="1"/>
        <pt x="74" y="1341" on="1"/>
        <pt x="94" y="1434" on="1"/>
        <pt x="668" y="1434" on="1"/>
        <pt x="668" y="1362" on="1"/>
      </contour>
    </TTGlyph>
    <TTGlyph name="Iacute" xMin="74" yMin="0" xMax="700" yMax="1903">
      <component glyphName="I" x="0" y="0" flags="0x204"/>
      <component glyphName="acute" x="290" y="371" flags="0x4"/>
    </TTGlyph>
    <TTGlyph name="Icircumflex" xMin="71" yMin="0" xMax="692" yMax="1907">
      <component glyphName="I" x="0" y="0" flags="0x204"/>
      <component glyphName="circumflex" x="-154" y="371" flags="0x4"/>
    </TTGlyph>
    <TTGlyph name="Idieresis" xMin="26" yMin="0" xMax="718" yMax="1850">
      <component glyphName="I" x="0" y="0" flags="0x204"/>
      <component glyphName="dieresis" x="-13" y="371" flags="0x4"/>
    </TTGlyph>
    <TTGlyph name="Igrave" xMin="6" yMin="0" xMax="668" yMax="1907">
      <component glyphName="I" x="0" y="0" flags="0x204"/>
      <component glyphName="grave" x="-225" y="371" flags="0x4"/>
    </TTGlyph>
    <TTGlyph name="J" xMin="67" yMin="-27" xMax="941" yMax="1434">
      <contour>
        <pt x="657" y="86" on="1"/>
        <pt x="603" y="25" on="0"/>
        <pt x="466" y="-27" on="0"/>
        <pt x="390" y="-27" on="1"/>
        <pt x="306" y="-27" on="0"/>
        <pt x="138" y="20" on="0"/>
        <pt x="67" y="55" on="1"/>
        <pt x="67" y="391" on="1"/>
        <pt x="173" y="412" on="1"/>
        <pt x="247" y="109" on="1"/>
        <pt x="308" y="88" on="0"/>
        <pt x="360" y="88" on="1"/>
        <pt x="429" y="88" on="0"/>
        <pt x="507" y="147" on="0"/>
        <pt x="546" y="246" on="0"/>
        <pt x="556" y="375" on="0"/>
        <pt x="556" y="446" on="1"/>
        <pt x="556" y="535" on="1"/>
        <pt x="556" y="1303" on="1"/>
        <pt x="362" y="1341" on="1"/>
        <pt x="382" y="1434" on="1"/>
        <pt x="941" y="1434" on="1"/>
        <pt x="941" y="1362" on="1"/>
        <pt x="761" y="1303" on="1"/>
        <pt x="761" y="551" on="1"/>
        <pt x="761" y="492" on="0"/>
        <pt x="759" y="369" on="0"/>
        <pt x="741" y="248" on="0"/>
        <pt x="698" y="135" on="0"/>
      </contour>
    </TTGlyph>
    <TTGlyph name="K" xMin="74" yMin="0" xMax="1434" yMax="1434">
      <contour>
        <pt x="473" y="672" on="1"/>
        <pt x="473" y="131" on="1"/>
        <pt x="647" y="92" on="1"/>
        <pt x="627" y="0" on="1"/>
        <pt x="74" y="0" on="1"/>
        <pt x="74" y="72" on="1"/>
        <pt x="268" y="131" on="1"/>
        <pt x="268" y="1303" on="1"/>
        <pt x="74" y="1341" on="1"/>
        <pt x="94" y="1434" on="1"/>
        <pt x="627" y="1434" on="1"/>
        <pt x="627" y="1362" on="1"/>
        <pt x="473" y="1303" on="1"/>
        <pt x="473" y="784" on="1"/>
        <pt x="657" y="784" on="1"/>
        <pt x="1049" y="1321" on="1"/>
        <pt x="917" y="1341" on="1"/>
        <pt x="938" y="1434" on="1"/>
        <pt x="1350" y="1434" on="1"/>
        <pt x="1350" y="1362" on="1"/>
        <pt x="1176" y="1305" on="1"/>
        <pt x="797" y="788" on="1"/>
        <pt x="1239" y="129" on="1"/>
        <pt x="1434" y="92" on="1"/>
        <pt x="1413" y="0" on="1"/>
        <pt x="1079" y="0" on="1"/>
        <pt x="629" y="672" on="1"/>
      </contour>
    </TTGlyph>
    <TTGlyph name="L" xMin="73" yMin="0" xMax="1112" yMax="1434">
      <contour>
        <pt x="1009" y="408" on="1"/>
        <pt x="1112" y="387" on="1"/>
        <pt x="1112" y="0" on="1"/>
        <pt x="73" y="0" on="1"/>
        <pt x="73" y="72" on="1"/>
        <pt x="268" y="131" on="1"/>
        <pt x="268" y="1303" on="1"/>
        <pt x="73" y="1341" on="1"/>
        <pt x="94" y="1434" on="1"/>
        <pt x="688" y="1434" on="1"/>
        <pt x="688" y="1362" on="1"/>
        <pt x="473" y="1303" on="1"/>
        <pt x="473" y="113" on="1"/>
        <pt x="940" y="113" on="1"/>
      </contour>
    </TTGlyph>
    <TTGlyph name="M" xMin="73" yMin="0" xMax="1876" yMax="1434">
      <contour>
        <pt x="1681" y="1303" on="1"/>
        <pt x="1681" y="131" on="1"/>
        <pt x="1876" y="92" on="1"/>
        <pt x="1855" y="0" on="1"/>
        <pt x="1284" y="0" on="1"/>
        <pt x="1284" y="72" on="1"/>
        <pt x="1476" y="129" on="1"/>
        <pt x="1476" y="1161" on="1"/>
        <pt x="970" y="131" on="1"/>
        <pt x="899" y="131" on="1"/>
        <pt x="391" y="1135" on="1"/>
        <pt x="391" y="131" on="1"/>
        <pt x="585" y="92" on="1"/>
        <pt x="565" y="0" on="1"/>
        <pt x="73" y="0" on="1"/>
        <pt x="73" y="72" on="1"/>
        <pt x="268" y="131" on="1"/>
        <pt x="268" y="1303" on="1"/>
        <pt x="75" y="1341" on="1"/>
        <pt x="96" y="1434" on="1"/>
        <pt x="458" y="1434" on="1"/>
        <pt x="975" y="410" on="1"/>
        <pt x="1478" y="1434" on="1"/>
        <pt x="1876" y="1434" on="1"/>
        <pt x="1876" y="1362" on="1"/>
      </contour>
    </TTGlyph>
    <TTGlyph name="N" xMin="73" yMin="0" xMax="1546" yMax="1434">
      <contour>
        <pt x="391" y="1434" on="1"/>
        <pt x="1229" y="322" on="1"/>
        <pt x="1229" y="1303" on="1"/>
        <pt x="1036" y="1341" on="1"/>
        <pt x="1056" y="1434" on="1"/>
        <pt x="1546" y="1434" on="1"/>
        <pt x="1546" y="1362" on="1"/>
        <pt x="1351" y="1303" on="1"/>
        <pt x="1351" y="0" on="1"/>
        <pt x="1229" y="0" on="1"/>
        <pt x="391" y="1114" on="1"/>
        <pt x="391" y="131" on="1"/>
        <pt x="585" y="92" on="1"/>
        <pt x="565" y="0" on="1"/>
        <pt x="73" y="0" on="1"/>
        <pt x="73" y="72" on="1"/>
        <pt x="268" y="131" on="1"/>
        <pt x="268" y="1303" on="1"/>
        <pt x="73" y="1341" on="1"/>
        <pt x="94" y="1434" on="1"/>
      </contour>
    </TTGlyph>
    <TTGlyph name="Ntilde" xMin="73" yMin="0" xMax="1546" yMax="1865">
      <component glyphName="N" x="0" y="0" flags="0x204"/>
      <component glyphName="tilde" x="-14" y="371" flags="0x4"/>
    </TTGlyph>
    <TTGlyph name="O" xMin="90" yMin="-29" xMax="1477" yMax="1462">
      <contour>
        <pt x="807" y="84" on="1"/>
        <pt x="909" y="84" on="0"/>
        <pt x="1077" y="182" on="0"/>
        <pt x="1196" y="346" on="0"/>
        <pt x="1262" y="563" on="0"/>
        <pt x="1262" y="680" on="1"/>
        <pt x="1262" y="807" on="0"/>
        <pt x="1204" y="1049" on="0"/>
        <pt x="1081" y="1235" on="0"/>
        <pt x="891" y="1350" on="0"/>
        <pt x="760" y="1350" on="1"/>
        <pt x="657" y="1350" on="0"/>
        <pt x="490" y="1251" on="0"/>
        <pt x="371" y="1087" on="0"/>
        <pt x="305" y="870" on="0"/>
        <pt x="305" y="754" on="1"/>
        <pt x="305" y="627" on="0"/>
        <pt x="363" y="385" on="0"/>
        <pt x="485" y="199" on="0"/>
        <pt x="676" y="84" on="0"/>
      </contour>
      <contour>
        <pt x="782" y="1462" on="1"/>
        <pt x="952" y="1462" on="0"/>
        <pt x="1212" y="1339" on="0"/>
        <pt x="1387" y="1133" on="0"/>
        <pt x="1477" y="862" on="0"/>
        <pt x="1477" y="715" on="1"/>
        <pt x="1477" y="561" on="0"/>
        <pt x="1380" y="289" on="0"/>
        <pt x="1202" y="88" on="0"/>
        <pt x="946" y="-29" on="0"/>
        <pt x="784" y="-29" on="1"/>
        <pt x="614" y="-29" on="0"/>
        <pt x="354" y="94" on="0"/>
        <pt x="178" y="301" on="0"/>
        <pt x="90" y="571" on="0"/>
        <pt x="90" y="719" on="1"/>
        <pt x="90" y="872" on="0"/>
        <pt x="186" y="1145" on="0"/>
        <pt x="365" y="1346" on="0"/>
        <pt x="621" y="1462" on="0"/>
      </contour>
    </TTGlyph>
    <TTGlyph name="OE" xMin="90" yMin="-29" xMax="1911" yMax="1462">
      <contour>
        <pt x="1804" y="350" on="1"/>
        <pt x="1911" y="328" on="1"/>
        <pt x="1911" y="0" on="1"/>
        <pt x="993" y="0" on="1"/>
        <pt x="944" y="-14" on="0"/>
        <pt x="842" y="-29" on="0"/>
        <pt x="784" y="-29" on="1"/>
        <pt x="614" y="-29" on="0"/>
        <pt x="354" y="94" on="0"/>
        <pt x="178" y="301" on="0"/>
        <pt x="90" y="571" on="0"/>
        <pt x="90" y="719" on="1"/>
        <pt x="90" y="872" on="0"/>
        <pt x="186" y="1145" on="0"/>
        <pt x="365" y="1346" on="0"/>
        <pt x="621" y="1462" on="0"/>
        <pt x="782" y="1462" on="1"/>
        <pt x="891" y="1462" on="0"/>
        <pt x="993" y="1434" on="1"/>
        <pt x="1868" y="1434" on="1"/>
        <pt x="1868" y="1098" on="1"/>
        <pt x="1765" y="1077" on="1"/>
        <pt x="1700" y="1321" on="1"/>
        <pt x="1200" y="1321" on="1"/>
        <pt x="1200" y="809" on="1"/>
        <pt x="1546" y="809" on="1"/>
        <pt x="1602" y="946" on="1"/>
        <pt x="1673" y="926" on="1"/>
        <pt x="1673" y="563" on="1"/>
        <pt x="1616" y="543" on="1"/>
        <pt x="1546" y="688" on="1"/>
        <pt x="1200" y="688" on="1"/>
        <pt x="1200" y="113" on="1"/>
        <pt x="1739" y="113" on="1"/>
      </contour>
      <contour>
        <pt x="807" y="84" on="1"/>
        <pt x="848" y="84" on="0"/>
        <pt x="954" y="119" on="0"/>
        <pt x="993" y="137" on="1"/>
        <pt x="993" y="1288" on="1"/>
        <pt x="944" y="1317" on="0"/>
        <pt x="827" y="1350" on="0"/>
        <pt x="760" y="1350" on="1"/>
        <pt x="657" y="1350" on="0"/>
        <pt x="490" y="1251" on="0"/>
        <pt x="371" y="1087" on="0"/>
        <pt x="305" y="870" on="0"/>
        <pt x="305" y="754" on="1"/>
        <pt x="305" y="627" on="0"/>
        <pt x="363" y="385" on="0"/>
        <pt x="485" y="199" on="0"/>
        <pt x="676" y="84" on="0"/>
      </contour>
    </TTGlyph>
    <TTGlyph name="Oacute" xMin="90" yMin="-29" xMax="1477" yMax="1903">
      <component glyphName="O" x="0" y="0" flags="0x204"/>
      <component glyphName="acute" x="686" y="371" flags="0x4"/>
    </TTGlyph>
    <TTGlyph name="Ocircumflex" xMin="90" yMin="-29" xMax="1477" yMax="1906">
      <component glyphName="O" x="0" y="0" flags="0x204"/>
      <component glyphName="circumflex" x="237" y="370" flags="0x4"/>
    </TTGlyph>
    <TTGlyph name="Odieresis" xMin="90" yMin="-29" xMax="1477" yMax="1850">
      <component glyphName="O" x="0" y="0" flags="0x204"/>
      <component glyphName="dieresis" x="389" y="371" flags="0x4"/>
    </TTGlyph>
    <TTGlyph name="Ograve" xMin="90" yMin="-29" xMax="1477" yMax="1907">
      <component glyphName="O" x="0" y="0" flags="0x204"/>
      <component glyphName="grave" x="219" y="371" flags="0x4"/>
    </TTGlyph>
    <TTGlyph name="Oslash" xMin="89" yMin="-174" xMax="1476" yMax="1559">
      <contour>
        <pt x="781" y="1462" on="1"/>
        <pt x="869" y="1462" on="0"/>
        <pt x="1023" y="1427" on="0"/>
        <pt x="1089" y="1397" on="1"/>
        <pt x="1177" y="1559" on="1"/>
        <pt x="1279" y="1507" on="1"/>
        <pt x="1187" y="1337" on="1"/>
        <pt x="1330" y="1233" on="0"/>
        <pt x="1476" y="903" on="0"/>
        <pt x="1476" y="715" on="1"/>
        <pt x="1476" y="561" on="0"/>
        <pt x="1379" y="289" on="0"/>
        <pt x="1201" y="88" on="0"/>
        <pt x="945" y="-29" on="0"/>
        <pt x="783" y="-29" on="1"/>
        <pt x="697" y="-29" on="0"/>
        <pt x="552" y="2" on="0"/>
        <pt x="486" y="31" on="1"/>
        <pt x="376" y="-174" on="1"/>
        <pt x="276" y="-115" on="1"/>
        <pt x="384" y="88" on="1"/>
        <pt x="237" y="193" on="0"/>
        <pt x="89" y="526" on="0"/>
        <pt x="89" y="719" on="1"/>
        <pt x="89" y="872" on="0"/>
        <pt x="185" y="1145" on="0"/>
        <pt x="364" y="1346" on="0"/>
        <pt x="620" y="1462" on="0"/>
      </contour>
      <contour>
        <pt x="304" y="754" on="1"/>
        <pt x="304" y="606" on="0"/>
        <pt x="382" y="334" on="0"/>
        <pt x="464" y="238" on="1"/>
        <pt x="1021" y="1270" on="1"/>
        <pt x="968" y="1307" on="0"/>
        <pt x="837" y="1350" on="0"/>
        <pt x="759" y="1350" on="1"/>
        <pt x="656" y="1350" on="0"/>
        <pt x="489" y="1251" on="0"/>
        <pt x="370" y="1087" on="0"/>
        <pt x="304" y="870" on="0"/>
      </contour>
      <contour>
        <pt x="806" y="84" on="1"/>
        <pt x="908" y="84" on="0"/>
        <pt x="1076" y="182" on="0"/>
        <pt x="1195" y="346" on="0"/>
        <pt x="1261" y="563" on="0"/>
        <pt x="1261" y="680" on="1"/>
        <pt x="1261" y="823" on="0"/>
        <pt x="1185" y="1090" on="0"/>
        <pt x="1107" y="1188" on="1"/>
        <pt x="554" y="158" on="1"/>
        <pt x="605" y="123" on="0"/>
        <pt x="730" y="84" on="0"/>
      </contour>
    </TTGlyph>
    <TTGlyph name="Otilde" xMin="90" yMin="-29" xMax="1477" yMax="1865">
      <component glyphName="O" x="0" y="0" flags="0x204"/>
      <component glyphName="tilde" x="-52" y="371" flags="0x4"/>
    </TTGlyph>
    <TTGlyph name="P" xMin="74" yMin="0" xMax="1169" yMax="1434">
      <contour>
        <pt x="604" y="1434" on="1"/>
        <pt x="698" y="1434" on="0"/>
        <pt x="897" y="1411" on="0"/>
        <pt x="1063" y="1321" on="0"/>
        <pt x="1169" y="1143" on="0"/>
        <pt x="1169" y="987" on="1"/>
        <pt x="1169" y="850" on="0"/>
        <pt x="1063" y="682" on="0"/>
        <pt x="897" y="590" on="0"/>
        <pt x="698" y="557" on="0"/>
        <pt x="604" y="557" on="1"/>
        <pt x="473" y="557" on="1"/>
        <pt x="473" y="131" on="1"/>
        <pt x="709" y="92" on="1"/>
        <pt x="688" y="0" on="1"/>
        <pt x="74" y="0" on="1"/>
        <pt x="74" y="72" on="1"/>
        <pt x="268" y="131" on="1"/>
        <pt x="268" y="1303" on="1"/>
        <pt x="74" y="1341" on="1"/>
        <pt x="94" y="1434" on="1"/>
      </contour>
      <contour>
        <pt x="473" y="1321" on="1"/>
        <pt x="473" y="670" on="1"/>
        <pt x="604" y="670" on="1"/>
        <pt x="670" y="670" on="0"/>
        <pt x="795" y="688" on="0"/>
        <pt x="893" y="752" on="0"/>
        <pt x="954" y="879" on="0"/>
        <pt x="954" y="987" on="1"/>
        <pt x="954" y="1083" on="0"/>
        <pt x="899" y="1212" on="0"/>
        <pt x="805" y="1288" on="0"/>
        <pt x="678" y="1321" on="0"/>
        <pt x="604" y="1321" on="1"/>
      </contour>
    </TTGlyph>
    <TTGlyph name="Q" xMin="91" yMin="-322" xMax="1510" yMax="1462">
      <contour>
        <pt x="783" y="1462" on="1"/>
        <pt x="953" y="1462" on="0"/>
        <pt x="1213" y="1339" on="0"/>
        <pt x="1388" y="1133" on="0"/>
        <pt x="1478" y="862" on="0"/>
        <pt x="1478" y="715" on="1"/>
        <pt x="1478" y="582" on="0"/>
        <pt x="1408" y="346" on="0"/>
        <pt x="1275" y="156" on="0"/>
        <pt x="1082" y="20" on="0"/>
        <pt x="962" y="-8" on="1"/>
        <pt x="1007" y="-78" on="0"/>
        <pt x="1146" y="-158" on="0"/>
        <pt x="1297" y="-193" on="0"/>
        <pt x="1449" y="-190" on="0"/>
        <pt x="1510" y="-178" on="1"/>
        <pt x="1510" y="-254" on="1"/>
        <pt x="1410" y="-295" on="0"/>
        <pt x="1185" y="-322" on="0"/>
        <pt x="972" y="-272" on="0"/>
        <pt x="790" y="-141" on="0"/>
        <pt x="734" y="-27" on="1"/>
        <pt x="577" y="-16" on="0"/>
        <pt x="335" y="113" on="0"/>
        <pt x="173" y="317" on="0"/>
        <pt x="91" y="578" on="0"/>
        <pt x="91" y="719" on="1"/>
        <pt x="91" y="872" on="0"/>
        <pt x="187" y="1145" on="0"/>
        <pt x="366" y="1346" on="0"/>
        <pt x="622" y="1462" on="0"/>
      </contour>
      <contour>
        <pt x="808" y="84" on="1"/>
        <pt x="910" y="84" on="0"/>
        <pt x="1078" y="182" on="0"/>
        <pt x="1197" y="346" on="0"/>
        <pt x="1263" y="563" on="0"/>
        <pt x="1263" y="680" on="1"/>
        <pt x="1263" y="807" on="0"/>
        <pt x="1205" y="1049" on="0"/>
        <pt x="1082" y="1235" on="0"/>
        <pt x="892" y="1350" on="0"/>
        <pt x="761" y="1350" on="1"/>
        <pt x="658" y="1350" on="0"/>
        <pt x="491" y="1251" on="0"/>
        <pt x="372" y="1087" on="0"/>
        <pt x="306" y="870" on="0"/>
        <pt x="306" y="754" on="1"/>
        <pt x="306" y="627" on="0"/>
        <pt x="364" y="385" on="0"/>
        <pt x="486" y="199" on="0"/>
        <pt x="677" y="84" on="0"/>
      </contour>
    </TTGlyph>
    <TTGlyph name="R" xMin="74" yMin="0" xMax="1399" yMax="1434">
      <contour>
        <pt x="604" y="1434" on="1"/>
        <pt x="698" y="1434" on="0"/>
        <pt x="901" y="1407" on="0"/>
        <pt x="1069" y="1319" on="0"/>
        <pt x="1180" y="1145" on="0"/>
        <pt x="1180" y="997" on="1"/>
        <pt x="1180" y="926" on="0"/>
        <pt x="1139" y="811" on="0"/>
        <pt x="1069" y="725" on="0"/>
        <pt x="975" y="662" on="0"/>
        <pt x="920" y="641" on="1"/>
        <pt x="1233" y="125" on="1"/>
        <pt x="1399" y="92" on="1"/>
        <pt x="1378" y="0" on="1"/>
        <pt x="1069" y="0" on="1"/>
        <pt x="721" y="594" on="1"/>
        <pt x="659" y="588" on="0"/>
        <pt x="604" y="588" on="1"/>
        <pt x="473" y="588" on="1"/>
        <pt x="473" y="131" on="1"/>
        <pt x="668" y="92" on="1"/>
        <pt x="647" y="0" on="1"/>
        <pt x="74" y="0" on="1"/>
        <pt x="74" y="72" on="1"/>
        <pt x="268" y="131" on="1"/>
        <pt x="268" y="1303" on="1"/>
        <pt x="74" y="1341" on="1"/>
        <pt x="94" y="1434" on="1"/>
      </contour>
      <contour>
        <pt x="473" y="1321" on="1"/>
        <pt x="473" y="700" on="1"/>
        <pt x="604" y="700" on="1"/>
        <pt x="670" y="700" on="0"/>
        <pt x="799" y="721" on="0"/>
        <pt x="901" y="784" on="0"/>
        <pt x="965" y="901" on="0"/>
        <pt x="965" y="997" on="1"/>
        <pt x="965" y="1098" on="0"/>
        <pt x="901" y="1223" on="0"/>
        <pt x="799" y="1294" on="0"/>
        <pt x="670" y="1321" on="0"/>
        <pt x="604" y="1321" on="1"/>
      </contour>
    </TTGlyph>
    <TTGlyph name="S" xMin="107" yMin="-31" xMax="1024" yMax="1462">
      <contour>
        <pt x="107" y="404" on="1"/>
        <pt x="209" y="424" on="1"/>
        <pt x="285" y="126" on="1"/>
        <pt x="339" y="106" on="0"/>
        <pt x="451" y="83" on="0"/>
        <pt x="508" y="83" on="1"/>
        <pt x="567" y="83" on="0"/>
        <pt x="676" y="108" on="0"/>
        <pt x="759" y="170" on="0"/>
        <pt x="809" y="272" on="0"/>
        <pt x="809" y="349" on="1"/>
        <pt x="809" y="442" on="0"/>
        <pt x="758" y="498" on="1"/>
        <pt x="707" y="555" on="0"/>
        <pt x="554" y="636" on="0"/>
        <pt x="464" y="670" on="1"/>
        <pt x="419" y="687" on="0"/>
        <pt x="336" y="730" on="0"/>
        <pt x="298" y="755" on="1"/>
        <pt x="221" y="805" on="0"/>
        <pt x="170" y="881" on="1"/>
        <pt x="119" y="957" on="0"/>
        <pt x="119" y="1083" on="1"/>
        <pt x="119" y="1154" on="0"/>
        <pt x="162" y="1265" on="0"/>
        <pt x="235" y="1350" on="0"/>
        <pt x="335" y="1408" on="0"/>
        <pt x="448" y="1445" on="0"/>
        <pt x="571" y="1462" on="0"/>
        <pt x="631" y="1462" on="1"/>
        <pt x="744" y="1462" on="0"/>
        <pt x="836" y="1438" on="1"/>
        <pt x="929" y="1415" on="0"/>
        <pt x="969" y="1372" on="1"/>
        <pt x="969" y="1026" on="1"/>
        <pt x="866" y="1006" on="1"/>
        <pt x="789" y="1315" on="1"/>
        <pt x="705" y="1349" on="0"/>
        <pt x="621" y="1349" on="1"/>
        <pt x="563" y="1349" on="0"/>
        <pt x="459" y="1317" on="0"/>
        <pt x="380" y="1252" on="0"/>
        <pt x="334" y="1152" on="0"/>
        <pt x="334" y="1083" on="1"/>
        <pt x="334" y="1000" on="0"/>
        <pt x="385" y="948" on="1"/>
        <pt x="436" y="896" on="0"/>
        <pt x="589" y="815" on="0"/>
        <pt x="679" y="776" on="1"/>
        <pt x="768" y="738" on="0"/>
        <pt x="845" y="684" on="1"/>
        <pt x="922" y="630" on="0"/>
        <pt x="973" y="550" on="1"/>
        <pt x="1024" y="470" on="0"/>
        <pt x="1024" y="349" on="1"/>
        <pt x="1024" y="238" on="0"/>
        <pt x="936" y="92" on="0"/>
        <pt x="863" y="47" on="1"/>
        <pt x="827" y="25" on="0"/>
        <pt x="744" y="-5" on="0"/>
        <pt x="655" y="-23" on="0"/>
        <pt x="562" y="-31" on="0"/>
        <pt x="516" y="-31" on="1"/>
        <pt x="449" y="-31" on="0"/>
        <pt x="320" y="-16" on="0"/>
        <pt x="210" y="9" on="0"/>
        <pt x="127" y="42" on="0"/>
        <pt x="107" y="59" on="1"/>
      </contour>
    </TTGlyph>
    <TTGlyph name="T" xMin="41" yMin="0" xMax="1243" yMax="1434">
      <contour>
        <pt x="143" y="1026" on="1"/>
        <pt x="41" y="1047" on="1"/>
        <pt x="41" y="1434" on="1"/>
        <pt x="1243" y="1434" on="1"/>
        <pt x="1243" y="1047" on="1"/>
        <pt x="1141" y="1026" on="1"/>
        <pt x="1073" y="1321" on="1"/>
        <pt x="748" y="1321" on="1"/>
        <pt x="748" y="131" on="1"/>
        <pt x="942" y="92" on="1"/>
        <pt x="922" y="0" on="1"/>
        <pt x="348" y="0" on="1"/>
        <pt x="348" y="72" on="1"/>
        <pt x="543" y="131" on="1"/>
        <pt x="543" y="1321" on="1"/>
        <pt x="211" y="1321" on="1"/>
      </contour>
    </TTGlyph>
    <TTGlyph name="Thorn" xMin="74" yMin="0" xMax="1132" yMax="1434">
      <contour>
        <pt x="709" y="92" on="1"/>
        <pt x="688" y="0" on="1"/>
        <pt x="74" y="0" on="1"/>
        <pt x="74" y="72" on="1"/>
        <pt x="268" y="131" on="1"/>
        <pt x="268" y="1303" on="1"/>
        <pt x="74" y="1341" on="1"/>
        <pt x="94" y="1434" on="1"/>
        <pt x="668" y="1434" on="1"/>
        <pt x="668" y="1362" on="1"/>
        <pt x="473" y="1303" on="1"/>
        <pt x="473" y="1157" on="1"/>
        <pt x="625" y="1157" on="1"/>
        <pt x="862" y="1157" on="0"/>
        <pt x="1132" y="948" on="0"/>
        <pt x="1132" y="764" on="1"/>
        <pt x="1132" y="682" on="0"/>
        <pt x="1073" y="524" on="0"/>
        <pt x="952" y="399" on="0"/>
        <pt x="768" y="324" on="0"/>
        <pt x="645" y="324" on="1"/>
        <pt x="473" y="324" on="1"/>
        <pt x="473" y="131" on="1"/>
      </contour>
      <contour>
        <pt x="473" y="1044" on="1"/>
        <pt x="473" y="436" on="1"/>
        <pt x="563" y="436" on="1"/>
        <pt x="762" y="436" on="0"/>
        <pt x="928" y="602" on="0"/>
        <pt x="928" y="762" on="1"/>
        <pt x="928" y="819" on="0"/>
        <pt x="881" y="922" on="0"/>
        <pt x="795" y="999" on="0"/>
        <pt x="676" y="1044" on="0"/>
        <pt x="604" y="1044" on="1"/>
      </contour>
    </TTGlyph>
    <TTGlyph name="U" xMin="36" yMin="-29" xMax="1486" yMax="1434">
      <contour>
        <pt x="436" y="1303" on="1"/>
        <pt x="436" y="466" on="1"/>
        <pt x="436" y="274" on="0"/>
        <pt x="637" y="83" on="0"/>
        <pt x="823" y="83" on="1"/>
        <pt x="960" y="83" on="0"/>
        <pt x="1105" y="171" on="0"/>
        <pt x="1167" y="310" on="0"/>
        <pt x="1173" y="478" on="0"/>
        <pt x="1173" y="556" on="1"/>
        <pt x="1169" y="1303" on="1"/>
        <pt x="974" y="1341" on="1"/>
        <pt x="995" y="1434" on="1"/>
        <pt x="1486" y="1434" on="1"/>
        <pt x="1486" y="1362" on="1"/>
        <pt x="1312" y="1303" on="1"/>
        <pt x="1312" y="513" on="1"/>
        <pt x="1312" y="423" on="0"/>
        <pt x="1278" y="231" on="0"/>
        <pt x="1173" y="73" on="0"/>
        <pt x="976" y="-29" on="0"/>
        <pt x="815" y="-29" on="1"/>
        <pt x="526" y="-29" on="0"/>
        <pt x="231" y="202" on="0"/>
        <pt x="231" y="468" on="1"/>
        <pt x="231" y="1303" on="1"/>
        <pt x="36" y="1341" on="1"/>
        <pt x="57" y="1434" on="1"/>
        <pt x="630" y="1434" on="1"/>
        <pt x="630" y="1362" on="1"/>
      </contour>
    </TTGlyph>
    <TTGlyph name="Uacute" xMin="36" yMin="-29" xMax="1486" yMax="1903">
      <component glyphName="U" x="0" y="0" flags="0x204"/>
      <component glyphName="acute" x="636" y="371" flags="0x4"/>
    </TTGlyph>
    <TTGlyph name="Ucircumflex" xMin="36" yMin="-29" xMax="1486" yMax="1907">
      <component glyphName="U" x="0" y="0" flags="0x204"/>
      <component glyphName="circumflex" x="198" y="371" flags="0x4"/>
    </TTGlyph>
    <TTGlyph name="Udieresis" xMin="36" yMin="-29" xMax="1486" yMax="1850">
      <component glyphName="U" x="0" y="0" flags="0x204"/>
      <component glyphName="dieresis" x="361" y="371" flags="0x4"/>
    </TTGlyph>
    <TTGlyph name="Ugrave" xMin="36" yMin="-29" xMax="1486" yMax="1907">
      <component glyphName="U" x="0" y="0" flags="0x204"/>
      <component glyphName="grave" x="160" y="371" flags="0x4"/>
    </TTGlyph>
    <TTGlyph name="V" xMin="-42" yMin="0" xMax="1379" yMax="1434">
      <contour>
        <pt x="617" y="0" on="1"/>
        <pt x="115" y="1303" on="1"/>
        <pt x="-42" y="1341" on="1"/>
        <pt x="-22" y="1434" on="1"/>
        <pt x="472" y="1434" on="1"/>
        <pt x="472" y="1362" on="1"/>
        <pt x="318" y="1317" on="1"/>
        <pt x="724" y="268" on="1"/>
        <pt x="1090" y="1311" on="1"/>
        <pt x="914" y="1341" on="1"/>
        <pt x="935" y="1434" on="1"/>
        <pt x="1379" y="1434" on="1"/>
        <pt x="1379" y="1362" on="1"/>
        <pt x="1219" y="1305" on="1"/>
        <pt x="759" y="0" on="1"/>
      </contour>
    </TTGlyph>
    <TTGlyph name="W" xMin="-16" yMin="0" xMax="2138" yMax="1434">
      <contour>
        <pt x="541" y="0" on="1"/>
        <pt x="148" y="1305" on="1"/>
        <pt x="-16" y="1341" on="1"/>
        <pt x="4" y="1434" on="1"/>
        <pt x="525" y="1434" on="1"/>
        <pt x="525" y="1362" on="1"/>
        <pt x="349" y="1313" on="1"/>
        <pt x="648" y="322" on="1"/>
        <pt x="1031" y="1434" on="1"/>
        <pt x="1147" y="1434" on="1"/>
        <pt x="1497" y="317" on="1"/>
        <pt x="1839" y="1309" on="1"/>
        <pt x="1659" y="1341" on="1"/>
        <pt x="1680" y="1434" on="1"/>
        <pt x="2138" y="1434" on="1"/>
        <pt x="2138" y="1362" on="1"/>
        <pt x="1969" y="1309" on="1"/>
        <pt x="1520" y="0" on="1"/>
        <pt x="1393" y="0" on="1"/>
        <pt x="1047" y="1102" on="1"/>
        <pt x="666" y="0" on="1"/>
      </contour>
    </TTGlyph>
    <TTGlyph name="X" xMin="-7" yMin="0" xMax="1356" yMax="1434">
      <contour>
        <pt x="1199" y="1309" on="1"/>
        <pt x="793" y="743" on="1"/>
        <pt x="1191" y="131" on="1"/>
        <pt x="1350" y="92" on="1"/>
        <pt x="1330" y="0" on="1"/>
        <pt x="832" y="0" on="1"/>
        <pt x="832" y="72" on="1"/>
        <pt x="971" y="111" on="1"/>
        <pt x="654" y="600" on="1"/>
        <pt x="296" y="115" on="1"/>
        <pt x="445" y="92" on="1"/>
        <pt x="425" y="0" on="1"/>
        <pt x="-7" y="0" on="1"/>
        <pt x="-7" y="72" on="1"/>
        <pt x="154" y="127" on="1"/>
        <pt x="584" y="705" on="1"/>
        <pt x="197" y="1303" on="1"/>
        <pt x="27" y="1341" on="1"/>
        <pt x="48" y="1434" on="1"/>
        <pt x="564" y="1434" on="1"/>
        <pt x="564" y="1362" on="1"/>
        <pt x="419" y="1321" on="1"/>
        <pt x="726" y="848" on="1"/>
        <pt x="1060" y="1319" on="1"/>
        <pt x="916" y="1341" on="1"/>
        <pt x="937" y="1434" on="1"/>
        <pt x="1356" y="1434" on="1"/>
        <pt x="1356" y="1362" on="1"/>
      </contour>
    </TTGlyph>
    <TTGlyph name="Y" xMin="-41" yMin="0" xMax="1331" yMax="1434">
      <contour>
        <pt x="559" y="131" on="1"/>
        <pt x="559" y="610" on="1"/>
        <pt x="119" y="1303" on="1"/>
        <pt x="-41" y="1341" on="1"/>
        <pt x="-20" y="1434" on="1"/>
        <pt x="482" y="1434" on="1"/>
        <pt x="482" y="1362" on="1"/>
        <pt x="338" y="1321" on="1"/>
        <pt x="695" y="764" on="1"/>
        <pt x="1034" y="1317" on="1"/>
        <pt x="883" y="1341" on="1"/>
        <pt x="903" y="1434" on="1"/>
        <pt x="1331" y="1434" on="1"/>
        <pt x="1331" y="1362" on="1"/>
        <pt x="1166" y="1305" on="1"/>
        <pt x="764" y="653" on="1"/>
        <pt x="764" y="131" on="1"/>
        <pt x="959" y="92" on="1"/>
        <pt x="938" y="0" on="1"/>
        <pt x="365" y="0" on="1"/>
        <pt x="365" y="72" on="1"/>
      </contour>
    </TTGlyph>
    <TTGlyph name="Yacute" xMin="-41" yMin="0" xMax="1331" yMax="1903">
      <component glyphName="Y" x="0" y="0" flags="0x204"/>
      <component glyphName="acute" x="606" y="371" flags="0x4"/>
    </TTGlyph>
    <TTGlyph name="Z" xMin="82" yMin="0" xMax="1137" yMax="1434">
      <contour>
        <pt x="82" y="0" on="1"/>
        <pt x="82" y="100" on="1"/>
        <pt x="867" y="1321" on="1"/>
        <pt x="285" y="1321" on="1"/>
        <pt x="207" y="1026" on="1"/>
        <pt x="105" y="1047" on="1"/>
        <pt x="107" y="1434" on="1"/>
        <pt x="1106" y="1434" on="1"/>
        <pt x="1106" y="1329" on="1"/>
        <pt x="326" y="113" on="1"/>
        <pt x="959" y="113" on="1"/>
        <pt x="1034" y="401" on="1"/>
        <pt x="1137" y="381" on="1"/>
        <pt x="1137" y="0" on="1"/>
      </contour>
    </TTGlyph>
    <TTGlyph name="a" xMin="72" yMin="-16" xMax="1039" yMax="1083">
      <contour>
        <pt x="707" y="0" on="1"/>
        <pt x="707" y="166" on="1"/>
        <pt x="676" y="129" on="0"/>
        <pt x="588" y="63" on="0"/>
        <pt x="490" y="12" on="0"/>
        <pt x="390" y="-16" on="0"/>
        <pt x="345" y="-16" on="1"/>
        <pt x="289" y="-16" on="0"/>
        <pt x="191" y="18" on="0"/>
        <pt x="117" y="88" on="0"/>
        <pt x="72" y="186" on="0"/>
        <pt x="72" y="252" on="1"/>
        <pt x="72" y="354" on="0"/>
        <pt x="177" y="483" on="0"/>
        <pt x="310" y="518" on="1"/>
        <pt x="410" y="545" on="0"/>
        <pt x="596" y="580" on="0"/>
        <pt x="707" y="592" on="1"/>
        <pt x="707" y="760" on="1"/>
        <pt x="707" y="817" on="0"/>
        <pt x="674" y="897" on="0"/>
        <pt x="617" y="948" on="0"/>
        <pt x="541" y="971" on="0"/>
        <pt x="498" y="971" on="1"/>
        <pt x="451" y="971" on="0"/>
        <pt x="353" y="958" on="0"/>
        <pt x="306" y="942" on="1"/>
        <pt x="248" y="709" on="1"/>
        <pt x="142" y="727" on="1"/>
        <pt x="142" y="993" on="1"/>
        <pt x="222" y="1028" on="0"/>
        <pt x="404" y="1083" on="0"/>
        <pt x="508" y="1083" on="1"/>
        <pt x="588" y="1083" on="0"/>
        <pt x="728" y="1051" on="0"/>
        <pt x="832" y="975" on="0"/>
        <pt x="891" y="850" on="0"/>
        <pt x="891" y="758" on="1"/>
        <pt x="891" y="129" on="1"/>
        <pt x="1039" y="94" on="1"/>
        <pt x="1018" y="0" on="1"/>
      </contour>
      <contour>
        <pt x="277" y="268" on="1"/>
        <pt x="277" y="219" on="0"/>
        <pt x="302" y="160" on="0"/>
        <pt x="345" y="125" on="0"/>
        <pt x="400" y="113" on="0"/>
        <pt x="431" y="113" on="1"/>
        <pt x="467" y="113" on="0"/>
        <pt x="549" y="143" on="0"/>
        <pt x="625" y="188" on="0"/>
        <pt x="689" y="246" on="0"/>
        <pt x="707" y="272" on="1"/>
        <pt x="707" y="506" on="1"/>
        <pt x="642" y="498" on="0"/>
        <pt x="510" y="479" on="0"/>
        <pt x="445" y="461" on="1"/>
        <pt x="349" y="434" on="0"/>
        <pt x="277" y="332" on="0"/>
      </contour>
    </TTGlyph>
    <TTGlyph name="aacute" xMin="72" yMin="-16" xMax="1039" yMax="1532">
      <component glyphName="a" x="0" y="0" flags="0x204"/>
      <component glyphName="acute" x="399" y="0" flags="0x4"/>
    </TTGlyph>
    <TTGlyph name="acircumflex" xMin="72" yMin="-16" xMax="1039" yMax="1536">
      <component glyphName="a" x="0" y="0" flags="0x204"/>
      <component glyphName="circumflex" x="-27" y="0" flags="0x4"/>
    </TTGlyph>
    <TTGlyph name="acute" xMin="31" yMin="1157" xMax="410" yMax="1532">
      <contour>
        <pt x="143" y="1157" on="1"/>
        <pt x="31" y="1157" on="1"/>
        <pt x="209" y="1532" on="1"/>
        <pt x="410" y="1532" on="1"/>
      </contour>
    </TTGlyph>
    <TTGlyph name="adieresis" xMin="72" yMin="-16" xMax="1039" yMax="1479">
      <component glyphName="a" x="0" y="0" flags="0x204"/>
      <component glyphName="dieresis" x="134" y="0" flags="0x4"/>
    </TTGlyph>
    <TTGlyph name="ae" xMin="72" yMin="-18" xMax="1592" yMax="1083">
      <contour>
        <pt x="865" y="549" on="1"/>
        <pt x="865" y="446" on="0"/>
        <pt x="920" y="287" on="0"/>
        <pt x="1018" y="174" on="0"/>
        <pt x="1151" y="115" on="0"/>
        <pt x="1229" y="115" on="1"/>
        <pt x="1373" y="115" on="0"/>
        <pt x="1530" y="215" on="1"/>
        <pt x="1575" y="137" on="1"/>
        <pt x="1475" y="59" on="0"/>
        <pt x="1262" y="-18" on="0"/>
        <pt x="1160" y="-18" on="1"/>
        <pt x="1014" y="-18" on="0"/>
        <pt x="826" y="125" on="0"/>
        <pt x="777" y="236" on="1"/>
        <pt x="746" y="199" on="0"/>
        <pt x="668" y="111" on="0"/>
        <pt x="566" y="35" on="0"/>
        <pt x="431" y="-16" on="0"/>
        <pt x="345" y="-16" on="1"/>
        <pt x="289" y="-16" on="0"/>
        <pt x="191" y="18" on="0"/>
        <pt x="117" y="88" on="0"/>
        <pt x="72" y="186" on="0"/>
        <pt x="72" y="252" on="1"/>
        <pt x="72" y="354" on="0"/>
        <pt x="177" y="483" on="0"/>
        <pt x="310" y="518" on="1"/>
        <pt x="410" y="545" on="0"/>
        <pt x="596" y="580" on="0"/>
        <pt x="707" y="592" on="1"/>
        <pt x="707" y="760" on="1"/>
        <pt x="707" y="817" on="0"/>
        <pt x="674" y="897" on="0"/>
        <pt x="617" y="948" on="0"/>
        <pt x="541" y="971" on="0"/>
        <pt x="498" y="971" on="1"/>
        <pt x="451" y="971" on="0"/>
        <pt x="353" y="958" on="0"/>
        <pt x="306" y="942" on="1"/>
        <pt x="248" y="709" on="1"/>
        <pt x="142" y="727" on="1"/>
        <pt x="142" y="993" on="1"/>
        <pt x="222" y="1028" on="0"/>
        <pt x="404" y="1083" on="0"/>
        <pt x="508" y="1083" on="1"/>
        <pt x="619" y="1083" on="0"/>
        <pt x="775" y="1020" on="0"/>
        <pt x="816" y="942" on="1"/>
        <pt x="887" y="1012" on="0"/>
        <pt x="1063" y="1081" on="0"/>
        <pt x="1154" y="1081" on="1"/>
        <pt x="1291" y="1081" on="0"/>
        <pt x="1461" y="987" on="0"/>
        <pt x="1557" y="836" on="0"/>
        <pt x="1592" y="645" on="0"/>
        <pt x="1592" y="549" on="1"/>
      </contour>
      <contour>
        <pt x="277" y="268" on="1"/>
        <pt x="277" y="219" on="0"/>
        <pt x="302" y="160" on="0"/>
        <pt x="345" y="125" on="0"/>
        <pt x="400" y="113" on="0"/>
        <pt x="431" y="113" on="1"/>
        <pt x="467" y="113" on="0"/>
        <pt x="549" y="143" on="0"/>
        <pt x="625" y="188" on="0"/>
        <pt x="689" y="246" on="0"/>
        <pt x="707" y="272" on="1"/>
        <pt x="707" y="506" on="1"/>
        <pt x="642" y="498" on="0"/>
        <pt x="510" y="479" on="0"/>
        <pt x="445" y="461" on="1"/>
        <pt x="349" y="434" on="0"/>
        <pt x="277" y="332" on="0"/>
      </contour>
      <contour>
        <pt x="1387" y="659" on="1"/>
        <pt x="1387" y="739" on="0"/>
        <pt x="1346" y="858" on="0"/>
        <pt x="1280" y="934" on="0"/>
        <pt x="1192" y="971" on="0"/>
        <pt x="1147" y="971" on="1"/>
        <pt x="1098" y="971" on="0"/>
        <pt x="1002" y="930" on="0"/>
        <pt x="924" y="850" on="0"/>
        <pt x="873" y="735" on="0"/>
        <pt x="871" y="659" on="1"/>
      </contour>
    </TTGlyph>
    <TTGlyph name="agrave" xMin="72" yMin="-16" xMax="1039" yMax="1536">
      <component glyphName="a" x="0" y="0" flags="0x204"/>
      <component glyphName="grave" x="-58" y="0" flags="0x4"/>
    </TTGlyph>
    <TTGlyph name="ampersand" xMin="73" yMin="-18" xMax="1415" yMax="1458">
      <contour>
        <pt x="510" y="926" on="1"/>
        <pt x="616" y="803" on="0"/>
        <pt x="815" y="561" on="0"/>
        <pt x="913" y="455" on="1"/>
        <pt x="1073" y="702" on="1"/>
        <pt x="932" y="723" on="1"/>
        <pt x="952" y="821" on="1"/>
        <pt x="1372" y="821" on="1"/>
        <pt x="1372" y="760" on="1"/>
        <pt x="1200" y="686" on="1"/>
        <pt x="991" y="371" on="1"/>
        <pt x="1097" y="260" on="0"/>
        <pt x="1306" y="102" on="0"/>
        <pt x="1415" y="72" on="1"/>
        <pt x="1394" y="0" on="1"/>
        <pt x="1315" y="0" on="1"/>
        <pt x="1186" y="43" on="0"/>
        <pt x="985" y="156" on="0"/>
        <pt x="897" y="227" on="1"/>
        <pt x="885" y="209" on="0"/>
        <pt x="819" y="127" on="0"/>
        <pt x="708" y="45" on="0"/>
        <pt x="553" y="-18" on="0"/>
        <pt x="450" y="-18" on="1"/>
        <pt x="362" y="-18" on="0"/>
        <pt x="223" y="37" on="0"/>
        <pt x="125" y="129" on="0"/>
        <pt x="73" y="252" on="0"/>
        <pt x="73" y="319" on="1"/>
        <pt x="73" y="389" on="0"/>
        <pt x="131" y="520" on="0"/>
        <pt x="225" y="637" on="0"/>
        <pt x="340" y="733" on="0"/>
        <pt x="399" y="766" on="1"/>
        <pt x="332" y="834" on="0"/>
        <pt x="241" y="977" on="0"/>
        <pt x="241" y="1077" on="1"/>
        <pt x="241" y="1169" on="0"/>
        <pt x="311" y="1311" on="0"/>
        <pt x="432" y="1409" on="0"/>
        <pt x="592" y="1458" on="0"/>
        <pt x="682" y="1458" on="1"/>
        <pt x="784" y="1458" on="0"/>
        <pt x="971" y="1386" on="0"/>
        <pt x="1030" y="1311" on="1"/>
        <pt x="901" y="1047" on="1"/>
        <pt x="807" y="1085" on="1"/>
        <pt x="839" y="1280" on="1"/>
        <pt x="805" y="1315" on="0"/>
        <pt x="725" y="1346" on="0"/>
        <pt x="684" y="1346" on="1"/>
        <pt x="637" y="1346" on="0"/>
        <pt x="545" y="1311" on="0"/>
        <pt x="475" y="1247" on="0"/>
        <pt x="432" y="1161" on="0"/>
        <pt x="432" y="1110" on="1"/>
        <pt x="432" y="1067" on="0"/>
        <pt x="469" y="973" on="0"/>
      </contour>
      <contour>
        <pt x="497" y="109" on="1"/>
        <pt x="555" y="109" on="0"/>
        <pt x="659" y="156" on="0"/>
        <pt x="741" y="217" on="0"/>
        <pt x="798" y="283" on="0"/>
        <pt x="813" y="301" on="1"/>
        <pt x="729" y="379" on="0"/>
        <pt x="571" y="561" on="0"/>
        <pt x="483" y="666" on="1"/>
        <pt x="385" y="600" on="0"/>
        <pt x="270" y="416" on="0"/>
        <pt x="270" y="326" on="1"/>
        <pt x="270" y="236" on="0"/>
        <pt x="383" y="109" on="0"/>
      </contour>
    </TTGlyph>
    <TTGlyph name="aring" xMin="72" yMin="-16" xMax="1039" yMax="1657">
      <component glyphName="a" x="0" y="0" flags="0x204"/>
      <component glyphName="ring" x="23" y="0" flags="0x4"/>
    </TTGlyph>
    <TTGlyph name="asciicircum" xMin="410" yMin="821" xMax="1622" yMax="1466">
      <contour>
        <pt x="1622" y="821" on="1"/>
        <pt x="1509" y="821" on="1"/>
        <pt x="1016" y="1335" on="1"/>
        <pt x="522" y="821" on="1"/>
        <pt x="410" y="821" on="1"/>
        <pt x="913" y="1466" on="1"/>
        <pt x="1118" y="1466" on="1"/>
      </contour>
    </TTGlyph>
    <TTGlyph name="asciitilde" xMin="105" yMin="482" xMax="1135" yMax="761">
      <contour>
        <pt x="556" y="551" on="1"/>
        <pt x="536" y="558" on="0"/>
        <pt x="491" y="579" on="0"/>
        <pt x="445" y="598" on="0"/>
        <pt x="402" y="611" on="0"/>
        <pt x="384" y="611" on="1"/>
        <pt x="364" y="611" on="0"/>
        <pt x="257" y="561" on="0"/>
        <pt x="177" y="516" on="1"/>
        <pt x="105" y="596" on="1"/>
        <pt x="112" y="602" on="0"/>
        <pt x="169" y="643" on="0"/>
        <pt x="244" y="692" on="0"/>
        <pt x="327" y="739" on="0"/>
        <pt x="359" y="750" on="1"/>
        <pt x="376" y="756" on="0"/>
        <pt x="412" y="761" on="0"/>
        <pt x="431" y="761" on="1"/>
        <pt x="465" y="761" on="0"/>
        <pt x="535" y="747" on="0"/>
        <pt x="600" y="726" on="0"/>
        <pt x="657" y="702" on="0"/>
        <pt x="677" y="692" on="1"/>
        <pt x="696" y="684" on="0"/>
        <pt x="742" y="664" on="0"/>
        <pt x="787" y="645" on="0"/>
        <pt x="831" y="632" on="0"/>
        <pt x="849" y="632" on="1"/>
        <pt x="859" y="632" on="0"/>
        <pt x="899" y="646" on="0"/>
        <pt x="953" y="671" on="0"/>
        <pt x="1020" y="706" on="0"/>
        <pt x="1058" y="727" on="1"/>
        <pt x="1135" y="651" on="1"/>
        <pt x="1131" y="647" on="0"/>
        <pt x="1101" y="624" on="0"/>
        <pt x="1057" y="594" on="0"/>
        <pt x="1004" y="559" on="0"/>
        <pt x="949" y="527" on="0"/>
        <pt x="896" y="501" on="0"/>
        <pt x="875" y="494" on="1"/>
        <pt x="837" y="482" on="0"/>
        <pt x="800" y="482" on="1"/>
        <pt x="765" y="482" on="0"/>
        <pt x="696" y="497" on="0"/>
        <pt x="631" y="518" on="0"/>
        <pt x="576" y="542" on="0"/>
      </contour>
    </TTGlyph>
    <TTGlyph name="asterisk" xMin="76" yMin="692" xMax="893" yMax="1477">
      <contour>
        <pt x="445" y="1165" on="1"/>
        <pt x="400" y="1477" on="1"/>
        <pt x="578" y="1477" on="1"/>
        <pt x="535" y="1165" on="1"/>
      </contour>
      <contour>
        <pt x="385" y="1055" on="1"/>
        <pt x="76" y="1108" on="1"/>
        <pt x="132" y="1278" on="1"/>
        <pt x="414" y="1141" on="1"/>
      </contour>
      <contour>
        <pt x="478" y="971" on="1"/>
        <pt x="330" y="692" on="1"/>
        <pt x="187" y="799" on="1"/>
        <pt x="404" y="1024" on="1"/>
      </contour>
      <contour>
        <pt x="584" y="1034" on="1"/>
        <pt x="803" y="807" on="1"/>
        <pt x="658" y="705" on="1"/>
        <pt x="510" y="979" on="1"/>
      </contour>
      <contour>
        <pt x="557" y="1151" on="1"/>
        <pt x="842" y="1288" on="1"/>
        <pt x="893" y="1118" on="1"/>
        <pt x="588" y="1063" on="1"/>
      </contour>
    </TTGlyph>
    <TTGlyph name="at" xMin="85" yMin="-246" xMax="1694" yMax="1491">
      <contour>
        <pt x="1168" y="1100" on="1"/>
        <pt x="1322" y="1100" on="1"/>
        <pt x="1192" y="262" on="1"/>
        <pt x="1291" y="272" on="0"/>
        <pt x="1438" y="371" on="0"/>
        <pt x="1539" y="518" on="0"/>
        <pt x="1590" y="702" on="0"/>
        <pt x="1590" y="799" on="1"/>
        <pt x="1590" y="930" on="0"/>
        <pt x="1506" y="1147" on="0"/>
        <pt x="1348" y="1300" on="0"/>
        <pt x="1123" y="1384" on="0"/>
        <pt x="982" y="1384" on="1"/>
        <pt x="816" y="1384" on="0"/>
        <pt x="541" y="1264" on="0"/>
        <pt x="343" y="1053" on="0"/>
        <pt x="232" y="766" on="0"/>
        <pt x="232" y="600" on="1"/>
        <pt x="232" y="418" on="0"/>
        <pt x="345" y="141" on="0"/>
        <pt x="533" y="-45" on="0"/>
        <pt x="781" y="-139" on="0"/>
        <pt x="916" y="-139" on="1"/>
        <pt x="1006" y="-139" on="0"/>
        <pt x="1168" y="-115" on="0"/>
        <pt x="1307" y="-80" on="0"/>
        <pt x="1422" y="-37" on="0"/>
        <pt x="1465" y="-18" on="1"/>
        <pt x="1471" y="-41" on="0"/>
        <pt x="1479" y="-57" on="1"/>
        <pt x="1483" y="-74" on="0"/>
        <pt x="1494" y="-96" on="0"/>
        <pt x="1494" y="-98" on="1"/>
        <pt x="1469" y="-113" on="0"/>
        <pt x="1358" y="-162" on="0"/>
        <pt x="1203" y="-211" on="0"/>
        <pt x="1014" y="-246" on="0"/>
        <pt x="914" y="-246" on="1"/>
        <pt x="721" y="-246" on="0"/>
        <pt x="414" y="-115" on="0"/>
        <pt x="199" y="109" on="0"/>
        <pt x="85" y="408" on="0"/>
        <pt x="85" y="578" on="1"/>
        <pt x="85" y="745" on="0"/>
        <pt x="197" y="1073" on="0"/>
        <pt x="424" y="1331" on="0"/>
        <pt x="764" y="1491" on="0"/>
        <pt x="990" y="1491" on="1"/>
        <pt x="1174" y="1491" on="0"/>
        <pt x="1440" y="1372" on="0"/>
        <pt x="1612" y="1178" on="0"/>
        <pt x="1694" y="932" on="0"/>
        <pt x="1694" y="803" on="1"/>
        <pt x="1694" y="674" on="0"/>
        <pt x="1618" y="436" on="0"/>
        <pt x="1475" y="254" on="0"/>
        <pt x="1268" y="143" on="0"/>
        <pt x="1139" y="143" on="1"/>
        <pt x="1117" y="143" on="0"/>
        <pt x="1082" y="145" on="0"/>
        <pt x="1072" y="147" on="1"/>
        <pt x="1063" y="150" on="0"/>
        <pt x="1053" y="172" on="0"/>
        <pt x="1049" y="186" on="1"/>
        <pt x="1043" y="203" on="0"/>
        <pt x="1039" y="221" on="1"/>
        <pt x="1090" y="483" on="1"/>
        <pt x="1068" y="442" on="0"/>
        <pt x="990" y="317" on="0"/>
        <pt x="891" y="201" on="0"/>
        <pt x="783" y="117" on="0"/>
        <pt x="732" y="117" on="1"/>
        <pt x="680" y="117" on="0"/>
        <pt x="592" y="156" on="0"/>
        <pt x="525" y="236" on="0"/>
        <pt x="486" y="360" on="0"/>
        <pt x="486" y="446" on="1"/>
        <pt x="486" y="590" on="0"/>
        <pt x="574" y="840" on="0"/>
        <pt x="713" y="1022" on="0"/>
        <pt x="889" y="1126" on="0"/>
        <pt x="975" y="1126" on="1"/>
        <pt x="1047" y="1126" on="0"/>
        <pt x="1135" y="1067" on="0"/>
        <pt x="1158" y="1022" on="1"/>
      </contour>
      <contour>
        <pt x="1127" y="928" on="1"/>
        <pt x="1127" y="965" on="0"/>
        <pt x="1072" y="1012" on="0"/>
        <pt x="1010" y="1012" on="1"/>
        <pt x="947" y="1012" on="0"/>
        <pt x="846" y="952" on="0"/>
        <pt x="769" y="856" on="0"/>
        <pt x="715" y="737" on="0"/>
        <pt x="683" y="621" on="0"/>
        <pt x="666" y="514" on="0"/>
        <pt x="666" y="481" on="1"/>
        <pt x="666" y="453" on="0"/>
        <pt x="674" y="387" on="0"/>
        <pt x="697" y="332" on="0"/>
        <pt x="734" y="295" on="0"/>
        <pt x="764" y="295" on="1"/>
        <pt x="826" y="295" on="0"/>
        <pt x="928" y="381" on="0"/>
        <pt x="1010" y="510" on="0"/>
        <pt x="1070" y="666" on="0"/>
        <pt x="1109" y="807" on="0"/>
        <pt x="1127" y="911" on="0"/>
      </contour>
    </TTGlyph>
    <TTGlyph name="atilde" xMin="72" yMin="-16" xMax="1039" yMax="1494">
      <component glyphName="a" x="0" y="0" flags="0x204"/>
      <component glyphName="tilde" x="-294" y="0" flags="0x4"/>
    </TTGlyph>
    <TTGlyph name="b" xMin="-21" yMin="-27" xMax="1102" yMax="1536">
      <contour>
        <pt x="160" y="1364" on="1"/>
        <pt x="-10" y="1397" on="1"/>
        <pt x="-21" y="1487" on="1"/>
        <pt x="344" y="1536" on="1"/>
        <pt x="344" y="948" on="1"/>
        <pt x="422" y="1018" on="0"/>
        <pt x="588" y="1081" on="0"/>
        <pt x="668" y="1081" on="1"/>
        <pt x="754" y="1081" on="0"/>
        <pt x="911" y="1012" on="0"/>
        <pt x="1032" y="879" on="0"/>
        <pt x="1102" y="692" on="0"/>
        <pt x="1102" y="575" on="1"/>
        <pt x="1102" y="420" on="0"/>
        <pt x="1012" y="193" on="0"/>
        <pt x="856" y="45" on="0"/>
        <pt x="645" y="-27" on="0"/>
        <pt x="524" y="-27" on="1"/>
        <pt x="438" y="-27" on="0"/>
        <pt x="240" y="12" on="0"/>
        <pt x="160" y="53" on="1"/>
      </contour>
      <contour>
        <pt x="344" y="145" on="1"/>
        <pt x="461" y="86" on="0"/>
        <pt x="563" y="86" on="1"/>
        <pt x="641" y="86" on="0"/>
        <pt x="766" y="150" on="0"/>
        <pt x="852" y="264" on="0"/>
        <pt x="899" y="424" on="0"/>
        <pt x="899" y="518" on="1"/>
        <pt x="899" y="707" on="0"/>
        <pt x="739" y="924" on="0"/>
        <pt x="604" y="924" on="1"/>
        <pt x="485" y="924" on="0"/>
        <pt x="344" y="834" on="1"/>
      </contour>
    </TTGlyph>
    <TTGlyph name="backslash" xMin="40" yMin="-322" xMax="1152" yMax="1434">
      <contour>
        <pt x="210" y="1434" on="1"/>
        <pt x="1152" y="-322" on="1"/>
        <pt x="982" y="-322" on="1"/>
        <pt x="40" y="1434" on="1"/>
      </contour>
    </TTGlyph>
    <TTGlyph name="bar" xMin="166" yMin="-502" xMax="311" yMax="1589">
      <contour>
        <pt x="166" y="-502" on="1"/>
        <pt x="166" y="1589" on="1"/>
        <pt x="311" y="1589" on="1"/>
        <pt x="311" y="-502" on="1"/>
      </contour>
    </TTGlyph>
    <TTGlyph name="braceleft" xMin="-6" yMin="-311" xMax="623" yMax="1481">
      <contour>
        <pt x="-6" y="621" on="1"/>
        <pt x="78" y="621" on="1"/>
        <pt x="152" y="621" on="0"/>
        <pt x="224" y="709" on="0"/>
        <pt x="224" y="791" on="1"/>
        <pt x="224" y="1171" on="1"/>
        <pt x="224" y="1296" on="0"/>
        <pt x="302" y="1423" on="0"/>
        <pt x="420" y="1477" on="0"/>
        <pt x="560" y="1481" on="0"/>
        <pt x="623" y="1481" on="1"/>
        <pt x="623" y="1415" on="1"/>
        <pt x="582" y="1415" on="0"/>
        <pt x="502" y="1397" on="0"/>
        <pt x="435" y="1354" on="0"/>
        <pt x="394" y="1284" on="0"/>
        <pt x="394" y="1231" on="1"/>
        <pt x="394" y="817" on="1"/>
        <pt x="394" y="762" on="0"/>
        <pt x="357" y="680" on="0"/>
        <pt x="310" y="621" on="0"/>
        <pt x="263" y="590" on="0"/>
        <pt x="250" y="588" on="1"/>
        <pt x="263" y="586" on="0"/>
        <pt x="310" y="553" on="0"/>
        <pt x="357" y="496" on="0"/>
        <pt x="394" y="412" on="0"/>
        <pt x="394" y="358" on="1"/>
        <pt x="394" y="-55" on="1"/>
        <pt x="394" y="-88" on="0"/>
        <pt x="420" y="-156" on="0"/>
        <pt x="478" y="-209" on="0"/>
        <pt x="564" y="-242" on="0"/>
        <pt x="623" y="-242" on="1"/>
        <pt x="623" y="-307" on="1"/>
        <pt x="574" y="-311" on="0"/>
        <pt x="439" y="-305" on="0"/>
        <pt x="312" y="-248" on="0"/>
        <pt x="224" y="-119" on="0"/>
        <pt x="224" y="2" on="1"/>
        <pt x="224" y="383" on="1"/>
        <pt x="224" y="465" on="0"/>
        <pt x="152" y="553" on="0"/>
        <pt x="78" y="553" on="1"/>
        <pt x="-6" y="553" on="1"/>
      </contour>
    </TTGlyph>
    <TTGlyph name="braceright" xMin="22" yMin="-311" xMax="651" yMax="1481">
      <contour>
        <pt x="651" y="553" on="1"/>
        <pt x="567" y="553" on="1"/>
        <pt x="493" y="553" on="0"/>
        <pt x="422" y="465" on="0"/>
        <pt x="422" y="383" on="1"/>
        <pt x="422" y="2" on="1"/>
        <pt x="422" y="-119" on="0"/>
        <pt x="334" y="-248" on="0"/>
        <pt x="207" y="-305" on="0"/>
        <pt x="72" y="-311" on="0"/>
        <pt x="22" y="-307" on="1"/>
        <pt x="22" y="-242" on="1"/>
        <pt x="82" y="-242" on="0"/>
        <pt x="168" y="-209" on="0"/>
        <pt x="225" y="-156" on="0"/>
        <pt x="252" y="-88" on="0"/>
        <pt x="252" y="-55" on="1"/>
        <pt x="252" y="358" on="1"/>
        <pt x="252" y="412" on="0"/>
        <pt x="289" y="496" on="0"/>
        <pt x="336" y="553" on="0"/>
        <pt x="383" y="586" on="0"/>
        <pt x="395" y="588" on="1"/>
        <pt x="383" y="590" on="0"/>
        <pt x="336" y="621" on="0"/>
        <pt x="289" y="680" on="0"/>
        <pt x="252" y="762" on="0"/>
        <pt x="252" y="817" on="1"/>
        <pt x="252" y="1231" on="1"/>
        <pt x="252" y="1284" on="0"/>
        <pt x="211" y="1354" on="0"/>
        <pt x="143" y="1397" on="0"/>
        <pt x="61" y="1415" on="0"/>
        <pt x="22" y="1415" on="1"/>
        <pt x="22" y="1481" on="1"/>
        <pt x="86" y="1481" on="0"/>
        <pt x="225" y="1477" on="0"/>
        <pt x="344" y="1423" on="0"/>
        <pt x="422" y="1296" on="0"/>
        <pt x="422" y="1171" on="1"/>
        <pt x="422" y="791" on="1"/>
        <pt x="422" y="709" on="0"/>
        <pt x="493" y="621" on="0"/>
        <pt x="567" y="621" on="1"/>
        <pt x="651" y="621" on="1"/>
      </contour>
    </TTGlyph>
    <TTGlyph name="bracketleft" xMin="171" yMin="-305" xMax="498" yMax="1507">
      <contour>
        <pt x="171" y="1507" on="1"/>
        <pt x="498" y="1507" on="1"/>
        <pt x="498" y="1415" on="1"/>
        <pt x="335" y="1415" on="1"/>
        <pt x="335" y="-213" on="1"/>
        <pt x="498" y="-213" on="1"/>
        <pt x="498" y="-305" on="1"/>
        <pt x="171" y="-305" on="1"/>
      </contour>
    </TTGlyph>
    <TTGlyph name="bracketright" xMin="57" yMin="-305" xMax="384" yMax="1507">
      <contour>
        <pt x="384" y="-305" on="1"/>
        <pt x="57" y="-305" on="1"/>
        <pt x="57" y="-213" on="1"/>
        <pt x="221" y="-213" on="1"/>
        <pt x="221" y="1415" on="1"/>
        <pt x="57" y="1415" on="1"/>
        <pt x="57" y="1507" on="1"/>
        <pt x="384" y="1507" on="1"/>
      </contour>
    </TTGlyph>
    <TTGlyph name="breve" xMin="412" yMin="1497" xMax="1284" yMax="1833">
      <contour>
        <pt x="848" y="1610" on="1"/>
        <pt x="971" y="1610" on="0"/>
        <pt x="1079" y="1706" on="0"/>
        <pt x="1079" y="1833" on="1"/>
        <pt x="1284" y="1833" on="1"/>
        <pt x="1284" y="1743" on="0"/>
        <pt x="1214" y="1616" on="0"/>
        <pt x="1096" y="1534" on="0"/>
        <pt x="938" y="1497" on="0"/>
        <pt x="848" y="1497" on="1"/>
        <pt x="758" y="1497" on="0"/>
        <pt x="600" y="1534" on="0"/>
        <pt x="481" y="1616" on="0"/>
        <pt x="412" y="1743" on="0"/>
        <pt x="412" y="1833" on="1"/>
        <pt x="616" y="1833" on="1"/>
        <pt x="616" y="1706" on="0"/>
        <pt x="725" y="1610" on="0"/>
      </contour>
    </TTGlyph>
    <TTGlyph name="brokenbar" xMin="178" yMin="-397" xMax="324" yMax="1405">
      <contour>
        <pt x="178" y="616" on="1"/>
        <pt x="178" y="1405" on="1"/>
        <pt x="324" y="1405" on="1"/>
        <pt x="324" y="616" on="1"/>
      </contour>
      <contour>
        <pt x="178" y="-397" on="1"/>
        <pt x="178" y="391" on="1"/>
        <pt x="324" y="391" on="1"/>
        <pt x="324" y="-397" on="1"/>
      </contour>
    </TTGlyph>
    <TTGlyph name="bullet" xMin="84" yMin="479" xMax="742" yMax="1137">
      <contour>
        <pt x="84" y="807" on="1"/>
        <pt x="84" y="874" on="0"/>
        <pt x="135" y="995" on="0"/>
        <pt x="225" y="1085" on="0"/>
        <pt x="346" y="1137" on="0"/>
        <pt x="414" y="1137" on="1"/>
        <pt x="481" y="1137" on="0"/>
        <pt x="600" y="1085" on="0"/>
        <pt x="690" y="995" on="0"/>
        <pt x="742" y="874" on="0"/>
        <pt x="742" y="807" on="1"/>
        <pt x="742" y="739" on="0"/>
        <pt x="690" y="621" on="0"/>
        <pt x="600" y="530" on="0"/>
        <pt x="481" y="479" on="0"/>
        <pt x="414" y="479" on="1"/>
        <pt x="346" y="479" on="0"/>
        <pt x="225" y="530" on="0"/>
        <pt x="135" y="621" on="0"/>
        <pt x="84" y="739" on="0"/>
      </contour>
    </TTGlyph>
    <TTGlyph name="c" xMin="82" yMin="-23" xMax="979" yMax="1083">
      <contour>
        <pt x="793" y="936" on="1"/>
        <pt x="705" y="971" on="0"/>
        <pt x="633" y="971" on="1"/>
        <pt x="555" y="971" on="0"/>
        <pt x="428" y="905" on="0"/>
        <pt x="338" y="793" on="0"/>
        <pt x="287" y="637" on="0"/>
        <pt x="287" y="547" on="1"/>
        <pt x="287" y="465" on="0"/>
        <pt x="328" y="309" on="0"/>
        <pt x="414" y="186" on="0"/>
        <pt x="545" y="113" on="0"/>
        <pt x="635" y="113" on="1"/>
        <pt x="705" y="113" on="0"/>
        <pt x="870" y="166" on="0"/>
        <pt x="934" y="213" on="1"/>
        <pt x="979" y="135" on="1"/>
        <pt x="897" y="57" on="0"/>
        <pt x="700" y="-23" on="0"/>
        <pt x="596" y="-23" on="1"/>
        <pt x="492" y="-23" on="0"/>
        <pt x="305" y="51" on="0"/>
        <pt x="164" y="193" on="0"/>
        <pt x="82" y="399" on="0"/>
        <pt x="82" y="532" on="1"/>
        <pt x="82" y="664" on="0"/>
        <pt x="174" y="868" on="0"/>
        <pt x="326" y="1010" on="0"/>
        <pt x="522" y="1083" on="0"/>
        <pt x="627" y="1083" on="1"/>
        <pt x="711" y="1083" on="0"/>
        <pt x="874" y="1036" on="0"/>
        <pt x="952" y="987" on="1"/>
        <pt x="952" y="715" on="1"/>
        <pt x="850" y="694" on="1"/>
      </contour>
    </TTGlyph>
    <TTGlyph name="caron" xMin="225" yMin="1167" xMax="846" yMax="1536">
      <contour>
        <pt x="733" y="1536" on="1"/>
        <pt x="846" y="1536" on="1"/>
        <pt x="606" y="1169" on="1"/>
        <pt x="608" y="1167" on="1"/>
        <pt x="463" y="1167" on="1"/>
        <pt x="463" y="1169" on="1"/>
        <pt x="225" y="1536" on="1"/>
        <pt x="338" y="1536" on="1"/>
        <pt x="535" y="1268" on="1"/>
      </contour>
    </TTGlyph>
    <TTGlyph name="ccedilla" xMin="83" yMin="-504" xMax="980" yMax="1083">
      <contour>
        <pt x="794" y="936" on="1"/>
        <pt x="706" y="971" on="0"/>
        <pt x="634" y="971" on="1"/>
        <pt x="556" y="971" on="0"/>
        <pt x="429" y="905" on="0"/>
        <pt x="339" y="793" on="0"/>
        <pt x="288" y="637" on="0"/>
        <pt x="288" y="547" on="1"/>
        <pt x="288" y="465" on="0"/>
        <pt x="329" y="309" on="0"/>
        <pt x="415" y="186" on="0"/>
        <pt x="546" y="113" on="0"/>
        <pt x="636" y="113" on="1"/>
        <pt x="706" y="113" on="0"/>
        <pt x="871" y="166" on="0"/>
        <pt x="935" y="213" on="1"/>
        <pt x="980" y="135" on="1"/>
        <pt x="898" y="57" on="0"/>
        <pt x="799" y="17" on="1"/>
        <pt x="714" y="-18" on="0"/>
        <pt x="624" y="-22" on="1"/>
        <pt x="624" y="-78" on="1"/>
        <pt x="706" y="-88" on="0"/>
        <pt x="771" y="-172" on="0"/>
        <pt x="771" y="-236" on="1"/>
        <pt x="771" y="-301" on="0"/>
        <pt x="699" y="-397" on="0"/>
        <pt x="589" y="-463" on="0"/>
        <pt x="458" y="-500" on="0"/>
        <pt x="398" y="-504" on="1"/>
        <pt x="384" y="-442" on="1"/>
        <pt x="417" y="-434" on="0"/>
        <pt x="486" y="-414" on="0"/>
        <pt x="548" y="-381" on="0"/>
        <pt x="593" y="-334" on="0"/>
        <pt x="597" y="-303" on="1"/>
        <pt x="607" y="-244" on="0"/>
        <pt x="570" y="-150" on="0"/>
        <pt x="511" y="-137" on="1"/>
        <pt x="511" y="-16" on="1"/>
        <pt x="453" y="-7" on="0"/>
        <pt x="399" y="14" on="1"/>
        <pt x="306" y="51" on="0"/>
        <pt x="165" y="193" on="0"/>
        <pt x="83" y="399" on="0"/>
        <pt x="83" y="532" on="1"/>
        <pt x="83" y="664" on="0"/>
        <pt x="175" y="868" on="0"/>
        <pt x="327" y="1010" on="0"/>
        <pt x="523" y="1083" on="0"/>
        <pt x="628" y="1083" on="1"/>
        <pt x="712" y="1083" on="0"/>
        <pt x="875" y="1036" on="0"/>
        <pt x="953" y="987" on="1"/>
        <pt x="953" y="715" on="1"/>
        <pt x="851" y="694" on="1"/>
      </contour>
    </TTGlyph>
    <TTGlyph name="cedilla" xMin="133" yMin="-492" xMax="520" yMax="31">
      <contour>
        <pt x="260" y="31" on="1"/>
        <pt x="373" y="31" on="1"/>
        <pt x="373" y="-66" on="1"/>
        <pt x="455" y="-76" on="0"/>
        <pt x="520" y="-160" on="0"/>
        <pt x="520" y="-223" on="1"/>
        <pt x="520" y="-289" on="0"/>
        <pt x="449" y="-385" on="0"/>
        <pt x="338" y="-451" on="0"/>
        <pt x="207" y="-487" on="0"/>
        <pt x="147" y="-492" on="1"/>
        <pt x="133" y="-430" on="1"/>
        <pt x="166" y="-422" on="0"/>
        <pt x="236" y="-401" on="0"/>
        <pt x="297" y="-369" on="0"/>
        <pt x="342" y="-322" on="0"/>
        <pt x="346" y="-291" on="1"/>
        <pt x="356" y="-231" on="0"/>
        <pt x="319" y="-137" on="0"/>
        <pt x="260" y="-125" on="1"/>
      </contour>
    </TTGlyph>
    <TTGlyph name="cent" xMin="89" yMin="-158" xMax="986" yMax="1225">
      <contour>
        <pt x="547" y="-20" on="1"/>
        <pt x="453" y="-12" on="0"/>
        <pt x="285" y="72" on="0"/>
        <pt x="160" y="213" on="0"/>
        <pt x="89" y="412" on="0"/>
        <pt x="89" y="537" on="1"/>
        <pt x="89" y="664" on="0"/>
        <pt x="162" y="860" on="0"/>
        <pt x="287" y="997" on="0"/>
        <pt x="453" y="1073" on="0"/>
        <pt x="547" y="1083" on="1"/>
        <pt x="547" y="1225" on="1"/>
        <pt x="650" y="1225" on="1"/>
        <pt x="650" y="1085" on="1"/>
        <pt x="728" y="1081" on="0"/>
        <pt x="885" y="1034" on="0"/>
        <pt x="959" y="991" on="1"/>
        <pt x="959" y="709" on="1"/>
        <pt x="857" y="698" on="1"/>
        <pt x="805" y="899" on="1"/>
        <pt x="789" y="928" on="0"/>
        <pt x="711" y="967" on="0"/>
        <pt x="650" y="971" on="1"/>
        <pt x="650" y="113" on="1"/>
        <pt x="717" y="115" on="0"/>
        <pt x="879" y="166" on="0"/>
        <pt x="941" y="213" on="1"/>
        <pt x="986" y="135" on="1"/>
        <pt x="914" y="68" on="0"/>
        <pt x="742" y="-10" on="0"/>
        <pt x="650" y="-18" on="1"/>
        <pt x="650" y="-158" on="1"/>
        <pt x="547" y="-158" on="1"/>
      </contour>
      <contour>
        <pt x="289" y="541" on="1"/>
        <pt x="289" y="444" on="0"/>
        <pt x="330" y="299" on="0"/>
        <pt x="402" y="199" on="0"/>
        <pt x="494" y="137" on="0"/>
        <pt x="547" y="125" on="1"/>
        <pt x="547" y="967" on="1"/>
        <pt x="425" y="948" on="0"/>
        <pt x="289" y="743" on="0"/>
      </contour>
    </TTGlyph>
    <TTGlyph name="circumflex" xMin="225" yMin="1167" xMax="846" yMax="1536">
      <contour>
        <pt x="535" y="1436" on="1"/>
        <pt x="338" y="1167" on="1"/>
        <pt x="225" y="1167" on="1"/>
        <pt x="463" y="1534" on="1"/>
        <pt x="463" y="1536" on="1"/>
        <pt x="608" y="1536" on="1"/>
        <pt x="606" y="1534" on="1"/>
        <pt x="846" y="1167" on="1"/>
        <pt x="733" y="1167" on="1"/>
      </contour>
    </TTGlyph>
    <TTGlyph name="colon" xMin="126" yMin="-33" xMax="423" yMax="1098">
      <contour>
        <pt x="126" y="113" on="1"/>
        <pt x="179" y="209" on="0"/>
        <pt x="277" y="262" on="1"/>
        <pt x="372" y="211" on="0"/>
        <pt x="423" y="117" on="1"/>
        <pt x="368" y="20" on="0"/>
        <pt x="271" y="-33" on="1"/>
        <pt x="175" y="16" on="0"/>
      </contour>
      <contour>
        <pt x="126" y="948" on="1"/>
        <pt x="179" y="1045" on="0"/>
        <pt x="277" y="1098" on="1"/>
        <pt x="372" y="1047" on="0"/>
        <pt x="423" y="953" on="1"/>
        <pt x="368" y="856" on="0"/>
        <pt x="271" y="803" on="1"/>
        <pt x="175" y="852" on="0"/>
      </contour>
    </TTGlyph>
    <TTGlyph name="comma" xMin="81" yMin="-358" xMax="390" yMax="250">
      <contour>
        <pt x="378" y="104" on="1"/>
        <pt x="390" y="53" on="0"/>
        <pt x="367" y="-90" on="0"/>
        <pt x="308" y="-229" on="0"/>
        <pt x="220" y="-340" on="0"/>
        <pt x="167" y="-358" on="1"/>
        <pt x="126" y="-307" on="1"/>
        <pt x="162" y="-283" on="0"/>
        <pt x="208" y="-217" on="0"/>
        <pt x="230" y="-143" on="0"/>
        <pt x="232" y="-74" on="0"/>
        <pt x="226" y="-45" on="1"/>
        <pt x="130" y="4" on="0"/>
        <pt x="81" y="100" on="1"/>
        <pt x="134" y="197" on="0"/>
        <pt x="232" y="250" on="1"/>
        <pt x="326" y="199" on="0"/>
      </contour>
    </TTGlyph>
    <TTGlyph name="copyright" xMin="86" yMin="-49" xMax="1663" yMax="1532">
      <contour>
        <pt x="875" y="1532" on="1"/>
        <pt x="1038" y="1532" on="0"/>
        <pt x="1327" y="1405" on="0"/>
        <pt x="1540" y="1190" on="0"/>
        <pt x="1663" y="903" on="0"/>
        <pt x="1663" y="741" on="1"/>
        <pt x="1663" y="580" on="0"/>
        <pt x="1540" y="293" on="0"/>
        <pt x="1327" y="78" on="0"/>
        <pt x="1038" y="-49" on="0"/>
        <pt x="875" y="-49" on="1"/>
        <pt x="711" y="-49" on="0"/>
        <pt x="422" y="78" on="0"/>
        <pt x="209" y="293" on="0"/>
        <pt x="86" y="580" on="0"/>
        <pt x="86" y="741" on="1"/>
        <pt x="86" y="903" on="0"/>
        <pt x="209" y="1190" on="0"/>
        <pt x="422" y="1405" on="0"/>
        <pt x="711" y="1532" on="0"/>
      </contour>
      <contour>
        <pt x="875" y="1425" on="1"/>
        <pt x="733" y="1425" on="0"/>
        <pt x="492" y="1313" on="0"/>
        <pt x="315" y="1124" on="0"/>
        <pt x="215" y="877" on="0"/>
        <pt x="215" y="741" on="1"/>
        <pt x="215" y="606" on="0"/>
        <pt x="315" y="358" on="0"/>
        <pt x="492" y="170" on="0"/>
        <pt x="733" y="57" on="0"/>
        <pt x="875" y="57" on="1"/>
        <pt x="1016" y="57" on="0"/>
        <pt x="1258" y="170" on="0"/>
        <pt x="1432" y="358" on="0"/>
        <pt x="1532" y="606" on="0"/>
        <pt x="1532" y="741" on="1"/>
        <pt x="1532" y="877" on="0"/>
        <pt x="1432" y="1124" on="0"/>
        <pt x="1258" y="1313" on="0"/>
        <pt x="1016" y="1425" on="0"/>
      </contour>
      <contour>
        <pt x="1098" y="623" on="1"/>
        <pt x="1159" y="612" on="1"/>
        <pt x="1161" y="377" on="1"/>
        <pt x="1100" y="348" on="0"/>
        <pt x="948" y="311" on="0"/>
        <pt x="883" y="311" on="1"/>
        <pt x="799" y="311" on="0"/>
        <pt x="647" y="367" on="0"/>
        <pt x="533" y="477" on="0"/>
        <pt x="465" y="641" on="0"/>
        <pt x="465" y="750" on="1"/>
        <pt x="465" y="848" on="0"/>
        <pt x="545" y="1012" on="0"/>
        <pt x="674" y="1128" on="0"/>
        <pt x="842" y="1192" on="0"/>
        <pt x="928" y="1192" on="1"/>
        <pt x="987" y="1192" on="0"/>
        <pt x="1096" y="1163" on="0"/>
        <pt x="1149" y="1139" on="1"/>
        <pt x="1145" y="903" on="1"/>
        <pt x="1086" y="895" on="1"/>
        <pt x="1043" y="1061" on="1"/>
        <pt x="1008" y="1075" on="0"/>
        <pt x="952" y="1092" on="0"/>
        <pt x="901" y="1092" on="1"/>
        <pt x="797" y="1092" on="0"/>
        <pt x="655" y="926" on="0"/>
        <pt x="655" y="750" on="1"/>
        <pt x="655" y="653" on="0"/>
        <pt x="696" y="522" on="0"/>
        <pt x="764" y="442" on="0"/>
        <pt x="856" y="408" on="0"/>
        <pt x="909" y="408" on="1"/>
        <pt x="957" y="408" on="0"/>
        <pt x="1012" y="416" on="0"/>
        <pt x="1045" y="424" on="1"/>
      </contour>
    </TTGlyph>
    <TTGlyph name="currency" xMin="119" yMin="174" xMax="1022" yMax="1087">
      <contour>
        <pt x="195" y="635" on="1"/>
        <pt x="195" y="694" on="0"/>
        <pt x="232" y="803" on="0"/>
        <pt x="265" y="850" on="1"/>
        <pt x="119" y="995" on="1"/>
        <pt x="211" y="1087" on="1"/>
        <pt x="359" y="942" on="1"/>
        <pt x="404" y="973" on="0"/>
        <pt x="508" y="1008" on="0"/>
        <pt x="568" y="1008" on="1"/>
        <pt x="627" y="1008" on="0"/>
        <pt x="736" y="973" on="0"/>
        <pt x="781" y="940" on="1"/>
        <pt x="930" y="1087" on="1"/>
        <pt x="1022" y="995" on="1"/>
        <pt x="873" y="846" on="1"/>
        <pt x="904" y="801" on="0"/>
        <pt x="938" y="694" on="0"/>
        <pt x="938" y="635" on="1"/>
        <pt x="938" y="512" on="0"/>
        <pt x="869" y="418" on="1"/>
        <pt x="1022" y="266" on="1"/>
        <pt x="930" y="174" on="1"/>
        <pt x="775" y="328" on="1"/>
        <pt x="682" y="264" on="0"/>
        <pt x="568" y="264" on="1"/>
        <pt x="512" y="264" on="0"/>
        <pt x="408" y="295" on="0"/>
        <pt x="365" y="324" on="1"/>
        <pt x="211" y="174" on="1"/>
        <pt x="119" y="266" on="1"/>
        <pt x="269" y="414" on="1"/>
        <pt x="234" y="461" on="0"/>
        <pt x="195" y="571" on="0"/>
      </contour>
      <contour>
        <pt x="330" y="635" on="1"/>
        <pt x="330" y="586" on="0"/>
        <pt x="367" y="500" on="0"/>
        <pt x="433" y="436" on="0"/>
        <pt x="519" y="399" on="0"/>
        <pt x="568" y="399" on="1"/>
        <pt x="617" y="399" on="0"/>
        <pt x="703" y="436" on="0"/>
        <pt x="766" y="500" on="0"/>
        <pt x="803" y="586" on="0"/>
        <pt x="803" y="635" on="1"/>
        <pt x="803" y="684" on="0"/>
        <pt x="766" y="770" on="0"/>
        <pt x="703" y="836" on="0"/>
        <pt x="617" y="872" on="0"/>
        <pt x="568" y="872" on="1"/>
        <pt x="519" y="872" on="0"/>
        <pt x="433" y="836" on="0"/>
        <pt x="367" y="770" on="0"/>
        <pt x="330" y="684" on="0"/>
      </contour>
    </TTGlyph>
    <TTGlyph name="d" xMin="82" yMin="-16" xMax="1167" yMax="1536">
      <contour>
        <pt x="846" y="117" on="1"/>
        <pt x="776" y="53" on="0"/>
        <pt x="623" y="-16" on="0"/>
        <pt x="526" y="-16" on="1"/>
        <pt x="440" y="-16" on="0"/>
        <pt x="281" y="57" on="0"/>
        <pt x="158" y="190" on="0"/>
        <pt x="82" y="381" on="0"/>
        <pt x="82" y="498" on="1"/>
        <pt x="82" y="629" on="0"/>
        <pt x="170" y="842" on="0"/>
        <pt x="317" y="991" on="0"/>
        <pt x="506" y="1071" on="0"/>
        <pt x="604" y="1071" on="1"/>
        <pt x="666" y="1071" on="0"/>
        <pt x="788" y="1036" on="0"/>
        <pt x="846" y="1001" on="1"/>
        <pt x="846" y="1364" on="1"/>
        <pt x="676" y="1397" on="1"/>
        <pt x="666" y="1487" on="1"/>
        <pt x="1028" y="1536" on="1"/>
        <pt x="1028" y="129" on="1"/>
        <pt x="1167" y="94" on="1"/>
        <pt x="1147" y="0" on="1"/>
        <pt x="846" y="0" on="1"/>
      </contour>
      <contour>
        <pt x="565" y="119" on="1"/>
        <pt x="631" y="119" on="0"/>
        <pt x="782" y="186" on="0"/>
        <pt x="846" y="242" on="1"/>
        <pt x="846" y="850" on="1"/>
        <pt x="793" y="905" on="0"/>
        <pt x="676" y="956" on="0"/>
        <pt x="618" y="956" on="1"/>
        <pt x="553" y="956" on="0"/>
        <pt x="434" y="895" on="0"/>
        <pt x="342" y="786" on="0"/>
        <pt x="287" y="633" on="0"/>
        <pt x="287" y="541" on="1"/>
        <pt x="287" y="455" on="0"/>
        <pt x="317" y="301" on="0"/>
        <pt x="385" y="186" on="0"/>
        <pt x="492" y="119" on="0"/>
      </contour>
    </TTGlyph>
    <TTGlyph name="degree" xMin="81" yMin="909" xMax="647" yMax="1475">
      <contour>
        <pt x="81" y="1190" on="1"/>
        <pt x="81" y="1249" on="0"/>
        <pt x="124" y="1354" on="0"/>
        <pt x="202" y="1430" on="0"/>
        <pt x="303" y="1475" on="0"/>
        <pt x="362" y="1475" on="1"/>
        <pt x="421" y="1475" on="0"/>
        <pt x="526" y="1430" on="0"/>
        <pt x="602" y="1354" on="0"/>
        <pt x="647" y="1249" on="0"/>
        <pt x="647" y="1190" on="1"/>
        <pt x="647" y="1130" on="0"/>
        <pt x="602" y="1030" on="0"/>
        <pt x="526" y="952" on="0"/>
        <pt x="421" y="909" on="0"/>
        <pt x="362" y="909" on="1"/>
        <pt x="303" y="909" on="0"/>
        <pt x="202" y="952" on="0"/>
        <pt x="124" y="1030" on="0"/>
        <pt x="81" y="1130" on="0"/>
      </contour>
      <contour>
        <pt x="188" y="1190" on="1"/>
        <pt x="188" y="1116" on="0"/>
        <pt x="288" y="1016" on="0"/>
        <pt x="362" y="1016" on="1"/>
        <pt x="438" y="1016" on="0"/>
        <pt x="540" y="1116" on="0"/>
        <pt x="540" y="1190" on="1"/>
        <pt x="540" y="1266" on="0"/>
        <pt x="438" y="1368" on="0"/>
        <pt x="362" y="1368" on="1"/>
        <pt x="288" y="1368" on="0"/>
        <pt x="188" y="1266" on="0"/>
      </contour>
    </TTGlyph>
    <TTGlyph name="dieresis" xMin="39" yMin="1221" xMax="731" yMax="1479">
      <contour>
        <pt x="471" y="1348" on="1"/>
        <pt x="518" y="1432" on="0"/>
        <pt x="604" y="1479" on="1"/>
        <pt x="686" y="1434" on="0"/>
        <pt x="731" y="1352" on="1"/>
        <pt x="682" y="1268" on="0"/>
        <pt x="598" y="1221" on="1"/>
        <pt x="514" y="1264" on="0"/>
      </contour>
      <contour>
        <pt x="39" y="1348" on="1"/>
        <pt x="86" y="1432" on="0"/>
        <pt x="172" y="1479" on="1"/>
        <pt x="254" y="1434" on="0"/>
        <pt x="299" y="1352" on="1"/>
        <pt x="250" y="1268" on="0"/>
        <pt x="166" y="1221" on="1"/>
        <pt x="82" y="1264" on="0"/>
      </contour>
    </TTGlyph>
    <TTGlyph name="divide" xMin="117" yMin="68" xMax="1354" yMax="1167">
      <contour>
        <pt x="117" y="696" on="1"/>
        <pt x="1354" y="696" on="1"/>
        <pt x="1354" y="539" on="1"/>
        <pt x="117" y="539" on="1"/>
      </contour>
      <contour>
        <pt x="573" y="1018" on="1"/>
        <pt x="627" y="1114" on="0"/>
        <pt x="725" y="1167" on="1"/>
        <pt x="819" y="1116" on="0"/>
        <pt x="870" y="1022" on="1"/>
        <pt x="815" y="926" on="0"/>
        <pt x="719" y="872" on="1"/>
        <pt x="623" y="922" on="0"/>
      </contour>
      <contour>
        <pt x="573" y="213" on="1"/>
        <pt x="627" y="309" on="0"/>
        <pt x="725" y="362" on="1"/>
        <pt x="819" y="311" on="0"/>
        <pt x="870" y="217" on="1"/>
        <pt x="815" y="121" on="0"/>
        <pt x="719" y="68" on="1"/>
        <pt x="623" y="117" on="0"/>
      </contour>
    </TTGlyph>
    <TTGlyph name="dollar" xMin="88" yMin="-344" xMax="1015" yMax="1769">
      <contour>
        <pt x="88" y="414" on="1"/>
        <pt x="190" y="424" on="1"/>
        <pt x="266" y="125" on="1"/>
        <pt x="323" y="102" on="0"/>
        <pt x="454" y="80" on="0"/>
        <pt x="520" y="82" on="1"/>
        <pt x="520" y="647" on="1"/>
        <pt x="446" y="678" on="0"/>
        <pt x="297" y="743" on="0"/>
        <pt x="178" y="838" on="0"/>
        <pt x="100" y="975" on="0"/>
        <pt x="100" y="1077" on="1"/>
        <pt x="100" y="1167" on="0"/>
        <pt x="172" y="1298" on="0"/>
        <pt x="288" y="1386" on="0"/>
        <pt x="440" y="1436" on="0"/>
        <pt x="520" y="1446" on="1"/>
        <pt x="520" y="1769" on="1"/>
        <pt x="622" y="1769" on="1"/>
        <pt x="622" y="1450" on="1"/>
        <pt x="735" y="1450" on="0"/>
        <pt x="919" y="1401" on="0"/>
        <pt x="960" y="1362" on="1"/>
        <pt x="960" y="1016" on="1"/>
        <pt x="858" y="1006" on="1"/>
        <pt x="780" y="1311" on="1"/>
        <pt x="706" y="1339" on="0"/>
        <pt x="622" y="1343" on="1"/>
        <pt x="622" y="791" on="1"/>
        <pt x="694" y="760" on="0"/>
        <pt x="835" y="686" on="0"/>
        <pt x="946" y="586" on="0"/>
        <pt x="1015" y="449" on="0"/>
        <pt x="1015" y="354" on="1"/>
        <pt x="1015" y="262" on="0"/>
        <pt x="950" y="131" on="0"/>
        <pt x="841" y="43" on="0"/>
        <pt x="700" y="-6" on="0"/>
        <pt x="622" y="-14" on="1"/>
        <pt x="622" y="-344" on="1"/>
        <pt x="520" y="-344" on="1"/>
        <pt x="520" y="-20" on="1"/>
        <pt x="448" y="-23" on="0"/>
        <pt x="313" y="-8" on="0"/>
        <pt x="198" y="18" on="0"/>
        <pt x="110" y="51" on="0"/>
        <pt x="88" y="68" on="1"/>
      </contour>
      <contour>
        <pt x="294" y="1075" on="1"/>
        <pt x="294" y="1030" on="0"/>
        <pt x="329" y="961" on="0"/>
        <pt x="391" y="903" on="0"/>
        <pt x="473" y="856" on="0"/>
        <pt x="520" y="834" on="1"/>
        <pt x="520" y="1335" on="1"/>
        <pt x="426" y="1315" on="0"/>
        <pt x="294" y="1186" on="0"/>
      </contour>
      <contour>
        <pt x="821" y="354" on="1"/>
        <pt x="821" y="401" on="0"/>
        <pt x="790" y="477" on="0"/>
        <pt x="737" y="535" on="0"/>
        <pt x="665" y="582" on="0"/>
        <pt x="622" y="602" on="1"/>
        <pt x="622" y="98" on="1"/>
        <pt x="708" y="121" on="0"/>
        <pt x="821" y="242" on="0"/>
      </contour>
    </TTGlyph>
    <TTGlyph name="dotaccent" xMin="410" yMin="1184" xMax="735" yMax="1507">
      <contour>
        <pt x="410" y="1343" on="1"/>
        <pt x="469" y="1448" on="0"/>
        <pt x="575" y="1507" on="1"/>
        <pt x="678" y="1450" on="0"/>
        <pt x="735" y="1348" on="1"/>
        <pt x="674" y="1243" on="0"/>
        <pt x="569" y="1184" on="1"/>
        <pt x="518" y="1210" on="0"/>
        <pt x="434" y="1292" on="0"/>
      </contour>
    </TTGlyph>
    <TTGlyph name="dotlessi" xMin="58" yMin="0" xMax="576" yMax="1079">
      <contour>
        <pt x="422" y="127" on="1"/>
        <pt x="576" y="98" on="1"/>
        <pt x="555" y="0" on="1"/>
        <pt x="58" y="0" on="1"/>
        <pt x="58" y="61" on="1"/>
        <pt x="238" y="123" on="1"/>
        <pt x="238" y="915" on="1"/>
        <pt x="72" y="946" on="1"/>
        <pt x="62" y="1030" on="1"/>
        <pt x="422" y="1079" on="1"/>
      </contour>
    </TTGlyph>
    <TTGlyph name="e" xMin="83" yMin="-18" xMax="1015" yMax="1081">
      <contour>
        <pt x="288" y="549" on="1"/>
        <pt x="288" y="446" on="0"/>
        <pt x="343" y="287" on="0"/>
        <pt x="441" y="174" on="0"/>
        <pt x="574" y="115" on="0"/>
        <pt x="652" y="115" on="1"/>
        <pt x="796" y="115" on="0"/>
        <pt x="953" y="215" on="1"/>
        <pt x="998" y="137" on="1"/>
        <pt x="898" y="59" on="0"/>
        <pt x="685" y="-18" on="0"/>
        <pt x="583" y="-18" on="1"/>
        <pt x="480" y="-18" on="0"/>
        <pt x="300" y="55" on="0"/>
        <pt x="163" y="197" on="0"/>
        <pt x="83" y="403" on="0"/>
        <pt x="83" y="537" on="1"/>
        <pt x="83" y="672" on="0"/>
        <pt x="171" y="877" on="0"/>
        <pt x="312" y="1014" on="0"/>
        <pt x="488" y="1081" on="0"/>
        <pt x="576" y="1081" on="1"/>
        <pt x="714" y="1081" on="0"/>
        <pt x="884" y="987" on="0"/>
        <pt x="980" y="836" on="0"/>
        <pt x="1015" y="645" on="0"/>
        <pt x="1015" y="549" on="1"/>
      </contour>
      <contour>
        <pt x="810" y="659" on="1"/>
        <pt x="810" y="739" on="0"/>
        <pt x="769" y="858" on="0"/>
        <pt x="703" y="934" on="0"/>
        <pt x="615" y="971" on="0"/>
        <pt x="570" y="971" on="1"/>
        <pt x="521" y="971" on="0"/>
        <pt x="425" y="930" on="0"/>
        <pt x="347" y="850" on="0"/>
        <pt x="296" y="735" on="0"/>
        <pt x="294" y="659" on="1"/>
      </contour>
    </TTGlyph>
    <TTGlyph name="eacute" xMin="83" yMin="-18" xMax="1015" yMax="1532">
      <component glyphName="e" x="0" y="0" flags="0x204"/>
      <component glyphName="acute" x="481" y="0" flags="0x4"/>
    </TTGlyph>
    <TTGlyph name="ecircumflex" xMin="83" yMin="-18" xMax="1015" yMax="1536">
      <component glyphName="e" x="0" y="0" flags="0x204"/>
      <component glyphName="circumflex" x="52" y="0" flags="0x4"/>
    </TTGlyph>
    <TTGlyph name="edieresis" xMin="83" yMin="-18" xMax="1015" yMax="1479">
      <component glyphName="e" x="0" y="0" flags="0x204"/>
      <component glyphName="dieresis" x="190" y="0" flags="0x4"/>
    </TTGlyph>
    <TTGlyph name="egrave" xMin="83" yMin="-18" xMax="1015" yMax="1536">
      <component glyphName="e" x="0" y="0" flags="0x204"/>
      <component glyphName="grave" x="-11" y="0" flags="0x4"/>
    </TTGlyph>
    <TTGlyph name="eight" xMin="97" yMin="-31" xMax="1100" yMax="1464">
      <contour>
        <pt x="1100" y="385" on="1"/>
        <pt x="1100" y="279" on="0"/>
        <pt x="1012" y="123" on="0"/>
        <pt x="867" y="20" on="0"/>
        <pt x="683" y="-31" on="0"/>
        <pt x="588" y="-31" on="1"/>
        <pt x="496" y="-31" on="0"/>
        <pt x="318" y="10" on="0"/>
        <pt x="181" y="100" on="0"/>
        <pt x="97" y="236" on="0"/>
        <pt x="97" y="332" on="1"/>
        <pt x="97" y="387" on="0"/>
        <pt x="126" y="500" on="0"/>
        <pt x="193" y="604" on="0"/>
        <pt x="308" y="700" on="0"/>
        <pt x="392" y="739" on="1"/>
        <pt x="289" y="793" on="0"/>
        <pt x="162" y="983" on="0"/>
        <pt x="162" y="1090" on="1"/>
        <pt x="162" y="1159" on="0"/>
        <pt x="224" y="1294" on="0"/>
        <pt x="341" y="1401" on="0"/>
        <pt x="511" y="1464" on="0"/>
        <pt x="619" y="1464" on="1"/>
        <pt x="703" y="1464" on="0"/>
        <pt x="855" y="1421" on="0"/>
        <pt x="967" y="1337" on="0"/>
        <pt x="1033" y="1210" on="0"/>
        <pt x="1033" y="1126" on="1"/>
        <pt x="1033" y="1020" on="0"/>
        <pt x="924" y="831" on="0"/>
        <pt x="785" y="762" on="1"/>
        <pt x="836" y="735" on="0"/>
        <pt x="949" y="668" on="0"/>
        <pt x="1041" y="578" on="0"/>
        <pt x="1100" y="461" on="0"/>
      </contour>
      <contour>
        <pt x="887" y="324" on="1"/>
        <pt x="887" y="403" on="0"/>
        <pt x="828" y="508" on="0"/>
        <pt x="724" y="586" on="0"/>
        <pt x="582" y="649" on="0"/>
        <pt x="502" y="686" on="1"/>
        <pt x="465" y="668" on="0"/>
        <pt x="396" y="602" on="0"/>
        <pt x="345" y="518" on="0"/>
        <pt x="312" y="418" on="0"/>
        <pt x="312" y="362" on="1"/>
        <pt x="312" y="289" on="0"/>
        <pt x="361" y="182" on="0"/>
        <pt x="443" y="115" on="0"/>
        <pt x="547" y="84" on="0"/>
        <pt x="601" y="84" on="1"/>
        <pt x="654" y="84" on="0"/>
        <pt x="758" y="115" on="0"/>
        <pt x="838" y="176" on="0"/>
        <pt x="887" y="266" on="0"/>
      </contour>
      <contour>
        <pt x="373" y="1124" on="1"/>
        <pt x="373" y="1069" on="0"/>
        <pt x="414" y="961" on="0"/>
        <pt x="476" y="920" on="1"/>
        <pt x="504" y="901" on="0"/>
        <pt x="621" y="836" on="0"/>
        <pt x="678" y="811" on="1"/>
        <pt x="746" y="874" on="0"/>
        <pt x="818" y="1022" on="0"/>
        <pt x="818" y="1130" on="1"/>
        <pt x="818" y="1241" on="0"/>
        <pt x="693" y="1350" on="0"/>
        <pt x="603" y="1350" on="1"/>
        <pt x="511" y="1350" on="0"/>
        <pt x="373" y="1235" on="0"/>
      </contour>
    </TTGlyph>
    <TTGlyph name="emdash" xMin="131" yMin="393" xMax="2269" yMax="549">
      <contour>
        <pt x="131" y="549" on="1"/>
        <pt x="2269" y="549" on="1"/>
        <pt x="2269" y="393" on="1"/>
        <pt x="131" y="393" on="1"/>
      </contour>
    </TTGlyph>
    <TTGlyph name="endash" xMin="131" yMin="393" xMax="1307" yMax="549">
      <contour>
        <pt x="131" y="549" on="1"/>
        <pt x="1307" y="549" on="1"/>
        <pt x="1307" y="393" on="1"/>
        <pt x="131" y="393" on="1"/>
      </contour>
    </TTGlyph>
    <TTGlyph name="equal" xMin="144" yMin="354" xMax="1360" yMax="885">
      <contour>
        <pt x="144" y="885" on="1"/>
        <pt x="1360" y="885" on="1"/>
        <pt x="1360" y="739" on="1"/>
        <pt x="144" y="739" on="1"/>
      </contour>
      <contour>
        <pt x="144" y="500" on="1"/>
        <pt x="1360" y="500" on="1"/>
        <pt x="1360" y="354" on="1"/>
        <pt x="144" y="354" on="1"/>
      </contour>
    </TTGlyph>
    <TTGlyph name="eth" xMin="82" yMin="-16" xMax="1081" yMax="1694">
      <contour>
        <pt x="387" y="1362" on="1"/>
        <pt x="520" y="1473" on="1"/>
        <pt x="479" y="1493" on="0"/>
        <pt x="381" y="1511" on="0"/>
        <pt x="340" y="1516" on="1"/>
        <pt x="291" y="1520" on="0"/>
        <pt x="244" y="1520" on="1"/>
        <pt x="244" y="1614" on="1"/>
        <pt x="246" y="1614" on="0"/>
        <pt x="272" y="1616" on="0"/>
        <pt x="313" y="1618" on="0"/>
        <pt x="358" y="1618" on="0"/>
        <pt x="377" y="1618" on="1"/>
        <pt x="514" y="1612" on="0"/>
        <pt x="627" y="1561" on="1"/>
        <pt x="784" y="1694" on="1"/>
        <pt x="856" y="1608" on="1"/>
        <pt x="727" y="1501" on="1"/>
        <pt x="815" y="1450" on="0"/>
        <pt x="948" y="1290" on="0"/>
        <pt x="1038" y="1085" on="0"/>
        <pt x="1081" y="844" on="0"/>
        <pt x="1081" y="713" on="1"/>
        <pt x="1081" y="535" on="0"/>
        <pt x="995" y="262" on="0"/>
        <pt x="854" y="78" on="0"/>
        <pt x="670" y="-16" on="0"/>
        <pt x="571" y="-16" on="1"/>
        <pt x="449" y="-16" on="0"/>
        <pt x="264" y="70" on="0"/>
        <pt x="143" y="219" on="0"/>
        <pt x="82" y="418" on="0"/>
        <pt x="82" y="528" on="1"/>
        <pt x="82" y="635" on="0"/>
        <pt x="152" y="838" on="0"/>
        <pt x="287" y="991" on="0"/>
        <pt x="485" y="1085" on="0"/>
        <pt x="612" y="1085" on="1"/>
        <pt x="662" y="1085" on="0"/>
        <pt x="776" y="1061" on="0"/>
        <pt x="848" y="1028" on="1"/>
        <pt x="846" y="1067" on="0"/>
        <pt x="807" y="1178" on="0"/>
        <pt x="745" y="1286" on="0"/>
        <pt x="662" y="1380" on="0"/>
        <pt x="614" y="1405" on="1"/>
        <pt x="459" y="1276" on="1"/>
      </contour>
      <contour>
        <pt x="864" y="928" on="1"/>
        <pt x="797" y="958" on="0"/>
        <pt x="655" y="973" on="0"/>
        <pt x="614" y="973" on="1"/>
        <pt x="528" y="973" on="0"/>
        <pt x="403" y="903" on="0"/>
        <pt x="324" y="786" on="0"/>
        <pt x="287" y="635" on="0"/>
        <pt x="287" y="551" on="1"/>
        <pt x="287" y="451" on="0"/>
        <pt x="322" y="283" on="0"/>
        <pt x="393" y="164" on="0"/>
        <pt x="500" y="96" on="0"/>
        <pt x="573" y="96" on="1"/>
        <pt x="670" y="96" on="0"/>
        <pt x="788" y="225" on="0"/>
        <pt x="854" y="422" on="0"/>
        <pt x="877" y="651" on="0"/>
        <pt x="877" y="752" on="1"/>
        <pt x="877" y="786" on="0"/>
        <pt x="872" y="850" on="0"/>
        <pt x="870" y="874" on="1"/>
        <pt x="866" y="903" on="0"/>
      </contour>
    </TTGlyph>
    <TTGlyph name="exclam" xMin="103" yMin="-33" xMax="400" yMax="1473">
      <contour>
        <pt x="310" y="420" on="1"/>
        <pt x="197" y="420" on="1"/>
        <pt x="134" y="1352" on="1"/>
        <pt x="159" y="1393" on="0"/>
        <pt x="214" y="1446" on="0"/>
        <pt x="257" y="1473" on="1"/>
        <pt x="302" y="1448" on="0"/>
        <pt x="351" y="1401" on="0"/>
        <pt x="376" y="1354" on="1"/>
      </contour>
      <contour>
        <pt x="103" y="113" on="1"/>
        <pt x="157" y="209" on="0"/>
        <pt x="255" y="262" on="1"/>
        <pt x="349" y="211" on="0"/>
        <pt x="400" y="117" on="1"/>
        <pt x="345" y="20" on="0"/>
        <pt x="249" y="-33" on="1"/>
        <pt x="152" y="16" on="0"/>
      </contour>
    </TTGlyph>
    <TTGlyph name="exclamdown" xMin="103" yMin="-29" xMax="400" yMax="1477">
      <contour>
        <pt x="376" y="90" on="1"/>
        <pt x="351" y="43" on="0"/>
        <pt x="302" y="-4" on="0"/>
        <pt x="257" y="-29" on="1"/>
        <pt x="214" y="-2" on="0"/>
        <pt x="159" y="51" on="0"/>
        <pt x="134" y="92" on="1"/>
        <pt x="197" y="1024" on="1"/>
        <pt x="310" y="1024" on="1"/>
      </contour>
      <contour>
        <pt x="103" y="1331" on="1"/>
        <pt x="152" y="1427" on="0"/>
        <pt x="249" y="1477" on="1"/>
        <pt x="345" y="1423" on="0"/>
        <pt x="400" y="1327" on="1"/>
        <pt x="349" y="1233" on="0"/>
        <pt x="255" y="1182" on="1"/>
        <pt x="157" y="1235" on="0"/>
      </contour>
    </TTGlyph>
    <TTGlyph name="f" xMin="68" yMin="0" xMax="877" yMax="1550">
      <contour>
        <pt x="608" y="1550" on="1"/>
        <pt x="668" y="1550" on="0"/>
        <pt x="817" y="1516" on="0"/>
        <pt x="877" y="1481" on="1"/>
        <pt x="877" y="1208" on="1"/>
        <pt x="774" y="1188" on="1"/>
        <pt x="717" y="1413" on="1"/>
        <pt x="692" y="1425" on="0"/>
        <pt x="633" y="1438" on="0"/>
        <pt x="608" y="1438" on="1"/>
        <pt x="516" y="1438" on="0"/>
        <pt x="430" y="1327" on="0"/>
        <pt x="430" y="1178" on="1"/>
        <pt x="430" y="1065" on="1"/>
        <pt x="703" y="1065" on="1"/>
        <pt x="703" y="952" on="1"/>
        <pt x="430" y="952" on="1"/>
        <pt x="430" y="127" on="1"/>
        <pt x="658" y="98" on="1"/>
        <pt x="637" y="0" on="1"/>
        <pt x="68" y="0" on="1"/>
        <pt x="68" y="61" on="1"/>
        <pt x="246" y="123" on="1"/>
        <pt x="246" y="952" on="1"/>
        <pt x="68" y="952" on="1"/>
        <pt x="68" y="1065" on="1"/>
        <pt x="246" y="1065" on="1"/>
        <pt x="246" y="1180" on="1"/>
        <pt x="248" y="1282" on="0"/>
        <pt x="311" y="1423" on="0"/>
        <pt x="414" y="1511" on="0"/>
        <pt x="543" y="1550" on="0"/>
      </contour>
    </TTGlyph>
    <TTGlyph name="five" xMin="89" yMin="-29" xMax="1084" yMax="1542">
      <contour>
        <pt x="990" y="1249" on="1"/>
        <pt x="347" y="1249" on="1"/>
        <pt x="314" y="840" on="1"/>
        <pt x="378" y="854" on="0"/>
        <pt x="515" y="870" on="0"/>
        <pt x="587" y="870" on="1"/>
        <pt x="711" y="870" on="0"/>
        <pt x="898" y="795" on="0"/>
        <pt x="1021" y="672" on="0"/>
        <pt x="1082" y="514" on="0"/>
        <pt x="1082" y="432" on="1"/>
        <pt x="1082" y="309" on="0"/>
        <pt x="990" y="133" on="0"/>
        <pt x="836" y="23" on="0"/>
        <pt x="636" y="-29" on="0"/>
        <pt x="525" y="-29" on="1"/>
        <pt x="415" y="-29" on="0"/>
        <pt x="189" y="16" on="0"/>
        <pt x="89" y="61" on="1"/>
        <pt x="89" y="408" on="1"/>
        <pt x="191" y="428" on="1"/>
        <pt x="261" y="139" on="1"/>
        <pt x="314" y="115" on="0"/>
        <pt x="441" y="84" on="0"/>
        <pt x="507" y="84" on="1"/>
        <pt x="576" y="84" on="0"/>
        <pt x="703" y="121" on="0"/>
        <pt x="802" y="199" on="0"/>
        <pt x="859" y="322" on="0"/>
        <pt x="859" y="408" on="1"/>
        <pt x="859" y="469" on="0"/>
        <pt x="816" y="588" on="0"/>
        <pt x="726" y="680" on="0"/>
        <pt x="584" y="735" on="0"/>
        <pt x="488" y="733" on="1"/>
        <pt x="470" y="733" on="0"/>
        <pt x="435" y="731" on="0"/>
        <pt x="415" y="729" on="1"/>
        <pt x="380" y="725" on="0"/>
        <pt x="316" y="721" on="0"/>
        <pt x="285" y="717" on="1"/>
        <pt x="191" y="717" on="1"/>
        <pt x="249" y="1434" on="1"/>
        <pt x="916" y="1434" on="1"/>
        <pt x="978" y="1542" on="1"/>
        <pt x="1084" y="1516" on="1"/>
      </contour>
    </TTGlyph>
    <TTGlyph name="foundryicon" xMin="104" yMin="283" xMax="2062" yMax="647">
      <contour>
        <pt x="2062" y="514" on="1"/>
        <pt x="2030" y="514" on="1"/>
        <pt x="2032" y="510" on="0"/>
        <pt x="2032" y="504" on="1"/>
        <pt x="2032" y="475" on="0"/>
        <pt x="1987" y="432" on="0"/>
        <pt x="1939" y="432" on="1"/>
        <pt x="1921" y="432" on="0"/>
        <pt x="1915" y="434" on="1"/>
        <pt x="1915" y="403" on="1"/>
        <pt x="1952" y="403" on="1"/>
        <pt x="2032" y="403" on="0"/>
        <pt x="2032" y="330" on="1"/>
        <pt x="2032" y="313" on="0"/>
        <pt x="2023" y="291" on="0"/>
        <pt x="2019" y="283" on="1"/>
        <pt x="1964" y="283" on="1"/>
        <pt x="1964" y="342" on="1"/>
        <pt x="1870" y="342" on="1"/>
        <pt x="1860" y="350" on="0"/>
        <pt x="1849" y="375" on="0"/>
        <pt x="1849" y="387" on="1"/>
        <pt x="1849" y="424" on="0"/>
        <pt x="1878" y="449" on="1"/>
        <pt x="1849" y="465" on="0"/>
        <pt x="1849" y="506" on="1"/>
        <pt x="1849" y="539" on="0"/>
        <pt x="1896" y="582" on="0"/>
        <pt x="1937" y="582" on="1"/>
        <pt x="1974" y="582" on="0"/>
        <pt x="2001" y="561" on="1"/>
        <pt x="2017" y="582" on="0"/>
        <pt x="2040" y="582" on="1"/>
        <pt x="2048" y="582" on="0"/>
        <pt x="2056" y="580" on="0"/>
        <pt x="2062" y="578" on="1"/>
      </contour>
      <contour>
        <pt x="502" y="358" on="1"/>
        <pt x="489" y="313" on="0"/>
        <pt x="442" y="283" on="0"/>
        <pt x="414" y="283" on="1"/>
        <pt x="375" y="283" on="0"/>
        <pt x="360" y="297" on="1"/>
        <pt x="360" y="350" on="1"/>
        <pt x="395" y="350" on="1"/>
        <pt x="428" y="350" on="0"/>
        <pt x="438" y="373" on="1"/>
        <pt x="410" y="373" on="1"/>
        <pt x="360" y="514" on="1"/>
        <pt x="340" y="514" on="1"/>
        <pt x="340" y="578" on="1"/>
        <pt x="418" y="578" on="1"/>
        <pt x="446" y="477" on="1"/>
        <pt x="457" y="428" on="1"/>
        <pt x="479" y="514" on="1"/>
        <pt x="461" y="514" on="1"/>
        <pt x="461" y="578" on="1"/>
        <pt x="549" y="578" on="1"/>
        <pt x="549" y="514" on="1"/>
      </contour>
      <contour>
        <pt x="324" y="383" on="1"/>
        <pt x="287" y="367" on="0"/>
        <pt x="240" y="367" on="1"/>
        <pt x="176" y="367" on="0"/>
        <pt x="104" y="438" on="0"/>
        <pt x="104" y="502" on="1"/>
        <pt x="104" y="567" on="0"/>
        <pt x="174" y="647" on="0"/>
        <pt x="244" y="647" on="1"/>
        <pt x="262" y="647" on="0"/>
        <pt x="303" y="639" on="0"/>
        <pt x="324" y="633" on="1"/>
        <pt x="324" y="551" on="1"/>
        <pt x="260" y="551" on="1"/>
        <pt x="260" y="582" on="1"/>
        <pt x="254" y="584" on="0"/>
        <pt x="242" y="584" on="1"/>
        <pt x="213" y="584" on="0"/>
        <pt x="182" y="543" on="0"/>
        <pt x="182" y="510" on="1"/>
        <pt x="182" y="434" on="0"/>
        <pt x="258" y="434" on="1"/>
        <pt x="324" y="434" on="1"/>
      </contour>
      <contour>
        <pt x="1532" y="367" on="1"/>
        <pt x="1432" y="367" on="0"/>
        <pt x="1432" y="473" on="1"/>
        <pt x="1432" y="524" on="0"/>
        <pt x="1487" y="582" on="0"/>
        <pt x="1534" y="582" on="1"/>
        <pt x="1581" y="582" on="0"/>
        <pt x="1636" y="526" on="0"/>
        <pt x="1636" y="475" on="1"/>
        <pt x="1636" y="424" on="0"/>
        <pt x="1581" y="367" on="0"/>
      </contour>
      <contour>
        <pt x="991" y="567" on="1"/>
        <pt x="1010" y="573" on="0"/>
        <pt x="1044" y="582" on="0"/>
        <pt x="1065" y="582" on="1"/>
        <pt x="1159" y="582" on="0"/>
        <pt x="1159" y="504" on="1"/>
        <pt x="1159" y="434" on="1"/>
        <pt x="1182" y="434" on="1"/>
        <pt x="1182" y="379" on="1"/>
        <pt x="1165" y="369" on="0"/>
        <pt x="1141" y="369" on="1"/>
        <pt x="1108" y="369" on="0"/>
        <pt x="1096" y="383" on="1"/>
        <pt x="1077" y="367" on="0"/>
        <pt x="1044" y="367" on="1"/>
        <pt x="1016" y="367" on="0"/>
        <pt x="975" y="399" on="0"/>
        <pt x="975" y="430" on="1"/>
        <pt x="975" y="459" on="0"/>
        <pt x="1012" y="492" on="0"/>
        <pt x="1055" y="492" on="1"/>
        <pt x="1087" y="492" on="1"/>
        <pt x="1087" y="494" on="1"/>
        <pt x="1087" y="502" on="0"/>
        <pt x="1069" y="514" on="0"/>
        <pt x="1042" y="514" on="1"/>
        <pt x="991" y="514" on="1"/>
      </contour>
      <contour>
        <pt x="944" y="434" on="1"/>
        <pt x="944" y="381" on="1"/>
        <pt x="928" y="373" on="0"/>
        <pt x="887" y="367" on="0"/>
        <pt x="868" y="367" on="1"/>
        <pt x="815" y="367" on="0"/>
        <pt x="760" y="422" on="0"/>
        <pt x="760" y="471" on="1"/>
        <pt x="760" y="520" on="0"/>
        <pt x="809" y="582" on="0"/>
        <pt x="860" y="582" on="1"/>
        <pt x="901" y="582" on="0"/>
        <pt x="950" y="532" on="0"/>
        <pt x="950" y="496" on="1"/>
        <pt x="950" y="487" on="0"/>
        <pt x="948" y="469" on="0"/>
        <pt x="946" y="459" on="1"/>
        <pt x="834" y="459" on="1"/>
        <pt x="842" y="434" on="0"/>
        <pt x="885" y="434" on="1"/>
      </contour>
      <contour>
        <pt x="1661" y="514" on="1"/>
        <pt x="1661" y="578" on="1"/>
        <pt x="1731" y="578" on="1"/>
        <pt x="1751" y="545" on="1"/>
        <pt x="1755" y="555" on="0"/>
        <pt x="1765" y="565" on="0"/>
        <pt x="1772" y="571" on="1"/>
        <pt x="1786" y="582" on="0"/>
        <pt x="1802" y="582" on="1"/>
        <pt x="1815" y="582" on="0"/>
        <pt x="1827" y="578" on="1"/>
        <pt x="1827" y="514" on="1"/>
        <pt x="1757" y="514" on="1"/>
        <pt x="1757" y="434" on="1"/>
        <pt x="1792" y="434" on="1"/>
        <pt x="1792" y="373" on="1"/>
        <pt x="1665" y="373" on="1"/>
        <pt x="1665" y="434" on="1"/>
        <pt x="1683" y="434" on="1"/>
        <pt x="1683" y="514" on="1"/>
      </contour>
      <contour>
        <pt x="578" y="514" on="1"/>
        <pt x="578" y="578" on="1"/>
        <pt x="647" y="578" on="1"/>
        <pt x="668" y="545" on="1"/>
        <pt x="672" y="555" on="0"/>
        <pt x="682" y="565" on="0"/>
        <pt x="688" y="571" on="1"/>
        <pt x="702" y="582" on="0"/>
        <pt x="719" y="582" on="1"/>
        <pt x="731" y="582" on="0"/>
        <pt x="743" y="578" on="1"/>
        <pt x="743" y="514" on="1"/>
        <pt x="674" y="514" on="1"/>
        <pt x="674" y="434" on="1"/>
        <pt x="709" y="434" on="1"/>
        <pt x="709" y="373" on="1"/>
        <pt x="582" y="373" on="1"/>
        <pt x="582" y="434" on="1"/>
        <pt x="602" y="434" on="1"/>
        <pt x="602" y="514" on="1"/>
      </contour>
      <contour>
        <pt x="1206" y="584" on="1"/>
        <pt x="1182" y="584" on="1"/>
        <pt x="1182" y="647" on="1"/>
        <pt x="1278" y="647" on="1"/>
        <pt x="1278" y="434" on="1"/>
        <pt x="1307" y="434" on="1"/>
        <pt x="1307" y="377" on="1"/>
        <pt x="1288" y="369" on="0"/>
        <pt x="1262" y="369" on="1"/>
        <pt x="1206" y="369" on="0"/>
        <pt x="1206" y="426" on="1"/>
      </contour>
      <contour>
        <pt x="1333" y="408" on="1"/>
        <pt x="1333" y="424" on="0"/>
        <pt x="1354" y="449" on="0"/>
        <pt x="1374" y="449" on="1"/>
        <pt x="1397" y="449" on="0"/>
        <pt x="1419" y="424" on="0"/>
        <pt x="1419" y="408" on="1"/>
        <pt x="1419" y="391" on="0"/>
        <pt x="1397" y="369" on="0"/>
        <pt x="1374" y="369" on="1"/>
        <pt x="1354" y="369" on="0"/>
        <pt x="1333" y="391" on="0"/>
      </contour>
      <contour>
        <pt x="1534" y="422" on="1"/>
        <pt x="1563" y="422" on="0"/>
        <pt x="1563" y="475" on="1"/>
        <pt x="1563" y="524" on="0"/>
        <pt x="1534" y="524" on="1"/>
        <pt x="1505" y="524" on="0"/>
        <pt x="1505" y="475" on="1"/>
        <pt x="1505" y="422" on="0"/>
      </contour>
      <contour>
        <pt x="1917" y="506" on="1"/>
        <pt x="1917" y="475" on="0"/>
        <pt x="1942" y="475" on="1"/>
        <pt x="1962" y="475" on="0"/>
        <pt x="1962" y="506" on="1"/>
        <pt x="1962" y="537" on="0"/>
        <pt x="1942" y="537" on="1"/>
        <pt x="1917" y="537" on="0"/>
      </contour>
      <contour>
        <pt x="1065" y="418" on="1"/>
        <pt x="1079" y="418" on="0"/>
        <pt x="1087" y="424" on="1"/>
        <pt x="1087" y="455" on="1"/>
        <pt x="1071" y="455" on="1"/>
        <pt x="1044" y="455" on="0"/>
        <pt x="1044" y="436" on="1"/>
        <pt x="1044" y="418" on="0"/>
      </contour>
      <contour>
        <pt x="858" y="528" on="1"/>
        <pt x="838" y="528" on="0"/>
        <pt x="831" y="496" on="1"/>
        <pt x="883" y="496" on="1"/>
        <pt x="883" y="528" on="0"/>
      </contour>
    </TTGlyph>
    <TTGlyph name="four" xMin="9" yMin="0" xMax="1099" yMax="1464">
      <contour>
        <pt x="698" y="131" on="1"/>
        <pt x="698" y="344" on="1"/>
        <pt x="9" y="344" on="1"/>
        <pt x="9" y="399" on="1"/>
        <pt x="806" y="1464" on="1"/>
        <pt x="902" y="1464" on="1"/>
        <pt x="902" y="457" on="1"/>
        <pt x="1099" y="457" on="1"/>
        <pt x="1099" y="344" on="1"/>
        <pt x="902" y="344" on="1"/>
        <pt x="902" y="131" on="1"/>
        <pt x="1097" y="92" on="1"/>
        <pt x="1076" y="0" on="1"/>
        <pt x="476" y="0" on="1"/>
        <pt x="476" y="72" on="1"/>
      </contour>
      <contour>
        <pt x="698" y="457" on="1"/>
        <pt x="698" y="1128" on="1"/>
        <pt x="192" y="457" on="1"/>
      </contour>
    </TTGlyph>
    <TTGlyph name="foursuperior" xMin="46" yMin="725" xMax="644" yMax="1477">
      <contour>
        <pt x="421" y="803" on="1"/>
        <pt x="421" y="881" on="1"/>
        <pt x="46" y="881" on="1"/>
        <pt x="46" y="930" on="1"/>
        <pt x="468" y="1477" on="1"/>
        <pt x="544" y="1477" on="1"/>
        <pt x="544" y="969" on="1"/>
        <pt x="644" y="969" on="1"/>
        <pt x="644" y="881" on="1"/>
        <pt x="544" y="881" on="1"/>
        <pt x="544" y="803" on="1"/>
        <pt x="644" y="772" on="1"/>
        <pt x="632" y="725" on="1"/>
        <pt x="306" y="725" on="1"/>
        <pt x="306" y="762" on="1"/>
      </contour>
      <contour>
        <pt x="421" y="969" on="1"/>
        <pt x="421" y="1257" on="1"/>
        <pt x="198" y="969" on="1"/>
      </contour>
    </TTGlyph>
    <TTGlyph name="fraction" xMin="-40" yMin="-61" xMax="802" yMax="1395">
      <contour>
        <pt x="802" y="1395" on="1"/>
        <pt x="113" y="-61" on="1"/>
        <pt x="-40" y="-61" on="1"/>
        <pt x="648" y="1395" on="1"/>
      </contour>
    </TTGlyph>
    <TTGlyph name="g" xMin="71" yMin="-506" xMax="1164" yMax="1085">
      <contour>
        <pt x="544" y="330" on="1"/>
        <pt x="511" y="330" on="0"/>
        <pt x="445" y="336" on="0"/>
        <pt x="413" y="344" on="1"/>
        <pt x="378" y="317" on="0"/>
        <pt x="329" y="248" on="0"/>
        <pt x="329" y="209" on="1"/>
        <pt x="329" y="174" on="0"/>
        <pt x="394" y="127" on="0"/>
        <pt x="462" y="125" on="1"/>
        <pt x="847" y="125" on="1"/>
        <pt x="978" y="121" on="0"/>
        <pt x="1091" y="-4" on="0"/>
        <pt x="1091" y="-90" on="1"/>
        <pt x="1091" y="-188" on="0"/>
        <pt x="980" y="-344" on="0"/>
        <pt x="806" y="-451" on="0"/>
        <pt x="587" y="-506" on="0"/>
        <pt x="478" y="-506" on="1"/>
        <pt x="294" y="-506" on="0"/>
        <pt x="71" y="-373" on="0"/>
        <pt x="71" y="-233" on="1"/>
        <pt x="71" y="-156" on="0"/>
        <pt x="167" y="-39" on="0"/>
        <pt x="249" y="14" on="1"/>
        <pt x="167" y="74" on="0"/>
        <pt x="167" y="170" on="1"/>
        <pt x="167" y="223" on="0"/>
        <pt x="243" y="338" on="0"/>
        <pt x="312" y="379" on="1"/>
        <pt x="222" y="420" on="0"/>
        <pt x="108" y="571" on="0"/>
        <pt x="108" y="694" on="1"/>
        <pt x="108" y="799" on="0"/>
        <pt x="179" y="946" on="0"/>
        <pt x="300" y="1040" on="0"/>
        <pt x="458" y="1085" on="0"/>
        <pt x="542" y="1085" on="1"/>
        <pt x="622" y="1085" on="0"/>
        <pt x="763" y="1044" on="0"/>
        <pt x="816" y="1001" on="1"/>
        <pt x="845" y="1001" on="0"/>
        <pt x="960" y="1008" on="0"/>
        <pt x="1019" y="1012" on="1"/>
        <pt x="1086" y="1016" on="0"/>
        <pt x="1164" y="1022" on="1"/>
        <pt x="1164" y="881" on="1"/>
        <pt x="908" y="887" on="1"/>
        <pt x="947" y="805" on="0"/>
        <pt x="947" y="694" on="1"/>
        <pt x="947" y="592" on="0"/>
        <pt x="880" y="453" on="0"/>
        <pt x="765" y="367" on="0"/>
        <pt x="620" y="330" on="0"/>
      </contour>
      <contour>
        <pt x="548" y="442" on="1"/>
        <pt x="650" y="442" on="0"/>
        <pt x="742" y="584" on="0"/>
        <pt x="742" y="694" on="1"/>
        <pt x="742" y="752" on="0"/>
        <pt x="716" y="854" on="0"/>
        <pt x="665" y="932" on="0"/>
        <pt x="583" y="977" on="0"/>
        <pt x="527" y="977" on="1"/>
        <pt x="474" y="977" on="0"/>
        <pt x="392" y="934" on="0"/>
        <pt x="339" y="858" on="0"/>
        <pt x="312" y="758" on="0"/>
        <pt x="312" y="700" on="1"/>
        <pt x="312" y="645" on="0"/>
        <pt x="339" y="551" on="0"/>
        <pt x="396" y="481" on="0"/>
        <pt x="484" y="442" on="0"/>
      </contour>
      <contour>
        <pt x="505" y="-49" on="1"/>
        <pt x="402" y="-49" on="0"/>
        <pt x="327" y="-23" on="1"/>
        <pt x="259" y="-102" on="0"/>
        <pt x="259" y="-178" on="1"/>
        <pt x="259" y="-238" on="0"/>
        <pt x="304" y="-317" on="0"/>
        <pt x="386" y="-367" on="0"/>
        <pt x="499" y="-387" on="0"/>
        <pt x="566" y="-387" on="1"/>
        <pt x="638" y="-387" on="0"/>
        <pt x="777" y="-350" on="0"/>
        <pt x="886" y="-289" on="0"/>
        <pt x="951" y="-207" on="0"/>
        <pt x="951" y="-162" on="1"/>
        <pt x="951" y="-102" on="0"/>
        <pt x="867" y="-49" on="0"/>
        <pt x="749" y="-49" on="1"/>
      </contour>
    </TTGlyph>
    <TTGlyph name="germandbls" xMin="27" yMin="-20" xMax="1334" yMax="1550">
      <contour>
        <pt x="996" y="1004" on="1"/>
        <pt x="961" y="991" on="0"/>
        <pt x="888" y="965" on="0"/>
        <pt x="826" y="922" on="0"/>
        <pt x="785" y="862" on="0"/>
        <pt x="785" y="819" on="1"/>
        <pt x="785" y="758" on="0"/>
        <pt x="867" y="678" on="0"/>
        <pt x="988" y="616" on="0"/>
        <pt x="1131" y="561" on="0"/>
        <pt x="1252" y="487" on="0"/>
        <pt x="1334" y="379" on="0"/>
        <pt x="1334" y="297" on="1"/>
        <pt x="1334" y="207" on="0"/>
        <pt x="1267" y="84" on="0"/>
        <pt x="1152" y="10" on="0"/>
        <pt x="1006" y="-20" on="0"/>
        <pt x="929" y="-20" on="1"/>
        <pt x="828" y="-20" on="0"/>
        <pt x="640" y="20" on="0"/>
        <pt x="574" y="49" on="1"/>
        <pt x="574" y="324" on="1"/>
        <pt x="681" y="342" on="1"/>
        <pt x="736" y="139" on="1"/>
        <pt x="789" y="117" on="0"/>
        <pt x="871" y="92" on="0"/>
        <pt x="931" y="92" on="1"/>
        <pt x="1021" y="92" on="0"/>
        <pt x="1142" y="174" on="0"/>
        <pt x="1142" y="266" on="1"/>
        <pt x="1142" y="326" on="0"/>
        <pt x="1060" y="401" on="0"/>
        <pt x="939" y="461" on="0"/>
        <pt x="798" y="514" on="0"/>
        <pt x="677" y="592" on="0"/>
        <pt x="595" y="702" on="0"/>
        <pt x="595" y="788" on="1"/>
        <pt x="595" y="844" on="0"/>
        <pt x="640" y="932" on="0"/>
        <pt x="712" y="999" on="0"/>
        <pt x="800" y="1047" on="0"/>
        <pt x="843" y="1061" on="1"/>
        <pt x="861" y="1085" on="0"/>
        <pt x="873" y="1180" on="0"/>
        <pt x="873" y="1212" on="1"/>
        <pt x="873" y="1255" on="0"/>
        <pt x="845" y="1339" on="0"/>
        <pt x="787" y="1403" on="0"/>
        <pt x="695" y="1442" on="0"/>
        <pt x="632" y="1442" on="1"/>
        <pt x="585" y="1442" on="0"/>
        <pt x="499" y="1415" on="0"/>
        <pt x="431" y="1354" on="0"/>
        <pt x="390" y="1251" on="0"/>
        <pt x="390" y="1178" on="1"/>
        <pt x="390" y="0" on="1"/>
        <pt x="27" y="0" on="1"/>
        <pt x="27" y="61" on="1"/>
        <pt x="206" y="123" on="1"/>
        <pt x="208" y="1180" on="1"/>
        <pt x="208" y="1282" on="0"/>
        <pt x="279" y="1423" on="0"/>
        <pt x="402" y="1511" on="0"/>
        <pt x="562" y="1550" on="0"/>
        <pt x="652" y="1550" on="1"/>
        <pt x="744" y="1550" on="0"/>
        <pt x="896" y="1507" on="0"/>
        <pt x="1004" y="1421" on="0"/>
        <pt x="1066" y="1292" on="0"/>
        <pt x="1066" y="1208" on="1"/>
        <pt x="1066" y="1155" on="0"/>
        <pt x="1025" y="1044" on="0"/>
      </contour>
    </TTGlyph>
    <TTGlyph name="grave" xMin="231" yMin="1192" xMax="651" yMax="1536">
      <contour>
        <pt x="231" y="1536" on="1"/>
        <pt x="432" y="1536" on="1"/>
        <pt x="651" y="1192" on="1"/>
        <pt x="539" y="1192" on="1"/>
      </contour>
    </TTGlyph>
    <TTGlyph name="greater" xMin="113" yMin="47" xMax="1360" yMax="1186">
      <contour>
        <pt x="1360" y="553" on="1"/>
        <pt x="113" y="47" on="1"/>
        <pt x="113" y="207" on="1"/>
        <pt x="1149" y="616" on="1"/>
        <pt x="113" y="1026" on="1"/>
        <pt x="113" y="1186" on="1"/>
        <pt x="1360" y="680" on="1"/>
      </contour>
    </TTGlyph>
    <TTGlyph name="guillemotleft" xMin="69" yMin="39" xMax="925" yMax="1030">
      <contour>
        <pt x="263" y="549" on="1"/>
        <pt x="263" y="547" on="0"/>
        <pt x="266" y="547" on="1"/>
        <pt x="309" y="504" on="0"/>
        <pt x="397" y="362" on="0"/>
        <pt x="470" y="215" on="0"/>
        <pt x="522" y="90" on="0"/>
        <pt x="528" y="63" on="1"/>
        <pt x="470" y="39" on="1"/>
        <pt x="429" y="100" on="0"/>
        <pt x="327" y="238" on="0"/>
        <pt x="216" y="371" on="0"/>
        <pt x="110" y="485" on="0"/>
        <pt x="69" y="524" on="1"/>
        <pt x="69" y="545" on="1"/>
        <pt x="110" y="584" on="0"/>
        <pt x="216" y="698" on="0"/>
        <pt x="327" y="831" on="0"/>
        <pt x="429" y="969" on="0"/>
        <pt x="470" y="1030" on="1"/>
        <pt x="528" y="1006" on="1"/>
        <pt x="522" y="979" on="0"/>
        <pt x="470" y="864" on="0"/>
        <pt x="397" y="733" on="0"/>
        <pt x="309" y="602" on="0"/>
        <pt x="266" y="559" on="1"/>
        <pt x="263" y="557" on="1"/>
        <pt x="263" y="553" on="1"/>
      </contour>
      <contour>
        <pt x="661" y="549" on="1"/>
        <pt x="661" y="547" on="0"/>
        <pt x="663" y="547" on="1"/>
        <pt x="706" y="504" on="0"/>
        <pt x="794" y="362" on="0"/>
        <pt x="868" y="215" on="0"/>
        <pt x="919" y="90" on="0"/>
        <pt x="925" y="63" on="1"/>
        <pt x="868" y="39" on="1"/>
        <pt x="831" y="100" on="0"/>
        <pt x="730" y="238" on="0"/>
        <pt x="624" y="371" on="0"/>
        <pt x="517" y="485" on="0"/>
        <pt x="476" y="524" on="1"/>
        <pt x="476" y="545" on="1"/>
        <pt x="517" y="584" on="0"/>
        <pt x="624" y="698" on="0"/>
        <pt x="730" y="831" on="0"/>
        <pt x="831" y="969" on="0"/>
        <pt x="868" y="1030" on="1"/>
        <pt x="925" y="1006" on="1"/>
        <pt x="919" y="979" on="0"/>
        <pt x="868" y="864" on="0"/>
        <pt x="794" y="733" on="0"/>
        <pt x="706" y="602" on="0"/>
        <pt x="663" y="559" on="1"/>
        <pt x="661" y="557" on="1"/>
        <pt x="661" y="553" on="1"/>
      </contour>
    </TTGlyph>
    <TTGlyph name="guillemotright" xMin="116" yMin="39" xMax="972" yMax="1030">
      <contour>
        <pt x="778" y="553" on="1"/>
        <pt x="778" y="555" on="0"/>
        <pt x="776" y="555" on="0"/>
        <pt x="776" y="557" on="1"/>
        <pt x="776" y="559" on="1"/>
        <pt x="733" y="602" on="0"/>
        <pt x="645" y="733" on="0"/>
        <pt x="571" y="864" on="0"/>
        <pt x="520" y="979" on="0"/>
        <pt x="514" y="1006" on="1"/>
        <pt x="571" y="1030" on="1"/>
        <pt x="610" y="969" on="0"/>
        <pt x="714" y="831" on="0"/>
        <pt x="825" y="698" on="0"/>
        <pt x="932" y="584" on="0"/>
        <pt x="972" y="545" on="1"/>
        <pt x="972" y="524" on="1"/>
        <pt x="932" y="485" on="0"/>
        <pt x="825" y="371" on="0"/>
        <pt x="714" y="238" on="0"/>
        <pt x="610" y="100" on="0"/>
        <pt x="571" y="39" on="1"/>
        <pt x="514" y="63" on="1"/>
        <pt x="520" y="90" on="0"/>
        <pt x="571" y="215" on="0"/>
        <pt x="645" y="362" on="0"/>
        <pt x="733" y="504" on="0"/>
        <pt x="776" y="547" on="1"/>
        <pt x="776" y="549" on="1"/>
        <pt x="776" y="549" on="0"/>
      </contour>
      <contour>
        <pt x="381" y="553" on="1"/>
        <pt x="381" y="555" on="0"/>
        <pt x="379" y="555" on="0"/>
        <pt x="379" y="557" on="1"/>
        <pt x="379" y="559" on="1"/>
        <pt x="336" y="602" on="0"/>
        <pt x="247" y="733" on="0"/>
        <pt x="174" y="864" on="0"/>
        <pt x="123" y="979" on="0"/>
        <pt x="116" y="1006" on="1"/>
        <pt x="174" y="1030" on="1"/>
        <pt x="211" y="969" on="0"/>
        <pt x="311" y="831" on="0"/>
        <pt x="417" y="698" on="0"/>
        <pt x="524" y="584" on="0"/>
        <pt x="565" y="545" on="1"/>
        <pt x="565" y="524" on="1"/>
        <pt x="524" y="485" on="0"/>
        <pt x="417" y="371" on="0"/>
        <pt x="311" y="238" on="0"/>
        <pt x="211" y="100" on="0"/>
        <pt x="174" y="39" on="1"/>
        <pt x="116" y="63" on="1"/>
        <pt x="123" y="90" on="0"/>
        <pt x="174" y="215" on="0"/>
        <pt x="247" y="362" on="0"/>
        <pt x="336" y="504" on="0"/>
        <pt x="379" y="547" on="1"/>
        <pt x="379" y="549" on="1"/>
        <pt x="379" y="549" on="0"/>
      </contour>
    </TTGlyph>
    <TTGlyph name="guilsinglleft" xMin="69" yMin="39" xMax="528" yMax="1030">
      <contour>
        <pt x="263" y="549" on="1"/>
        <pt x="263" y="547" on="0"/>
        <pt x="266" y="547" on="1"/>
        <pt x="309" y="504" on="0"/>
        <pt x="397" y="362" on="0"/>
        <pt x="470" y="215" on="0"/>
        <pt x="522" y="90" on="0"/>
        <pt x="528" y="63" on="1"/>
        <pt x="470" y="39" on="1"/>
        <pt x="429" y="100" on="0"/>
        <pt x="327" y="238" on="0"/>
        <pt x="216" y="371" on="0"/>
        <pt x="110" y="485" on="0"/>
        <pt x="69" y="524" on="1"/>
        <pt x="69" y="545" on="1"/>
        <pt x="110" y="584" on="0"/>
        <pt x="216" y="698" on="0"/>
        <pt x="327" y="831" on="0"/>
        <pt x="429" y="969" on="0"/>
        <pt x="470" y="1030" on="1"/>
        <pt x="528" y="1006" on="1"/>
        <pt x="522" y="979" on="0"/>
        <pt x="470" y="864" on="0"/>
        <pt x="397" y="733" on="0"/>
        <pt x="309" y="602" on="0"/>
        <pt x="266" y="559" on="1"/>
        <pt x="263" y="557" on="1"/>
        <pt x="263" y="553" on="1"/>
      </contour>
    </TTGlyph>
    <TTGlyph name="guilsinglright" xMin="116" yMin="39" xMax="574" yMax="1030">
      <contour>
        <pt x="380" y="553" on="1"/>
        <pt x="380" y="555" on="0"/>
        <pt x="378" y="555" on="0"/>
        <pt x="378" y="557" on="1"/>
        <pt x="378" y="559" on="1"/>
        <pt x="335" y="602" on="0"/>
        <pt x="247" y="733" on="0"/>
        <pt x="173" y="864" on="0"/>
        <pt x="122" y="979" on="0"/>
        <pt x="116" y="1006" on="1"/>
        <pt x="173" y="1030" on="1"/>
        <pt x="212" y="969" on="0"/>
        <pt x="316" y="831" on="0"/>
        <pt x="427" y="698" on="0"/>
        <pt x="533" y="584" on="0"/>
        <pt x="574" y="545" on="1"/>
        <pt x="574" y="524" on="1"/>
        <pt x="533" y="485" on="0"/>
        <pt x="427" y="371" on="0"/>
        <pt x="316" y="238" on="0"/>
        <pt x="212" y="100" on="0"/>
        <pt x="173" y="39" on="1"/>
        <pt x="116" y="63" on="1"/>
        <pt x="122" y="90" on="0"/>
        <pt x="173" y="215" on="0"/>
        <pt x="247" y="362" on="0"/>
        <pt x="335" y="504" on="0"/>
        <pt x="378" y="547" on="1"/>
        <pt x="378" y="549" on="1"/>
        <pt x="378" y="549" on="0"/>
      </contour>
    </TTGlyph>
    <TTGlyph name="h" xMin="27" yMin="0" xMax="1221" yMax="1536">
      <contour>
        <pt x="392" y="911" on="1"/>
        <pt x="426" y="954" on="0"/>
        <pt x="514" y="1018" on="0"/>
        <pt x="609" y="1061" on="0"/>
        <pt x="703" y="1083" on="0"/>
        <pt x="746" y="1083" on="1"/>
        <pt x="893" y="1083" on="0"/>
        <pt x="1055" y="903" on="0"/>
        <pt x="1055" y="707" on="1"/>
        <pt x="1057" y="127" on="1"/>
        <pt x="1221" y="92" on="1"/>
        <pt x="1200" y="0" on="1"/>
        <pt x="715" y="0" on="1"/>
        <pt x="715" y="61" on="1"/>
        <pt x="873" y="123" on="1"/>
        <pt x="873" y="666" on="1"/>
        <pt x="873" y="741" on="0"/>
        <pt x="848" y="840" on="0"/>
        <pt x="799" y="895" on="0"/>
        <pt x="725" y="915" on="0"/>
        <pt x="676" y="915" on="1"/>
        <pt x="635" y="915" on="0"/>
        <pt x="551" y="901" on="0"/>
        <pt x="475" y="872" on="0"/>
        <pt x="412" y="836" on="0"/>
        <pt x="392" y="811" on="1"/>
        <pt x="392" y="127" on="1"/>
        <pt x="545" y="98" on="1"/>
        <pt x="525" y="0" on="1"/>
        <pt x="27" y="0" on="1"/>
        <pt x="27" y="61" on="1"/>
        <pt x="207" y="123" on="1"/>
        <pt x="207" y="1370" on="1"/>
        <pt x="37" y="1403" on="1"/>
        <pt x="27" y="1487" on="1"/>
        <pt x="392" y="1536" on="1"/>
      </contour>
    </TTGlyph>
    <TTGlyph name="hungarumlaut" xMin="143" yMin="1217" xMax="827" yMax="1593">
      <contour>
        <pt x="256" y="1219" on="1"/>
        <pt x="143" y="1219" on="1"/>
        <pt x="322" y="1593" on="1"/>
        <pt x="522" y="1593" on="1"/>
      </contour>
      <contour>
        <pt x="561" y="1217" on="1"/>
        <pt x="449" y="1217" on="1"/>
        <pt x="627" y="1591" on="1"/>
        <pt x="827" y="1591" on="1"/>
      </contour>
    </TTGlyph>
    <TTGlyph name="hyphen" xMin="125" yMin="399" xMax="625" yMax="553">
      <contour>
        <pt x="125" y="553" on="1"/>
        <pt x="625" y="553" on="1"/>
        <pt x="625" y="399" on="1"/>
        <pt x="125" y="399" on="1"/>
      </contour>
    </TTGlyph>
    <TTGlyph name="i" xMin="58" yMin="0" xMax="576" yMax="1520">
      <contour>
        <pt x="422" y="127" on="1"/>
        <pt x="576" y="98" on="1"/>
        <pt x="555" y="0" on="1"/>
        <pt x="58" y="0" on="1"/>
        <pt x="58" y="61" on="1"/>
        <pt x="238" y="123" on="1"/>
        <pt x="238" y="915" on="1"/>
        <pt x="72" y="946" on="1"/>
        <pt x="62" y="1030" on="1"/>
        <pt x="422" y="1079" on="1"/>
      </contour>
      <contour>
        <pt x="170" y="1378" on="1"/>
        <pt x="222" y="1468" on="0"/>
        <pt x="314" y="1520" on="1"/>
        <pt x="404" y="1473" on="0"/>
        <pt x="451" y="1382" on="1"/>
        <pt x="398" y="1292" on="0"/>
        <pt x="308" y="1241" on="1"/>
        <pt x="265" y="1264" on="0"/>
        <pt x="193" y="1335" on="0"/>
      </contour>
    </TTGlyph>
    <TTGlyph name="iacute" xMin="58" yMin="0" xMax="649" yMax="1532">
      <component glyphName="dotlessi" x="0" y="0" flags="0x204"/>
      <component glyphName="acute" x="239" y="0" flags="0x4"/>
    </TTGlyph>
    <TTGlyph name="icircumflex" xMin="16" yMin="0" xMax="637" yMax="1536">
      <component glyphName="dotlessi" x="0" y="0" flags="0x204"/>
      <component glyphName="circumflex" x="-209" y="0" flags="0x4"/>
    </TTGlyph>
    <TTGlyph name="idieresis" xMin="-19" yMin="0" xMax="673" yMax="1479">
      <component glyphName="dotlessi" x="0" y="0" flags="0x204"/>
      <component glyphName="dieresis" x="-58" y="0" flags="0x4"/>
    </TTGlyph>
    <TTGlyph name="igrave" xMin="-34" yMin="0" xMax="576" yMax="1536">
      <component glyphName="dotlessi" x="0" y="0" flags="0x204"/>
      <component glyphName="grave" x="-265" y="0" flags="0x4"/>
    </TTGlyph>
    <TTGlyph name="j" xMin="-196" yMin="-479" xMax="422" yMax="1520">
      <contour>
        <pt x="207" y="915" on="1"/>
        <pt x="41" y="946" on="1"/>
        <pt x="31" y="1030" on="1"/>
        <pt x="392" y="1079" on="1"/>
        <pt x="392" y="-88" on="1"/>
        <pt x="392" y="-182" on="0"/>
        <pt x="332" y="-328" on="0"/>
        <pt x="234" y="-428" on="0"/>
        <pt x="105" y="-479" on="0"/>
        <pt x="35" y="-479" on="1"/>
        <pt x="-22" y="-479" on="0"/>
        <pt x="-141" y="-444" on="0"/>
        <pt x="-196" y="-408" on="1"/>
        <pt x="-196" y="-135" on="1"/>
        <pt x="-94" y="-115" on="1"/>
        <pt x="-36" y="-338" on="1"/>
        <pt x="25" y="-362" on="0"/>
        <pt x="68" y="-362" on="1"/>
        <pt x="117" y="-362" on="0"/>
        <pt x="173" y="-311" on="0"/>
        <pt x="199" y="-231" on="0"/>
        <pt x="207" y="-131" on="0"/>
        <pt x="207" y="-84" on="1"/>
      </contour>
      <contour>
        <pt x="142" y="1378" on="1"/>
        <pt x="193" y="1468" on="0"/>
        <pt x="285" y="1520" on="1"/>
        <pt x="375" y="1473" on="0"/>
        <pt x="422" y="1382" on="1"/>
        <pt x="369" y="1292" on="0"/>
        <pt x="279" y="1241" on="1"/>
        <pt x="236" y="1264" on="0"/>
        <pt x="164" y="1335" on="0"/>
      </contour>
    </TTGlyph>
    <TTGlyph name="k" xMin="27" yMin="0" xMax="1191" yMax="1536">
      <contour>
        <pt x="392" y="127" on="1"/>
        <pt x="545" y="98" on="1"/>
        <pt x="525" y="0" on="1"/>
        <pt x="27" y="0" on="1"/>
        <pt x="27" y="61" on="1"/>
        <pt x="207" y="123" on="1"/>
        <pt x="207" y="1372" on="1"/>
        <pt x="41" y="1403" on="1"/>
        <pt x="31" y="1487" on="1"/>
        <pt x="392" y="1536" on="1"/>
        <pt x="392" y="536" on="1"/>
        <pt x="797" y="945" on="1"/>
        <pt x="666" y="967" on="1"/>
        <pt x="687" y="1065" on="1"/>
        <pt x="1138" y="1065" on="1"/>
        <pt x="1138" y="1003" on="1"/>
        <pt x="941" y="930" on="1"/>
        <pt x="690" y="680" on="1"/>
        <pt x="1044" y="125" on="1"/>
        <pt x="1191" y="98" on="1"/>
        <pt x="1171" y="0" on="1"/>
        <pt x="906" y="0" on="1"/>
        <pt x="559" y="544" on="1"/>
        <pt x="392" y="380" on="1"/>
      </contour>
    </TTGlyph>
    <TTGlyph name="l" xMin="26" yMin="0" xMax="565" yMax="1536">
      <contour>
        <pt x="391" y="127" on="1"/>
        <pt x="565" y="98" on="1"/>
        <pt x="545" y="0" on="1"/>
        <pt x="26" y="0" on="1"/>
        <pt x="26" y="61" on="1"/>
        <pt x="207" y="123" on="1"/>
        <pt x="207" y="1372" on="1"/>
        <pt x="41" y="1403" on="1"/>
        <pt x="31" y="1487" on="1"/>
        <pt x="391" y="1536" on="1"/>
      </contour>
    </TTGlyph>
    <TTGlyph name="less" xMin="61" yMin="47" xMax="1308" yMax="1186">
      <contour>
        <pt x="61" y="680" on="1"/>
        <pt x="1308" y="1186" on="1"/>
        <pt x="1308" y="1026" on="1"/>
        <pt x="272" y="616" on="1"/>
        <pt x="1308" y="207" on="1"/>
        <pt x="1308" y="47" on="1"/>
        <pt x="61" y="553" on="1"/>
      </contour>
    </TTGlyph>
    <TTGlyph name="logicalnot" xMin="136" yMin="319" xMax="1311" yMax="846">
      <contour>
        <pt x="136" y="846" on="1"/>
        <pt x="1311" y="846" on="1"/>
        <pt x="1311" y="319" on="1"/>
        <pt x="1166" y="319" on="1"/>
        <pt x="1166" y="700" on="1"/>
        <pt x="136" y="700" on="1"/>
      </contour>
    </TTGlyph>
    <TTGlyph name="m" xMin="60" yMin="0" xMax="1866" yMax="1083">
      <contour>
        <pt x="1219" y="92" on="1"/>
        <pt x="1198" y="0" on="1"/>
        <pt x="729" y="0" on="1"/>
        <pt x="729" y="61" on="1"/>
        <pt x="877" y="123" on="1"/>
        <pt x="877" y="696" on="1"/>
        <pt x="877" y="813" on="0"/>
        <pt x="758" y="915" on="0"/>
        <pt x="674" y="915" on="1"/>
        <pt x="609" y="915" on="0"/>
        <pt x="463" y="858" on="0"/>
        <pt x="422" y="811" on="1"/>
        <pt x="422" y="127" on="1"/>
        <pt x="568" y="98" on="1"/>
        <pt x="547" y="0" on="1"/>
        <pt x="62" y="0" on="1"/>
        <pt x="62" y="61" on="1"/>
        <pt x="240" y="123" on="1"/>
        <pt x="240" y="907" on="1"/>
        <pt x="70" y="940" on="1"/>
        <pt x="60" y="1030" on="1"/>
        <pt x="422" y="1079" on="1"/>
        <pt x="422" y="911" on="1"/>
        <pt x="492" y="997" on="0"/>
        <pt x="684" y="1083" on="0"/>
        <pt x="770" y="1083" on="1"/>
        <pt x="862" y="1083" on="0"/>
        <pt x="998" y="979" on="0"/>
        <pt x="1035" y="870" on="1"/>
        <pt x="1102" y="967" on="0"/>
        <pt x="1301" y="1083" on="0"/>
        <pt x="1399" y="1083" on="1"/>
        <pt x="1461" y="1083" on="0"/>
        <pt x="1571" y="1036" on="0"/>
        <pt x="1653" y="940" on="0"/>
        <pt x="1700" y="795" on="0"/>
        <pt x="1700" y="696" on="1"/>
        <pt x="1700" y="127" on="1"/>
        <pt x="1866" y="92" on="1"/>
        <pt x="1846" y="0" on="1"/>
        <pt x="1368" y="0" on="1"/>
        <pt x="1368" y="61" on="1"/>
        <pt x="1516" y="123" on="1"/>
        <pt x="1516" y="696" on="1"/>
        <pt x="1516" y="754" on="0"/>
        <pt x="1481" y="838" on="0"/>
        <pt x="1422" y="891" on="0"/>
        <pt x="1348" y="915" on="0"/>
        <pt x="1309" y="915" on="1"/>
        <pt x="1227" y="915" on="0"/>
        <pt x="1104" y="840" on="0"/>
        <pt x="1061" y="782" on="1"/>
        <pt x="1061" y="127" on="1"/>
      </contour>
    </TTGlyph>
    <TTGlyph name="macron" xMin="215" yMin="1280" xMax="858" yMax="1425">
      <contour>
        <pt x="215" y="1425" on="1"/>
        <pt x="858" y="1425" on="1"/>
        <pt x="858" y="1280" on="1"/>
        <pt x="215" y="1280" on="1"/>
      </contour>
    </TTGlyph>
    <TTGlyph name="minus" xMin="144" yMin="530" xMax="1106" yMax="686">
      <contour>
        <pt x="144" y="686" on="1"/>
        <pt x="1106" y="686" on="1"/>
        <pt x="1106" y="530" on="1"/>
        <pt x="144" y="530" on="1"/>
      </contour>
    </TTGlyph>
    <TTGlyph name="mu" xMin="202" yMin="-459" xMax="1216" yMax="1065">
      <contour>
        <pt x="387" y="401" on="1"/>
        <pt x="387" y="324" on="0"/>
        <pt x="411" y="227" on="0"/>
        <pt x="460" y="172" on="0"/>
        <pt x="534" y="152" on="0"/>
        <pt x="583" y="152" on="1"/>
        <pt x="624" y="152" on="0"/>
        <pt x="708" y="166" on="0"/>
        <pt x="784" y="195" on="0"/>
        <pt x="847" y="231" on="0"/>
        <pt x="868" y="256" on="1"/>
        <pt x="868" y="1065" on="1"/>
        <pt x="1050" y="1065" on="1"/>
        <pt x="1050" y="127" on="1"/>
        <pt x="1216" y="90" on="1"/>
        <pt x="1194" y="0" on="1"/>
        <pt x="868" y="0" on="1"/>
        <pt x="868" y="135" on="1"/>
        <pt x="833" y="92" on="0"/>
        <pt x="745" y="35" on="0"/>
        <pt x="651" y="0" on="0"/>
        <pt x="557" y="-16" on="0"/>
        <pt x="514" y="-16" on="1"/>
        <pt x="479" y="-16" on="0"/>
        <pt x="415" y="-6" on="0"/>
        <pt x="387" y="4" on="1"/>
        <pt x="387" y="-459" on="1"/>
        <pt x="202" y="-459" on="1"/>
        <pt x="202" y="1065" on="1"/>
        <pt x="387" y="1065" on="1"/>
      </contour>
    </TTGlyph>
    <TTGlyph name="multiply" xMin="74" yMin="88" xMax="1126" yMax="1124">
      <contour>
        <pt x="106" y="188" on="1"/>
        <pt x="504" y="600" on="1"/>
        <pt x="74" y="1018" on="1"/>
        <pt x="178" y="1124" on="1"/>
        <pt x="608" y="709" on="1"/>
        <pt x="1008" y="1122" on="1"/>
        <pt x="1112" y="1020" on="1"/>
        <pt x="713" y="608" on="1"/>
        <pt x="1126" y="207" on="1"/>
        <pt x="1022" y="100" on="1"/>
        <pt x="608" y="500" on="1"/>
        <pt x="209" y="88" on="1"/>
      </contour>
    </TTGlyph>
    <TTGlyph name="n" xMin="60" yMin="0" xMax="1252" yMax="1083">
      <contour>
        <pt x="1088" y="127" on="1"/>
        <pt x="1252" y="92" on="1"/>
        <pt x="1231" y="0" on="1"/>
        <pt x="746" y="0" on="1"/>
        <pt x="746" y="61" on="1"/>
        <pt x="903" y="123" on="1"/>
        <pt x="903" y="666" on="1"/>
        <pt x="903" y="741" on="0"/>
        <pt x="879" y="840" on="0"/>
        <pt x="830" y="895" on="0"/>
        <pt x="756" y="915" on="0"/>
        <pt x="707" y="915" on="1"/>
        <pt x="666" y="915" on="0"/>
        <pt x="582" y="901" on="0"/>
        <pt x="506" y="872" on="0"/>
        <pt x="443" y="836" on="0"/>
        <pt x="422" y="811" on="1"/>
        <pt x="422" y="127" on="1"/>
        <pt x="578" y="98" on="1"/>
        <pt x="557" y="0" on="1"/>
        <pt x="62" y="0" on="1"/>
        <pt x="62" y="61" on="1"/>
        <pt x="240" y="123" on="1"/>
        <pt x="240" y="907" on="1"/>
        <pt x="70" y="940" on="1"/>
        <pt x="60" y="1030" on="1"/>
        <pt x="422" y="1079" on="1"/>
        <pt x="422" y="911" on="1"/>
        <pt x="457" y="954" on="0"/>
        <pt x="545" y="1018" on="0"/>
        <pt x="639" y="1061" on="0"/>
        <pt x="733" y="1083" on="0"/>
        <pt x="776" y="1083" on="1"/>
        <pt x="924" y="1083" on="0"/>
        <pt x="1084" y="903" on="0"/>
        <pt x="1088" y="707" on="1"/>
      </contour>
    </TTGlyph>
    <TTGlyph name="nine" xMin="64" yMin="-30" xMax="1094" yMax="1463">
      <contour>
        <pt x="289" y="1006" on="1"/>
        <pt x="289" y="929" on="0"/>
        <pt x="337" y="814" on="0"/>
        <pt x="416" y="737" on="0"/>
        <pt x="523" y="696" on="0"/>
        <pt x="584" y="696" on="1"/>
        <pt x="658" y="696" on="0"/>
        <pt x="808" y="761" on="0"/>
        <pt x="869" y="821" on="1"/>
        <pt x="869" y="940" on="0"/>
        <pt x="830" y="1136" on="0"/>
        <pt x="752" y="1274" on="0"/>
        <pt x="634" y="1351" on="0"/>
        <pt x="554" y="1351" on="1"/>
        <pt x="423" y="1351" on="0"/>
        <pt x="289" y="1159" on="0"/>
      </contour>
      <contour>
        <pt x="859" y="720" on="1"/>
        <pt x="781" y="645" on="0"/>
        <pt x="589" y="575" on="0"/>
        <pt x="496" y="575" on="1"/>
        <pt x="412" y="575" on="0"/>
        <pt x="257" y="624" on="0"/>
        <pt x="136" y="726" on="0"/>
        <pt x="64" y="882" on="0"/>
        <pt x="64" y="987" on="1"/>
        <pt x="64" y="1085" on="0"/>
        <pt x="138" y="1256" on="0"/>
        <pt x="267" y="1387" on="0"/>
        <pt x="447" y="1463" on="0"/>
        <pt x="552" y="1463" on="1"/>
        <pt x="808" y="1463" on="0"/>
        <pt x="1094" y="1147" on="0"/>
        <pt x="1094" y="851" on="1"/>
        <pt x="1094" y="628" on="0"/>
        <pt x="937" y="296" on="0"/>
        <pt x="695" y="74" on="0"/>
        <pt x="404" y="-30" on="0"/>
        <pt x="269" y="-28" on="1"/>
        <pt x="232" y="64" on="1"/>
        <pt x="341" y="72" on="0"/>
        <pt x="564" y="152" on="0"/>
        <pt x="744" y="309" on="0"/>
        <pt x="859" y="550" on="0"/>
      </contour>
    </TTGlyph>
    <TTGlyph name="ntilde" xMin="60" yMin="0" xMax="1252" yMax="1494">
      <component glyphName="n" x="0" y="0" flags="0x204"/>
      <component glyphName="tilde" x="-162" y="0" flags="0x4"/>
    </TTGlyph>
    <TTGlyph name="numbersign" xMin="67" yMin="-68" xMax="1505" yMax="1505">
      <contour>
        <pt x="862" y="436" on="1"/>
        <pt x="504" y="436" on="1"/>
        <pt x="323" y="-68" on="1"/>
        <pt x="200" y="-27" on="1"/>
        <pt x="366" y="436" on="1"/>
        <pt x="67" y="436" on="1"/>
        <pt x="67" y="580" on="1"/>
        <pt x="420" y="580" on="1"/>
        <pt x="520" y="860" on="1"/>
        <pt x="170" y="860" on="1"/>
        <pt x="170" y="1004" on="1"/>
        <pt x="571" y="1004" on="1"/>
        <pt x="753" y="1505" on="1"/>
        <pt x="876" y="1464" on="1"/>
        <pt x="710" y="1004" on="1"/>
        <pt x="1067" y="1004" on="1"/>
        <pt x="1249" y="1505" on="1"/>
        <pt x="1372" y="1464" on="1"/>
        <pt x="1206" y="1004" on="1"/>
        <pt x="1505" y="1004" on="1"/>
        <pt x="1505" y="860" on="1"/>
        <pt x="1153" y="860" on="1"/>
        <pt x="1052" y="580" on="1"/>
        <pt x="1403" y="580" on="1"/>
        <pt x="1403" y="436" on="1"/>
        <pt x="999" y="436" on="1"/>
        <pt x="819" y="-68" on="1"/>
        <pt x="696" y="-27" on="1"/>
      </contour>
      <contour>
        <pt x="557" y="580" on="1"/>
        <pt x="915" y="580" on="1"/>
        <pt x="1016" y="860" on="1"/>
        <pt x="657" y="860" on="1"/>
      </contour>
    </TTGlyph>
    <TTGlyph name="o" xMin="81" yMin="-16" xMax="1134" yMax="1085">
      <contour>
        <pt x="622" y="96" on="1"/>
        <pt x="704" y="96" on="0"/>
        <pt x="820" y="168" on="0"/>
        <pt x="894" y="287" on="0"/>
        <pt x="929" y="438" on="0"/>
        <pt x="929" y="518" on="1"/>
        <pt x="929" y="602" on="0"/>
        <pt x="896" y="766" on="0"/>
        <pt x="818" y="895" on="0"/>
        <pt x="689" y="973" on="0"/>
        <pt x="593" y="973" on="1"/>
        <pt x="511" y="973" on="0"/>
        <pt x="394" y="901" on="0"/>
        <pt x="321" y="782" on="0"/>
        <pt x="286" y="631" on="0"/>
        <pt x="286" y="551" on="1"/>
        <pt x="286" y="467" on="0"/>
        <pt x="318" y="303" on="0"/>
        <pt x="396" y="174" on="0"/>
        <pt x="525" y="96" on="0"/>
      </contour>
      <contour>
        <pt x="591" y="1085" on="1"/>
        <pt x="728" y="1085" on="0"/>
        <pt x="933" y="993" on="0"/>
        <pt x="1068" y="840" on="0"/>
        <pt x="1134" y="643" on="0"/>
        <pt x="1134" y="541" on="1"/>
        <pt x="1134" y="436" on="0"/>
        <pt x="1066" y="238" on="0"/>
        <pt x="937" y="80" on="0"/>
        <pt x="747" y="-16" on="0"/>
        <pt x="624" y="-16" on="1"/>
        <pt x="486" y="-16" on="0"/>
        <pt x="282" y="76" on="0"/>
        <pt x="146" y="229" on="0"/>
        <pt x="81" y="426" on="0"/>
        <pt x="81" y="528" on="1"/>
        <pt x="81" y="633" on="0"/>
        <pt x="149" y="831" on="0"/>
        <pt x="278" y="989" on="0"/>
        <pt x="468" y="1085" on="0"/>
      </contour>
    </TTGlyph>
    <TTGlyph name="oacute" xMin="81" yMin="-16" xMax="1134" yMax="1532">
      <component glyphName="o" x="0" y="0" flags="0x204"/>
      <component glyphName="acute" x="511" y="0" flags="0x4"/>
    </TTGlyph>
    <TTGlyph name="ocircumflex" xMin="81" yMin="-16" xMax="1134" yMax="1536">
      <component glyphName="o" x="0" y="0" flags="0x204"/>
      <component glyphName="circumflex" x="68" y="0" flags="0x4"/>
    </TTGlyph>
    <TTGlyph name="odieresis" xMin="81" yMin="-16" xMax="1134" yMax="1479">
      <component glyphName="o" x="0" y="0" flags="0x204"/>
      <component glyphName="dieresis" x="218" y="0" flags="0x4"/>
    </TTGlyph>
    <TTGlyph name="oe" xMin="81" yMin="-18" xMax="1834" yMax="1085">
      <contour>
        <pt x="591" y="1085" on="1"/>
        <pt x="738" y="1085" on="0"/>
        <pt x="947" y="961" on="0"/>
        <pt x="1011" y="862" on="1"/>
        <pt x="1082" y="973" on="0"/>
        <pt x="1293" y="1081" on="0"/>
        <pt x="1396" y="1081" on="1"/>
        <pt x="1533" y="1081" on="0"/>
        <pt x="1703" y="987" on="0"/>
        <pt x="1799" y="836" on="0"/>
        <pt x="1834" y="645" on="0"/>
        <pt x="1834" y="549" on="1"/>
        <pt x="1107" y="549" on="1"/>
        <pt x="1107" y="446" on="0"/>
        <pt x="1162" y="287" on="0"/>
        <pt x="1261" y="174" on="0"/>
        <pt x="1394" y="115" on="0"/>
        <pt x="1472" y="115" on="1"/>
        <pt x="1615" y="115" on="0"/>
        <pt x="1773" y="215" on="1"/>
        <pt x="1818" y="137" on="1"/>
        <pt x="1717" y="59" on="0"/>
        <pt x="1504" y="-18" on="0"/>
        <pt x="1402" y="-18" on="1"/>
        <pt x="1283" y="-18" on="0"/>
        <pt x="1074" y="94" on="0"/>
        <pt x="1009" y="205" on="1"/>
        <pt x="947" y="106" on="0"/>
        <pt x="753" y="-16" on="0"/>
        <pt x="624" y="-16" on="1"/>
        <pt x="486" y="-16" on="0"/>
        <pt x="282" y="76" on="0"/>
        <pt x="146" y="229" on="0"/>
        <pt x="81" y="426" on="0"/>
        <pt x="81" y="528" on="1"/>
        <pt x="81" y="633" on="0"/>
        <pt x="149" y="831" on="0"/>
        <pt x="278" y="989" on="0"/>
        <pt x="468" y="1085" on="0"/>
      </contour>
      <contour>
        <pt x="1629" y="659" on="1"/>
        <pt x="1629" y="739" on="0"/>
        <pt x="1588" y="858" on="0"/>
        <pt x="1523" y="934" on="0"/>
        <pt x="1435" y="971" on="0"/>
        <pt x="1390" y="971" on="1"/>
        <pt x="1340" y="971" on="0"/>
        <pt x="1244" y="930" on="0"/>
        <pt x="1166" y="850" on="0"/>
        <pt x="1115" y="735" on="0"/>
        <pt x="1113" y="659" on="1"/>
      </contour>
      <contour>
        <pt x="622" y="96" on="1"/>
        <pt x="704" y="96" on="0"/>
        <pt x="820" y="168" on="0"/>
        <pt x="894" y="287" on="0"/>
        <pt x="929" y="438" on="0"/>
        <pt x="929" y="518" on="1"/>
        <pt x="929" y="602" on="0"/>
        <pt x="896" y="766" on="0"/>
        <pt x="818" y="895" on="0"/>
        <pt x="689" y="973" on="0"/>
        <pt x="593" y="973" on="1"/>
        <pt x="511" y="973" on="0"/>
        <pt x="394" y="901" on="0"/>
        <pt x="321" y="782" on="0"/>
        <pt x="286" y="631" on="0"/>
        <pt x="286" y="551" on="1"/>
        <pt x="286" y="467" on="0"/>
        <pt x="318" y="303" on="0"/>
        <pt x="396" y="174" on="0"/>
        <pt x="525" y="96" on="0"/>
      </contour>
    </TTGlyph>
    <TTGlyph name="ogonek" xMin="154" yMin="-426" xMax="520" yMax="2">
      <contour>
        <pt x="154" y="-182" on="1"/>
        <pt x="154" y="-137" on="0"/>
        <pt x="201" y="-66" on="0"/>
        <pt x="276" y="-18" on="0"/>
        <pt x="371" y="2" on="0"/>
        <pt x="418" y="-6" on="1"/>
        <pt x="369" y="-51" on="0"/>
        <pt x="313" y="-158" on="0"/>
        <pt x="330" y="-258" on="0"/>
        <pt x="422" y="-340" on="0"/>
        <pt x="520" y="-358" on="1"/>
        <pt x="506" y="-422" on="1"/>
        <pt x="449" y="-426" on="0"/>
        <pt x="326" y="-391" on="0"/>
        <pt x="221" y="-328" on="0"/>
        <pt x="154" y="-236" on="0"/>
      </contour>
    </TTGlyph>
    <TTGlyph name="ograve" xMin="81" yMin="-16" xMax="1134" yMax="1536">
      <component glyphName="o" x="0" y="0" flags="0x204"/>
      <component glyphName="grave" x="11" y="0" flags="0x4"/>
    </TTGlyph>
    <TTGlyph name="one" xMin="54" yMin="0" xMax="865" yMax="1466">
      <contour>
        <pt x="865" y="92" on="1"/>
        <pt x="844" y="0" on="1"/>
        <pt x="109" y="0" on="1"/>
        <pt x="109" y="72" on="1"/>
        <pt x="394" y="131" on="1"/>
        <pt x="394" y="1247" on="1"/>
        <pt x="54" y="1176" on="1"/>
        <pt x="54" y="1247" on="1"/>
        <pt x="187" y="1298" on="0"/>
        <pt x="429" y="1415" on="0"/>
        <pt x="529" y="1466" on="1"/>
        <pt x="599" y="1466" on="1"/>
        <pt x="599" y="131" on="1"/>
      </contour>
    </TTGlyph>
    <TTGlyph name="onehalf" xMin="68" yMin="-66" xMax="1584" yMax="1395">
      <contour>
        <pt x="1283" y="1391" on="1"/>
        <pt x="492" y="-66" on="1"/>
        <pt x="339" y="-66" on="1"/>
        <pt x="1129" y="1391" on="1"/>
      </contour>
      <contour>
        <pt x="494" y="702" on="1"/>
        <pt x="484" y="645" on="1"/>
        <pt x="117" y="645" on="1"/>
        <pt x="117" y="692" on="1"/>
        <pt x="242" y="733" on="1"/>
        <pt x="242" y="1264" on="1"/>
        <pt x="68" y="1227" on="1"/>
        <pt x="68" y="1284" on="1"/>
        <pt x="136" y="1309" on="0"/>
        <pt x="259" y="1368" on="0"/>
        <pt x="312" y="1395" on="1"/>
        <pt x="375" y="1391" on="1"/>
        <pt x="375" y="733" on="1"/>
      </contour>
      <contour>
        <pt x="1070" y="66" on="1"/>
        <pt x="1184" y="176" on="0"/>
        <pt x="1328" y="311" on="0"/>
        <pt x="1410" y="408" on="0"/>
        <pt x="1440" y="492" on="0"/>
        <pt x="1440" y="551" on="1"/>
        <pt x="1440" y="612" on="0"/>
        <pt x="1356" y="659" on="0"/>
        <pt x="1301" y="659" on="1"/>
        <pt x="1270" y="659" on="0"/>
        <pt x="1209" y="641" on="0"/>
        <pt x="1184" y="623" on="1"/>
        <pt x="1141" y="489" on="1"/>
        <pt x="1090" y="498" on="1"/>
        <pt x="1090" y="676" on="1"/>
        <pt x="1111" y="690" on="0"/>
        <pt x="1168" y="719" on="0"/>
        <pt x="1227" y="739" on="0"/>
        <pt x="1287" y="752" on="0"/>
        <pt x="1311" y="752" on="1"/>
        <pt x="1363" y="752" on="0"/>
        <pt x="1461" y="727" on="0"/>
        <pt x="1539" y="678" on="0"/>
        <pt x="1584" y="600" on="0"/>
        <pt x="1584" y="545" on="1"/>
        <pt x="1584" y="496" on="0"/>
        <pt x="1545" y="410" on="0"/>
        <pt x="1459" y="313" on="0"/>
        <pt x="1326" y="190" on="0"/>
        <pt x="1234" y="102" on="1"/>
        <pt x="1502" y="102" on="1"/>
        <pt x="1522" y="184" on="1"/>
        <pt x="1576" y="176" on="1"/>
        <pt x="1576" y="0" on="1"/>
        <pt x="1070" y="0" on="1"/>
      </contour>
    </TTGlyph>
    <TTGlyph name="onequarter" xMin="68" yMin="-66" xMax="1500" yMax="1395">
      <contour>
        <pt x="1283" y="1391" on="1"/>
        <pt x="492" y="-66" on="1"/>
        <pt x="339" y="-66" on="1"/>
        <pt x="1129" y="1391" on="1"/>
      </contour>
      <contour>
        <pt x="494" y="702" on="1"/>
        <pt x="484" y="645" on="1"/>
        <pt x="117" y="645" on="1"/>
        <pt x="117" y="692" on="1"/>
        <pt x="242" y="733" on="1"/>
        <pt x="242" y="1264" on="1"/>
        <pt x="68" y="1227" on="1"/>
        <pt x="68" y="1284" on="1"/>
        <pt x="136" y="1309" on="0"/>
        <pt x="259" y="1368" on="0"/>
        <pt x="312" y="1395" on="1"/>
        <pt x="375" y="1395" on="1"/>
        <pt x="375" y="733" on="1"/>
      </contour>
      <contour>
        <pt x="1277" y="78" on="1"/>
        <pt x="1277" y="156" on="1"/>
        <pt x="902" y="156" on="1"/>
        <pt x="902" y="205" on="1"/>
        <pt x="1324" y="752" on="1"/>
        <pt x="1399" y="752" on="1"/>
        <pt x="1399" y="244" on="1"/>
        <pt x="1500" y="244" on="1"/>
        <pt x="1500" y="156" on="1"/>
        <pt x="1399" y="156" on="1"/>
        <pt x="1399" y="78" on="1"/>
        <pt x="1500" y="47" on="1"/>
        <pt x="1487" y="0" on="1"/>
        <pt x="1162" y="0" on="1"/>
        <pt x="1162" y="37" on="1"/>
      </contour>
      <contour>
        <pt x="1277" y="244" on="1"/>
        <pt x="1277" y="532" on="1"/>
        <pt x="1053" y="244" on="1"/>
      </contour>
    </TTGlyph>
    <TTGlyph name="onesuperior" xMin="86" yMin="727" xMax="512" yMax="1477">
      <contour>
        <pt x="512" y="784" on="1"/>
        <pt x="502" y="727" on="1"/>
        <pt x="136" y="727" on="1"/>
        <pt x="136" y="774" on="1"/>
        <pt x="260" y="815" on="1"/>
        <pt x="260" y="1346" on="1"/>
        <pt x="86" y="1309" on="1"/>
        <pt x="86" y="1366" on="1"/>
        <pt x="154" y="1391" on="0"/>
        <pt x="277" y="1450" on="0"/>
        <pt x="330" y="1477" on="1"/>
        <pt x="394" y="1477" on="1"/>
        <pt x="394" y="815" on="1"/>
      </contour>
    </TTGlyph>
    <TTGlyph name="ordfeminine" xMin="95" yMin="797" xMax="710" yMax="1460">
      <contour>
        <pt x="488" y="807" on="1"/>
        <pt x="488" y="907" on="1"/>
        <pt x="470" y="885" on="0"/>
        <pt x="415" y="846" on="0"/>
        <pt x="351" y="815" on="0"/>
        <pt x="288" y="797" on="0"/>
        <pt x="261" y="797" on="1"/>
        <pt x="194" y="797" on="0"/>
        <pt x="95" y="881" on="0"/>
        <pt x="95" y="961" on="1"/>
        <pt x="95" y="1022" on="0"/>
        <pt x="159" y="1098" on="0"/>
        <pt x="239" y="1120" on="1"/>
        <pt x="355" y="1151" on="0"/>
        <pt x="488" y="1165" on="1"/>
        <pt x="488" y="1266" on="1"/>
        <pt x="488" y="1335" on="0"/>
        <pt x="400" y="1393" on="0"/>
        <pt x="351" y="1393" on="1"/>
        <pt x="292" y="1393" on="0"/>
        <pt x="243" y="1364" on="1"/>
        <pt x="208" y="1223" on="1"/>
        <pt x="138" y="1235" on="1"/>
        <pt x="138" y="1395" on="1"/>
        <pt x="185" y="1417" on="0"/>
        <pt x="288" y="1460" on="0"/>
        <pt x="359" y="1460" on="1"/>
        <pt x="411" y="1460" on="0"/>
        <pt x="505" y="1440" on="0"/>
        <pt x="576" y="1395" on="0"/>
        <pt x="619" y="1319" on="0"/>
        <pt x="619" y="1264" on="1"/>
        <pt x="619" y="885" on="1"/>
        <pt x="710" y="862" on="1"/>
        <pt x="697" y="807" on="1"/>
      </contour>
      <contour>
        <pt x="228" y="969" on="1"/>
        <pt x="228" y="909" on="0"/>
        <pt x="284" y="874" on="0"/>
        <pt x="323" y="874" on="1"/>
        <pt x="345" y="874" on="0"/>
        <pt x="394" y="893" on="0"/>
        <pt x="439" y="920" on="0"/>
        <pt x="478" y="954" on="0"/>
        <pt x="488" y="971" on="1"/>
        <pt x="488" y="1112" on="1"/>
        <pt x="447" y="1108" on="0"/>
        <pt x="372" y="1096" on="0"/>
        <pt x="331" y="1083" on="1"/>
        <pt x="271" y="1069" on="0"/>
        <pt x="228" y="1006" on="0"/>
      </contour>
    </TTGlyph>
    <TTGlyph name="ordmasculine" xMin="87" yMin="727" xMax="774" yMax="1475">
      <contour>
        <pt x="774" y="1096" on="1"/>
        <pt x="774" y="1018" on="0"/>
        <pt x="735" y="885" on="0"/>
        <pt x="651" y="784" on="0"/>
        <pt x="522" y="727" on="0"/>
        <pt x="434" y="727" on="1"/>
        <pt x="341" y="727" on="0"/>
        <pt x="210" y="784" on="0"/>
        <pt x="126" y="885" on="0"/>
        <pt x="87" y="1018" on="0"/>
        <pt x="87" y="1096" on="1"/>
        <pt x="87" y="1176" on="0"/>
        <pt x="126" y="1315" on="0"/>
        <pt x="210" y="1415" on="0"/>
        <pt x="339" y="1475" on="0"/>
        <pt x="432" y="1475" on="1"/>
        <pt x="522" y="1475" on="0"/>
        <pt x="651" y="1415" on="0"/>
        <pt x="735" y="1315" on="0"/>
        <pt x="774" y="1176" on="0"/>
      </contour>
      <contour>
        <pt x="413" y="1397" on="1"/>
        <pt x="362" y="1397" on="0"/>
        <pt x="294" y="1354" on="0"/>
        <pt x="255" y="1274" on="0"/>
        <pt x="239" y="1163" on="0"/>
        <pt x="239" y="1098" on="1"/>
        <pt x="239" y="1036" on="0"/>
        <pt x="264" y="930" on="0"/>
        <pt x="317" y="850" on="0"/>
        <pt x="393" y="805" on="0"/>
        <pt x="446" y="805" on="1"/>
        <pt x="538" y="805" on="0"/>
        <pt x="626" y="967" on="0"/>
        <pt x="626" y="1096" on="1"/>
        <pt x="626" y="1157" on="0"/>
        <pt x="604" y="1266" on="0"/>
        <pt x="552" y="1350" on="0"/>
        <pt x="470" y="1397" on="0"/>
      </contour>
    </TTGlyph>
    <TTGlyph name="oslash" xMin="81" yMin="-164" xMax="1134" yMax="1178">
      <contour>
        <pt x="591" y="1085" on="1"/>
        <pt x="656" y="1085" on="0"/>
        <pt x="769" y="1063" on="0"/>
        <pt x="818" y="1042" on="1"/>
        <pt x="892" y="1178" on="1"/>
        <pt x="982" y="1137" on="1"/>
        <pt x="906" y="995" on="1"/>
        <pt x="1021" y="918" on="0"/>
        <pt x="1134" y="676" on="0"/>
        <pt x="1134" y="541" on="1"/>
        <pt x="1134" y="436" on="0"/>
        <pt x="1066" y="238" on="0"/>
        <pt x="937" y="80" on="0"/>
        <pt x="747" y="-16" on="0"/>
        <pt x="624" y="-16" on="1"/>
        <pt x="493" y="-16" on="0"/>
        <pt x="386" y="29" on="1"/>
        <pt x="284" y="-164" on="1"/>
        <pt x="196" y="-115" on="1"/>
        <pt x="298" y="78" on="1"/>
        <pt x="187" y="156" on="0"/>
        <pt x="81" y="395" on="0"/>
        <pt x="81" y="528" on="1"/>
        <pt x="81" y="633" on="0"/>
        <pt x="149" y="831" on="0"/>
        <pt x="278" y="989" on="0"/>
        <pt x="468" y="1085" on="0"/>
      </contour>
      <contour>
        <pt x="622" y="96" on="1"/>
        <pt x="704" y="96" on="0"/>
        <pt x="820" y="168" on="0"/>
        <pt x="894" y="287" on="0"/>
        <pt x="929" y="438" on="0"/>
        <pt x="929" y="518" on="1"/>
        <pt x="929" y="614" on="0"/>
        <pt x="888" y="797" on="0"/>
        <pt x="835" y="862" on="1"/>
        <pt x="448" y="141" on="1"/>
        <pt x="482" y="119" on="0"/>
        <pt x="568" y="96" on="0"/>
      </contour>
      <contour>
        <pt x="286" y="551" on="1"/>
        <pt x="286" y="457" on="0"/>
        <pt x="325" y="281" on="0"/>
        <pt x="372" y="215" on="1"/>
        <pt x="759" y="930" on="1"/>
        <pt x="724" y="950" on="0"/>
        <pt x="642" y="973" on="0"/>
        <pt x="593" y="973" on="1"/>
        <pt x="511" y="973" on="0"/>
        <pt x="394" y="901" on="0"/>
        <pt x="321" y="782" on="0"/>
        <pt x="286" y="631" on="0"/>
      </contour>
    </TTGlyph>
    <TTGlyph name="otilde" xMin="81" yMin="-16" xMax="1134" yMax="1494">
      <component glyphName="o" x="0" y="0" flags="0x204"/>
      <component glyphName="tilde" x="-199" y="0" flags="0x4"/>
    </TTGlyph>
    <TTGlyph name="p" xMin="30" yMin="-461" xMax="1134" yMax="1083">
      <contour>
        <pt x="393" y="946" on="1"/>
        <pt x="473" y="1018" on="0"/>
        <pt x="638" y="1083" on="0"/>
        <pt x="716" y="1083" on="1"/>
        <pt x="802" y="1083" on="0"/>
        <pt x="956" y="1008" on="0"/>
        <pt x="1069" y="872" on="0"/>
        <pt x="1134" y="682" on="0"/>
        <pt x="1134" y="565" on="1"/>
        <pt x="1134" y="444" on="0"/>
        <pt x="1064" y="238" on="0"/>
        <pt x="937" y="84" on="0"/>
        <pt x="755" y="-4" on="0"/>
        <pt x="645" y="-4" on="1"/>
        <pt x="524" y="-4" on="0"/>
        <pt x="393" y="49" on="1"/>
        <pt x="393" y="-334" on="1"/>
        <pt x="589" y="-362" on="1"/>
        <pt x="569" y="-461" on="1"/>
        <pt x="30" y="-461" on="1"/>
        <pt x="30" y="-399" on="1"/>
        <pt x="208" y="-338" on="1"/>
        <pt x="208" y="907" on="1"/>
        <pt x="42" y="940" on="1"/>
        <pt x="32" y="1030" on="1"/>
        <pt x="393" y="1079" on="1"/>
      </contour>
      <contour>
        <pt x="393" y="203" on="1"/>
        <pt x="464" y="154" on="0"/>
        <pt x="589" y="109" on="0"/>
        <pt x="643" y="109" on="1"/>
        <pt x="712" y="109" on="0"/>
        <pt x="819" y="176" on="0"/>
        <pt x="892" y="291" on="0"/>
        <pt x="931" y="444" on="0"/>
        <pt x="931" y="530" on="1"/>
        <pt x="931" y="713" on="0"/>
        <pt x="786" y="928" on="0"/>
        <pt x="657" y="928" on="1"/>
        <pt x="600" y="928" on="0"/>
        <pt x="466" y="881" on="0"/>
        <pt x="393" y="827" on="1"/>
      </contour>
    </TTGlyph>
    <TTGlyph name="paragraph" xMin="64" yMin="-248" xMax="977" yMax="1409">
      <contour>
        <pt x="977" y="1346" on="1"/>
        <pt x="811" y="1284" on="1"/>
        <pt x="811" y="-248" on="1"/>
        <pt x="699" y="-248" on="1"/>
        <pt x="699" y="1327" on="1"/>
        <pt x="549" y="1327" on="1"/>
        <pt x="549" y="553" on="1"/>
        <pt x="451" y="553" on="0"/>
        <pt x="275" y="586" on="0"/>
        <pt x="142" y="684" on="0"/>
        <pt x="64" y="862" on="0"/>
        <pt x="64" y="1008" on="1"/>
        <pt x="64" y="1135" on="0"/>
        <pt x="137" y="1290" on="0"/>
        <pt x="264" y="1376" on="0"/>
        <pt x="432" y="1407" on="0"/>
        <pt x="527" y="1409" on="1"/>
        <pt x="977" y="1409" on="1"/>
      </contour>
    </TTGlyph>
    <TTGlyph name="parenleft" xMin="72" yMin="-408" xMax="533" yMax="1505">
      <contour>
        <pt x="72" y="549" on="1"/>
        <pt x="72" y="680" on="0"/>
        <pt x="122" y="940" on="0"/>
        <pt x="222" y="1188" on="0"/>
        <pt x="371" y="1411" on="0"/>
        <pt x="472" y="1505" on="1"/>
        <pt x="533" y="1460" on="1"/>
        <pt x="447" y="1370" on="0"/>
        <pt x="339" y="1151" on="0"/>
        <pt x="279" y="913" on="0"/>
        <pt x="257" y="666" on="0"/>
        <pt x="257" y="549" on="1"/>
        <pt x="257" y="432" on="0"/>
        <pt x="279" y="184" on="0"/>
        <pt x="339" y="-53" on="0"/>
        <pt x="447" y="-272" on="0"/>
        <pt x="533" y="-362" on="1"/>
        <pt x="472" y="-408" on="1"/>
        <pt x="371" y="-313" on="0"/>
        <pt x="222" y="-90" on="0"/>
        <pt x="122" y="158" on="0"/>
        <pt x="72" y="418" on="0"/>
      </contour>
    </TTGlyph>
    <TTGlyph name="parenright" xMin="26" yMin="-408" xMax="487" yMax="1505">
      <contour>
        <pt x="487" y="549" on="1"/>
        <pt x="487" y="418" on="0"/>
        <pt x="438" y="158" on="0"/>
        <pt x="338" y="-90" on="0"/>
        <pt x="188" y="-313" on="0"/>
        <pt x="88" y="-408" on="1"/>
        <pt x="26" y="-362" on="1"/>
        <pt x="112" y="-272" on="0"/>
        <pt x="221" y="-53" on="0"/>
        <pt x="280" y="184" on="0"/>
        <pt x="303" y="432" on="0"/>
        <pt x="303" y="549" on="1"/>
        <pt x="303" y="666" on="0"/>
        <pt x="280" y="913" on="0"/>
        <pt x="221" y="1151" on="0"/>
        <pt x="112" y="1370" on="0"/>
        <pt x="26" y="1460" on="1"/>
        <pt x="88" y="1505" on="1"/>
        <pt x="188" y="1411" on="0"/>
        <pt x="338" y="1188" on="0"/>
        <pt x="438" y="940" on="0"/>
        <pt x="487" y="680" on="0"/>
      </contour>
    </TTGlyph>
    <TTGlyph name="percent" xMin="68" yMin="-20" xMax="1360" yMax="1462">
      <contour>
        <pt x="635" y="1151" on="1"/>
        <pt x="635" y="1085" on="0"/>
        <pt x="602" y="975" on="0"/>
        <pt x="535" y="891" on="0"/>
        <pt x="426" y="844" on="0"/>
        <pt x="352" y="844" on="1"/>
        <pt x="277" y="844" on="0"/>
        <pt x="170" y="891" on="0"/>
        <pt x="100" y="975" on="0"/>
        <pt x="68" y="1085" on="0"/>
        <pt x="68" y="1151" on="1"/>
        <pt x="68" y="1217" on="0"/>
        <pt x="100" y="1329" on="0"/>
        <pt x="168" y="1413" on="0"/>
        <pt x="277" y="1462" on="0"/>
        <pt x="350" y="1462" on="1"/>
        <pt x="426" y="1462" on="0"/>
        <pt x="535" y="1413" on="0"/>
        <pt x="602" y="1329" on="0"/>
        <pt x="635" y="1217" on="0"/>
      </contour>
      <contour>
        <pt x="1176" y="1434" on="1"/>
        <pt x="406" y="0" on="1"/>
        <pt x="252" y="0" on="1"/>
        <pt x="1022" y="1434" on="1"/>
      </contour>
      <contour>
        <pt x="1360" y="287" on="1"/>
        <pt x="1360" y="221" on="0"/>
        <pt x="1327" y="111" on="0"/>
        <pt x="1260" y="27" on="0"/>
        <pt x="1151" y="-20" on="0"/>
        <pt x="1077" y="-20" on="1"/>
        <pt x="1002" y="-20" on="0"/>
        <pt x="895" y="27" on="0"/>
        <pt x="825" y="111" on="0"/>
        <pt x="793" y="221" on="0"/>
        <pt x="793" y="287" on="1"/>
        <pt x="793" y="352" on="0"/>
        <pt x="825" y="465" on="0"/>
        <pt x="893" y="549" on="0"/>
        <pt x="1002" y="598" on="0"/>
        <pt x="1075" y="598" on="1"/>
        <pt x="1151" y="598" on="0"/>
        <pt x="1260" y="549" on="0"/>
        <pt x="1327" y="465" on="0"/>
        <pt x="1360" y="352" on="0"/>
      </contour>
      <contour>
        <pt x="504" y="1151" on="1"/>
        <pt x="504" y="1200" on="0"/>
        <pt x="485" y="1284" on="0"/>
        <pt x="449" y="1348" on="0"/>
        <pt x="391" y="1384" on="0"/>
        <pt x="352" y="1384" on="1"/>
        <pt x="311" y="1384" on="0"/>
        <pt x="254" y="1348" on="0"/>
        <pt x="217" y="1284" on="0"/>
        <pt x="201" y="1200" on="0"/>
        <pt x="201" y="1151" on="1"/>
        <pt x="201" y="1055" on="0"/>
        <pt x="272" y="922" on="0"/>
        <pt x="352" y="922" on="1"/>
        <pt x="432" y="922" on="0"/>
        <pt x="504" y="1055" on="0"/>
      </contour>
      <contour>
        <pt x="1229" y="287" on="1"/>
        <pt x="1229" y="336" on="0"/>
        <pt x="1210" y="420" on="0"/>
        <pt x="1174" y="483" on="0"/>
        <pt x="1116" y="520" on="0"/>
        <pt x="1077" y="520" on="1"/>
        <pt x="1036" y="520" on="0"/>
        <pt x="979" y="483" on="0"/>
        <pt x="942" y="420" on="0"/>
        <pt x="926" y="336" on="0"/>
        <pt x="926" y="287" on="1"/>
        <pt x="926" y="190" on="0"/>
        <pt x="997" y="57" on="0"/>
        <pt x="1077" y="57" on="1"/>
        <pt x="1157" y="57" on="0"/>
        <pt x="1229" y="190" on="0"/>
      </contour>
    </TTGlyph>
    <TTGlyph name="period" xMin="83" yMin="-33" xMax="380" yMax="262">
      <contour>
        <pt x="83" y="113" on="1"/>
        <pt x="137" y="209" on="0"/>
        <pt x="235" y="262" on="1"/>
        <pt x="329" y="211" on="0"/>
        <pt x="380" y="117" on="1"/>
        <pt x="325" y="20" on="0"/>
        <pt x="229" y="-33" on="1"/>
        <pt x="133" y="16" on="0"/>
      </contour>
    </TTGlyph>
    <TTGlyph name="periodcentered" xMin="99" yMin="475" xMax="396" yMax="770">
      <contour>
        <pt x="99" y="621" on="1"/>
        <pt x="153" y="717" on="0"/>
        <pt x="251" y="770" on="1"/>
        <pt x="345" y="719" on="0"/>
        <pt x="396" y="625" on="1"/>
        <pt x="341" y="528" on="0"/>
        <pt x="245" y="475" on="1"/>
        <pt x="149" y="524" on="0"/>
      </contour>
    </TTGlyph>
    <TTGlyph name="plus" xMin="66" yMin="0" xMax="1282" yMax="1237">
      <contour>
        <pt x="66" y="680" on="1"/>
        <pt x="598" y="680" on="1"/>
        <pt x="598" y="1237" on="1"/>
        <pt x="750" y="1237" on="1"/>
        <pt x="750" y="680" on="1"/>
        <pt x="1282" y="680" on="1"/>
        <pt x="1282" y="535" on="1"/>
        <pt x="750" y="535" on="1"/>
        <pt x="750" y="0" on="1"/>
        <pt x="598" y="0" on="1"/>
        <pt x="598" y="535" on="1"/>
        <pt x="66" y="535" on="1"/>
      </contour>
    </TTGlyph>
    <TTGlyph name="plusminus" xMin="124" yMin="45" xMax="1156" yMax="1401">
      <contour>
        <pt x="124" y="190" on="1"/>
        <pt x="1156" y="190" on="1"/>
        <pt x="1156" y="45" on="1"/>
        <pt x="124" y="45" on="1"/>
      </contour>
      <contour>
        <pt x="124" y="965" on="1"/>
        <pt x="562" y="965" on="1"/>
        <pt x="562" y="1401" on="1"/>
        <pt x="718" y="1401" on="1"/>
        <pt x="718" y="965" on="1"/>
        <pt x="1156" y="965" on="1"/>
        <pt x="1156" y="819" on="1"/>
        <pt x="718" y="819" on="1"/>
        <pt x="718" y="360" on="1"/>
        <pt x="562" y="360" on="1"/>
        <pt x="562" y="819" on="1"/>
        <pt x="124" y="819" on="1"/>
      </contour>
    </TTGlyph>
    <TTGlyph name="q" xMin="83" yMin="-461" xMax="1158" yMax="1077">
      <contour>
        <pt x="816" y="942" on="1"/>
        <pt x="771" y="954" on="0"/>
        <pt x="691" y="965" on="0"/>
        <pt x="656" y="965" on="1"/>
        <pt x="558" y="965" on="0"/>
        <pt x="419" y="887" on="0"/>
        <pt x="329" y="756" on="0"/>
        <pt x="288" y="580" on="0"/>
        <pt x="288" y="479" on="1"/>
        <pt x="288" y="397" on="0"/>
        <pt x="331" y="264" on="0"/>
        <pt x="407" y="168" on="0"/>
        <pt x="513" y="117" on="0"/>
        <pt x="574" y="117" on="1"/>
        <pt x="630" y="117" on="0"/>
        <pt x="753" y="170" on="0"/>
        <pt x="816" y="211" on="1"/>
      </contour>
      <contour>
        <pt x="816" y="102" on="1"/>
        <pt x="744" y="37" on="0"/>
        <pt x="587" y="-23" on="0"/>
        <pt x="509" y="-23" on="1"/>
        <pt x="425" y="-23" on="0"/>
        <pt x="271" y="43" on="0"/>
        <pt x="153" y="166" on="0"/>
        <pt x="83" y="342" on="0"/>
        <pt x="83" y="451" on="1"/>
        <pt x="83" y="596" on="0"/>
        <pt x="167" y="829" on="0"/>
        <pt x="320" y="991" on="0"/>
        <pt x="540" y="1077" on="0"/>
        <pt x="673" y="1077" on="1"/>
        <pt x="822" y="1077" on="0"/>
        <pt x="1000" y="1018" on="1"/>
        <pt x="1002" y="-334" on="1"/>
        <pt x="1158" y="-362" on="1"/>
        <pt x="1138" y="-461" on="1"/>
        <pt x="609" y="-461" on="1"/>
        <pt x="609" y="-399" on="1"/>
        <pt x="818" y="-338" on="1"/>
      </contour>
    </TTGlyph>
    <TTGlyph name="question" xMin="66" yMin="-33" xMax="787" yMax="1458">
      <contour>
        <pt x="293" y="113" on="1"/>
        <pt x="346" y="209" on="0"/>
        <pt x="445" y="262" on="1"/>
        <pt x="539" y="211" on="0"/>
        <pt x="590" y="117" on="1"/>
        <pt x="535" y="20" on="0"/>
        <pt x="438" y="-33" on="1"/>
        <pt x="342" y="16" on="0"/>
      </contour>
      <contour>
        <pt x="230" y="1098" on="1"/>
        <pt x="129" y="1083" on="1"/>
        <pt x="66" y="1370" on="1"/>
        <pt x="142" y="1411" on="0"/>
        <pt x="332" y="1458" on="0"/>
        <pt x="430" y="1458" on="1"/>
        <pt x="500" y="1458" on="0"/>
        <pt x="629" y="1425" on="0"/>
        <pt x="727" y="1358" on="0"/>
        <pt x="787" y="1253" on="0"/>
        <pt x="787" y="1180" on="1"/>
        <pt x="787" y="1092" on="0"/>
        <pt x="729" y="969" on="0"/>
        <pt x="645" y="879" on="0"/>
        <pt x="545" y="815" on="0"/>
        <pt x="461" y="756" on="0"/>
        <pt x="404" y="692" on="0"/>
        <pt x="404" y="649" on="1"/>
        <pt x="404" y="608" on="0"/>
        <pt x="443" y="549" on="0"/>
        <pt x="494" y="549" on="1"/>
        <pt x="547" y="549" on="0"/>
        <pt x="574" y="623" on="1"/>
        <pt x="647" y="565" on="1"/>
        <pt x="635" y="530" on="0"/>
        <pt x="596" y="483" on="0"/>
        <pt x="553" y="453" on="0"/>
        <pt x="514" y="438" on="0"/>
        <pt x="500" y="436" on="1"/>
        <pt x="393" y="422" on="0"/>
        <pt x="252" y="541" on="0"/>
        <pt x="252" y="664" on="1"/>
        <pt x="252" y="731" on="0"/>
        <pt x="357" y="846" on="0"/>
        <pt x="481" y="956" on="0"/>
        <pt x="586" y="1075" on="0"/>
        <pt x="586" y="1147" on="1"/>
        <pt x="586" y="1245" on="0"/>
        <pt x="461" y="1343" on="0"/>
        <pt x="379" y="1343" on="1"/>
        <pt x="309" y="1343" on="0"/>
        <pt x="246" y="1311" on="1"/>
      </contour>
    </TTGlyph>
    <TTGlyph name="questiondown" xMin="65" yMin="-23" xMax="786" yMax="1468">
      <contour>
        <pt x="292" y="1323" on="1"/>
        <pt x="341" y="1419" on="0"/>
        <pt x="437" y="1468" on="1"/>
        <pt x="534" y="1415" on="0"/>
        <pt x="589" y="1319" on="1"/>
        <pt x="538" y="1225" on="0"/>
        <pt x="444" y="1174" on="1"/>
        <pt x="345" y="1227" on="0"/>
      </contour>
      <contour>
        <pt x="245" y="125" on="1"/>
        <pt x="308" y="92" on="0"/>
        <pt x="378" y="92" on="1"/>
        <pt x="460" y="92" on="0"/>
        <pt x="585" y="190" on="0"/>
        <pt x="585" y="289" on="1"/>
        <pt x="585" y="360" on="0"/>
        <pt x="480" y="479" on="0"/>
        <pt x="356" y="590" on="0"/>
        <pt x="251" y="705" on="0"/>
        <pt x="251" y="772" on="1"/>
        <pt x="251" y="883" on="0"/>
        <pt x="368" y="1001" on="0"/>
        <pt x="460" y="1001" on="1"/>
        <pt x="462" y="1001" on="0"/>
        <pt x="507" y="999" on="0"/>
        <pt x="566" y="977" on="0"/>
        <pt x="628" y="924" on="0"/>
        <pt x="646" y="870" on="1"/>
        <pt x="573" y="813" on="1"/>
        <pt x="546" y="887" on="0"/>
        <pt x="493" y="887" on="1"/>
        <pt x="442" y="887" on="0"/>
        <pt x="403" y="827" on="0"/>
        <pt x="403" y="786" on="1"/>
        <pt x="403" y="743" on="0"/>
        <pt x="460" y="680" on="0"/>
        <pt x="544" y="621" on="0"/>
        <pt x="644" y="557" on="0"/>
        <pt x="728" y="467" on="0"/>
        <pt x="786" y="344" on="0"/>
        <pt x="786" y="256" on="1"/>
        <pt x="786" y="182" on="0"/>
        <pt x="726" y="76" on="0"/>
        <pt x="628" y="8" on="0"/>
        <pt x="499" y="-23" on="0"/>
        <pt x="429" y="-23" on="1"/>
        <pt x="331" y="-23" on="0"/>
        <pt x="141" y="25" on="0"/>
        <pt x="65" y="66" on="1"/>
        <pt x="128" y="352" on="1"/>
        <pt x="229" y="338" on="1"/>
      </contour>
    </TTGlyph>
    <TTGlyph name="quotedbl" xMin="98" yMin="944" xMax="612" yMax="1493">
      <contour>
        <pt x="227" y="944" on="1"/>
        <pt x="153" y="944" on="1"/>
        <pt x="98" y="1409" on="1"/>
        <pt x="108" y="1430" on="0"/>
        <pt x="155" y="1483" on="0"/>
        <pt x="190" y="1493" on="1"/>
        <pt x="225" y="1483" on="0"/>
        <pt x="272" y="1430" on="0"/>
        <pt x="282" y="1409" on="1"/>
      </contour>
      <contour>
        <pt x="556" y="944" on="1"/>
        <pt x="483" y="944" on="1"/>
        <pt x="427" y="1409" on="1"/>
        <pt x="438" y="1430" on="0"/>
        <pt x="485" y="1483" on="0"/>
        <pt x="520" y="1493" on="1"/>
        <pt x="554" y="1483" on="0"/>
        <pt x="601" y="1430" on="0"/>
        <pt x="612" y="1409" on="1"/>
      </contour>
    </TTGlyph>
    <TTGlyph name="quotedblbase" xMin="80" yMin="-293" xMax="818" yMax="315">
      <contour>
        <pt x="377" y="170" on="1"/>
        <pt x="390" y="119" on="0"/>
        <pt x="367" y="-25" on="0"/>
        <pt x="308" y="-164" on="0"/>
        <pt x="220" y="-274" on="0"/>
        <pt x="166" y="-293" on="1"/>
        <pt x="126" y="-242" on="1"/>
        <pt x="162" y="-217" on="0"/>
        <pt x="207" y="-152" on="0"/>
        <pt x="230" y="-78" on="0"/>
        <pt x="232" y="-8" on="0"/>
        <pt x="226" y="20" on="1"/>
        <pt x="130" y="70" on="0"/>
        <pt x="80" y="166" on="1"/>
        <pt x="134" y="262" on="0"/>
        <pt x="232" y="315" on="1"/>
        <pt x="326" y="264" on="0"/>
      </contour>
      <contour>
        <pt x="805" y="170" on="1"/>
        <pt x="818" y="119" on="0"/>
        <pt x="795" y="-25" on="0"/>
        <pt x="736" y="-164" on="0"/>
        <pt x="648" y="-274" on="0"/>
        <pt x="594" y="-293" on="1"/>
        <pt x="554" y="-242" on="1"/>
        <pt x="590" y="-217" on="0"/>
        <pt x="635" y="-152" on="0"/>
        <pt x="658" y="-78" on="0"/>
        <pt x="660" y="-8" on="0"/>
        <pt x="654" y="20" on="1"/>
        <pt x="558" y="70" on="0"/>
        <pt x="508" y="166" on="1"/>
        <pt x="562" y="262" on="0"/>
        <pt x="660" y="315" on="1"/>
        <pt x="754" y="264" on="0"/>
      </contour>
    </TTGlyph>
    <TTGlyph name="quotedblleft" xMin="81" yMin="905" xMax="833" yMax="1513">
      <contour>
        <pt x="94" y="1050" on="1"/>
        <pt x="81" y="1102" on="0"/>
        <pt x="104" y="1245" on="0"/>
        <pt x="163" y="1382" on="0"/>
        <pt x="251" y="1495" on="0"/>
        <pt x="305" y="1513" on="1"/>
        <pt x="346" y="1462" on="1"/>
        <pt x="309" y="1438" on="0"/>
        <pt x="264" y="1372" on="0"/>
        <pt x="241" y="1298" on="0"/>
        <pt x="239" y="1227" on="0"/>
        <pt x="245" y="1200" on="1"/>
        <pt x="341" y="1151" on="0"/>
        <pt x="391" y="1055" on="1"/>
        <pt x="337" y="958" on="0"/>
        <pt x="239" y="905" on="1"/>
        <pt x="145" y="956" on="0"/>
      </contour>
      <contour>
        <pt x="536" y="1050" on="1"/>
        <pt x="524" y="1102" on="0"/>
        <pt x="546" y="1245" on="0"/>
        <pt x="606" y="1382" on="0"/>
        <pt x="694" y="1495" on="0"/>
        <pt x="747" y="1513" on="1"/>
        <pt x="788" y="1462" on="1"/>
        <pt x="751" y="1438" on="0"/>
        <pt x="706" y="1372" on="0"/>
        <pt x="684" y="1298" on="0"/>
        <pt x="681" y="1227" on="0"/>
        <pt x="688" y="1200" on="1"/>
        <pt x="784" y="1151" on="0"/>
        <pt x="833" y="1055" on="1"/>
        <pt x="780" y="958" on="0"/>
        <pt x="681" y="905" on="1"/>
        <pt x="587" y="956" on="0"/>
      </contour>
    </TTGlyph>
    <TTGlyph name="quotedblright" xMin="82" yMin="905" xMax="822" yMax="1513">
      <contour>
        <pt x="379" y="1368" on="1"/>
        <pt x="392" y="1317" on="0"/>
        <pt x="369" y="1173" on="0"/>
        <pt x="310" y="1034" on="0"/>
        <pt x="222" y="923" on="0"/>
        <pt x="168" y="905" on="1"/>
        <pt x="127" y="956" on="1"/>
        <pt x="164" y="981" on="0"/>
        <pt x="209" y="1046" on="0"/>
        <pt x="232" y="1120" on="0"/>
        <pt x="234" y="1190" on="0"/>
        <pt x="228" y="1218" on="1"/>
        <pt x="131" y="1267" on="0"/>
        <pt x="82" y="1364" on="1"/>
        <pt x="136" y="1460" on="0"/>
        <pt x="234" y="1513" on="1"/>
        <pt x="328" y="1462" on="0"/>
      </contour>
      <contour>
        <pt x="809" y="1368" on="1"/>
        <pt x="822" y="1317" on="0"/>
        <pt x="799" y="1173" on="0"/>
        <pt x="740" y="1034" on="0"/>
        <pt x="652" y="923" on="0"/>
        <pt x="598" y="905" on="1"/>
        <pt x="557" y="956" on="1"/>
        <pt x="594" y="981" on="0"/>
        <pt x="639" y="1046" on="0"/>
        <pt x="662" y="1120" on="0"/>
        <pt x="664" y="1190" on="0"/>
        <pt x="658" y="1218" on="1"/>
        <pt x="561" y="1267" on="0"/>
        <pt x="512" y="1364" on="1"/>
        <pt x="566" y="1460" on="0"/>
        <pt x="664" y="1513" on="1"/>
        <pt x="758" y="1462" on="0"/>
      </contour>
    </TTGlyph>
    <TTGlyph name="quoteleft" xMin="81" yMin="905" xMax="391" yMax="1513">
      <contour>
        <pt x="94" y="1050" on="1"/>
        <pt x="81" y="1102" on="0"/>
        <pt x="104" y="1245" on="0"/>
        <pt x="163" y="1382" on="0"/>
        <pt x="251" y="1495" on="0"/>
        <pt x="305" y="1513" on="1"/>
        <pt x="346" y="1462" on="1"/>
        <pt x="309" y="1438" on="0"/>
        <pt x="264" y="1372" on="0"/>
        <pt x="241" y="1298" on="0"/>
        <pt x="239" y="1227" on="0"/>
        <pt x="245" y="1200" on="1"/>
        <pt x="342" y="1151" on="0"/>
        <pt x="391" y="1055" on="1"/>
        <pt x="337" y="958" on="0"/>
        <pt x="239" y="905" on="1"/>
        <pt x="145" y="956" on="0"/>
      </contour>
    </TTGlyph>
    <TTGlyph name="quoteright" xMin="80" yMin="905" xMax="390" yMax="1513">
      <contour>
        <pt x="377" y="1368" on="1"/>
        <pt x="390" y="1317" on="0"/>
        <pt x="367" y="1174" on="0"/>
        <pt x="308" y="1034" on="0"/>
        <pt x="220" y="924" on="0"/>
        <pt x="166" y="905" on="1"/>
        <pt x="125" y="956" on="1"/>
        <pt x="162" y="981" on="0"/>
        <pt x="207" y="1047" on="0"/>
        <pt x="230" y="1120" on="0"/>
        <pt x="232" y="1190" on="0"/>
        <pt x="226" y="1219" on="1"/>
        <pt x="130" y="1268" on="0"/>
        <pt x="80" y="1364" on="1"/>
        <pt x="134" y="1460" on="0"/>
        <pt x="232" y="1513" on="1"/>
        <pt x="326" y="1462" on="0"/>
      </contour>
    </TTGlyph>
    <TTGlyph name="quotesinglbase" xMin="81" yMin="-358" xMax="390" yMax="250">
      <contour>
        <pt x="378" y="104" on="1"/>
        <pt x="390" y="53" on="0"/>
        <pt x="367" y="-90" on="0"/>
        <pt x="308" y="-229" on="0"/>
        <pt x="220" y="-340" on="0"/>
        <pt x="167" y="-358" on="1"/>
        <pt x="126" y="-307" on="1"/>
        <pt x="162" y="-283" on="0"/>
        <pt x="208" y="-217" on="0"/>
        <pt x="230" y="-143" on="0"/>
        <pt x="232" y="-74" on="0"/>
        <pt x="226" y="-45" on="1"/>
        <pt x="130" y="4" on="0"/>
        <pt x="81" y="100" on="1"/>
        <pt x="134" y="197" on="0"/>
        <pt x="232" y="250" on="1"/>
        <pt x="326" y="199" on="0"/>
      </contour>
    </TTGlyph>
    <TTGlyph name="quotesingle" xMin="98" yMin="944" xMax="283" yMax="1493">
      <contour>
        <pt x="227" y="944" on="1"/>
        <pt x="154" y="944" on="1"/>
        <pt x="98" y="1409" on="1"/>
        <pt x="109" y="1430" on="0"/>
        <pt x="156" y="1483" on="0"/>
        <pt x="191" y="1493" on="1"/>
        <pt x="225" y="1483" on="0"/>
        <pt x="272" y="1430" on="0"/>
        <pt x="283" y="1409" on="1"/>
      </contour>
    </TTGlyph>
    <TTGlyph name="r" xMin="60" yMin="0" xMax="875" yMax="1079">
      <contour>
        <pt x="875" y="776" on="1"/>
        <pt x="768" y="758" on="1"/>
        <pt x="713" y="913" on="1"/>
        <pt x="705" y="915" on="0"/>
        <pt x="680" y="915" on="0"/>
        <pt x="672" y="915" on="1"/>
        <pt x="606" y="915" on="0"/>
        <pt x="463" y="858" on="0"/>
        <pt x="422" y="811" on="1"/>
        <pt x="422" y="127" on="1"/>
        <pt x="611" y="98" on="1"/>
        <pt x="590" y="0" on="1"/>
        <pt x="62" y="0" on="1"/>
        <pt x="62" y="61" on="1"/>
        <pt x="240" y="123" on="1"/>
        <pt x="240" y="907" on="1"/>
        <pt x="70" y="940" on="1"/>
        <pt x="60" y="1030" on="1"/>
        <pt x="422" y="1079" on="1"/>
        <pt x="422" y="911" on="1"/>
        <pt x="492" y="985" on="0"/>
        <pt x="650" y="1079" on="0"/>
        <pt x="740" y="1079" on="1"/>
        <pt x="809" y="1079" on="0"/>
        <pt x="875" y="1051" on="1"/>
      </contour>
    </TTGlyph>
    <TTGlyph name="registered" xMin="86" yMin="-49" xMax="1663" yMax="1532">
      <contour>
        <pt x="905" y="702" on="1"/>
        <pt x="762" y="702" on="1"/>
        <pt x="762" y="420" on="1"/>
        <pt x="875" y="385" on="1"/>
        <pt x="866" y="326" on="1"/>
        <pt x="504" y="326" on="1"/>
        <pt x="504" y="377" on="1"/>
        <pt x="617" y="420" on="1"/>
        <pt x="617" y="1077" on="1"/>
        <pt x="504" y="1120" on="1"/>
        <pt x="520" y="1178" on="1"/>
        <pt x="850" y="1178" on="1"/>
        <pt x="905" y="1178" on="0"/>
        <pt x="1026" y="1161" on="0"/>
        <pt x="1129" y="1108" on="0"/>
        <pt x="1196" y="1010" on="0"/>
        <pt x="1196" y="928" on="1"/>
        <pt x="1196" y="842" on="0"/>
        <pt x="1104" y="743" on="0"/>
        <pt x="1045" y="717" on="1"/>
        <pt x="1213" y="420" on="1"/>
        <pt x="1309" y="385" on="1"/>
        <pt x="1292" y="326" on="1"/>
        <pt x="1098" y="326" on="1"/>
      </contour>
      <contour>
        <pt x="762" y="1075" on="1"/>
        <pt x="762" y="797" on="1"/>
        <pt x="850" y="797" on="1"/>
        <pt x="885" y="797" on="0"/>
        <pt x="952" y="803" on="0"/>
        <pt x="1006" y="831" on="0"/>
        <pt x="1038" y="891" on="0"/>
        <pt x="1038" y="944" on="1"/>
        <pt x="1038" y="995" on="0"/>
        <pt x="1006" y="1049" on="0"/>
        <pt x="952" y="1073" on="0"/>
        <pt x="885" y="1075" on="0"/>
        <pt x="850" y="1075" on="1"/>
      </contour>
      <contour>
        <pt x="875" y="1532" on="1"/>
        <pt x="1038" y="1532" on="0"/>
        <pt x="1327" y="1405" on="0"/>
        <pt x="1540" y="1190" on="0"/>
        <pt x="1663" y="903" on="0"/>
        <pt x="1663" y="741" on="1"/>
        <pt x="1663" y="580" on="0"/>
        <pt x="1540" y="293" on="0"/>
        <pt x="1327" y="78" on="0"/>
        <pt x="1038" y="-49" on="0"/>
        <pt x="875" y="-49" on="1"/>
        <pt x="711" y="-49" on="0"/>
        <pt x="422" y="78" on="0"/>
        <pt x="209" y="293" on="0"/>
        <pt x="86" y="580" on="0"/>
        <pt x="86" y="741" on="1"/>
        <pt x="86" y="903" on="0"/>
        <pt x="209" y="1190" on="0"/>
        <pt x="422" y="1405" on="0"/>
        <pt x="711" y="1532" on="0"/>
      </contour>
      <contour>
        <pt x="875" y="1425" on="1"/>
        <pt x="733" y="1425" on="0"/>
        <pt x="492" y="1313" on="0"/>
        <pt x="315" y="1124" on="0"/>
        <pt x="215" y="877" on="0"/>
        <pt x="215" y="741" on="1"/>
        <pt x="215" y="606" on="0"/>
        <pt x="315" y="358" on="0"/>
        <pt x="492" y="170" on="0"/>
        <pt x="733" y="57" on="0"/>
        <pt x="875" y="57" on="1"/>
        <pt x="1016" y="57" on="0"/>
        <pt x="1258" y="170" on="0"/>
        <pt x="1432" y="358" on="0"/>
        <pt x="1532" y="606" on="0"/>
        <pt x="1532" y="741" on="1"/>
        <pt x="1532" y="877" on="0"/>
        <pt x="1432" y="1124" on="0"/>
        <pt x="1258" y="1313" on="0"/>
        <pt x="1016" y="1425" on="0"/>
      </contour>
    </TTGlyph>
</ttFont>
